<svg width="135" height="71" viewBox="0 0 135 71" fill="none" xmlns="http://www.w3.org/2000/svg">
<path d="M10.4731 24.1631L45.3985 26.4626L20.1269 36.9475L120.473 16.6632" stroke="white" stroke-width="34"/>
<path d="M131.973 39.1632L80.4232 46.1781L105.695 35.6932L3.47299 53.6625" stroke="white" stroke-width="34"/>
<path d="M37.9528 31.2026L33.6708 31.6173L32.4476 18.9864L35.3142 18.7088L36.2667 28.5447L36.858 28.4875L44.7202 17.7978L49.0021 17.3831L50.2254 30.014L47.3588 30.2917L46.4062 20.4557L45.815 20.5129L37.9528 31.2026ZM55.7049 29.4834L52.9817 29.7471L52.0655 20.2874L61.3819 19.3851L61.6023 21.6605L55.0092 22.299L55.7049 29.4834ZM70.5039 28.5203C68.0912 28.754 66.2078 28.4783 64.8538 27.6931C63.5106 26.8949 62.7592 25.6716 62.5996 24.0233C62.4411 22.387 62.9456 21.0602 64.1129 20.0429C65.2911 19.0125 67.0865 18.3805 69.4993 18.1469C71.912 17.9132 73.7893 18.1895 75.1314 18.9758C76.4842 19.749 77.2399 20.9538 77.3983 22.5901C77.558 24.2384 77.0493 25.5837 75.8723 26.626C74.7061 27.6552 72.9166 28.2867 70.5039 28.5203ZM70.2905 26.3167C71.9029 26.1605 73.0725 25.788 73.7991 25.1992C74.5246 24.5985 74.8404 23.8144 74.7467 22.8469C74.6542 21.8914 74.1889 21.195 73.3509 20.7578C72.5248 20.3193 71.3114 20.1776 69.7109 20.3326C68.1104 20.4877 66.9409 20.8601 66.2023 21.4501C65.4757 22.0389 65.1586 22.811 65.2512 23.7665C65.3449 24.734 65.8054 25.4429 66.6326 25.8933C67.4587 26.3317 68.678 26.4728 70.2905 26.3167ZM80.0017 30.8376L78.7298 17.705L80.7185 17.5124L81.4393 18.9798C82.7932 17.5225 84.6824 16.6764 87.1071 16.4416C88.3731 16.319 89.5054 16.4324 90.5037 16.7818C91.5128 17.1181 92.3183 17.6549 92.9202 18.3924C93.5209 19.1178 93.8704 19.9882 93.9688 21.0034C94.0671 22.0187 93.8916 22.9459 93.4425 23.7851C92.9933 24.6243 92.3063 25.3118 91.3816 25.8474C90.4678 26.3699 89.3778 26.6925 88.1117 26.8151C85.7587 27.043 83.7989 26.5998 82.2322 25.4857L82.7249 30.5739L80.0017 30.8376ZM87.1279 24.686C88.5851 24.5449 89.6591 24.1817 90.3499 23.5964C91.0526 23.0099 91.3571 22.2329 91.2634 21.2654C91.1697 20.298 90.7218 19.5939 89.9195 19.1531C89.1293 18.7113 88.0055 18.5609 86.5484 18.702C84.9717 18.8547 83.7669 19.2366 82.934 19.8478C82.1129 20.4577 81.7481 21.2345 81.8395 22.1781C81.9309 23.1217 82.438 23.814 83.3608 24.2551C84.2956 24.6951 85.5513 24.8387 87.1279 24.686ZM96.215 25.5601L95.2988 16.1004L98.0221 15.8367L98.2685 18.3808L102.246 17.9956C103.715 17.8533 104.874 18.0605 105.724 18.6172C106.574 19.1739 107.049 19.9718 107.149 21.0109C107.25 22.0501 106.931 22.9249 106.192 23.6354C105.465 24.3448 104.373 24.7701 102.916 24.9112L96.215 25.5601ZM102.662 22.856C103.283 22.7959 103.744 22.6308 104.043 22.3607C104.341 22.0786 104.469 21.7166 104.426 21.2747C104.383 20.8327 104.189 20.5079 103.843 20.3003C103.497 20.0807 103.013 20.001 102.392 20.0611L98.468 20.4411L98.7387 23.236L102.662 22.856ZM21.3748 55.9157L20.1515 43.2848L27.8555 42.5387C29.1813 42.4103 30.3166 42.4933 31.2613 42.7876C32.2049 43.0699 32.9361 43.5236 33.4547 44.1485C33.9722 44.7614 34.2732 45.5039 34.3576 46.3758C34.4432 47.2597 34.2915 48.058 33.9024 48.7708C33.5121 49.4717 32.8816 50.0572 32.0109 50.5274C31.139 50.9855 30.0402 51.2788 28.7144 51.4072L23.877 51.8757L24.2414 55.6381L21.3748 55.9157ZM28.8847 49.0579C29.7685 48.9723 30.4243 48.7098 30.8519 48.2706C31.2904 47.8182 31.4795 47.2815 31.4194 46.6604C31.3604 46.0512 31.0729 45.5727 30.557 45.2248C30.053 44.8758 29.3591 44.744 28.4752 44.8296L23.2437 45.3363L23.6532 49.5645L28.8847 49.0579ZM36.9589 54.4065L36.0428 44.9467L38.766 44.683L39.0124 47.2271L42.6673 46.8731C44.1245 46.732 45.2779 46.9398 46.1275 47.4965C46.9891 48.052 47.4702 48.8493 47.5708 49.8885C47.6714 50.9276 47.3523 51.8025 46.6133 52.513C45.8863 53.2224 44.7942 53.6476 43.3371 53.7888L36.9589 54.4065ZM52.1518 52.9351L49.4286 53.1988L48.5124 43.7391L51.2357 43.4753L52.1518 52.9351ZM43.0659 51.7353C43.687 51.6752 44.1472 51.5101 44.4465 51.2399C44.7567 50.9567 44.8904 50.5942 44.8476 50.1522C44.8048 49.7103 44.6046 49.3861 44.247 49.1796C43.9002 48.96 43.4163 48.8803 42.7952 48.9404L39.2119 49.2874L39.4826 52.0824L43.0659 51.7353ZM60.913 43.6413C65.1173 43.2341 67.3612 44.4937 67.6446 47.42C67.7799 48.8174 67.3303 49.9641 66.2959 50.86C65.2603 51.7439 63.5899 52.2975 61.2846 52.5208C58.7405 52.7672 56.8454 52.4323 55.5993 51.5162C54.3937 50.6443 53.6942 49.2111 53.5011 47.2164C53.3264 45.4128 53.679 43.95 54.559 42.828C55.4497 41.6928 56.8718 40.9402 58.8252 40.5702L61.8432 39.9886C62.3522 39.8911 62.7228 39.7346 62.9551 39.5192C63.1982 39.2907 63.3383 38.9938 63.3752 38.6286L65.8379 38.6613C65.8745 39.5379 65.6771 40.2382 65.2456 40.7622C64.8141 41.2863 64.0362 41.657 62.912 41.8744L59.731 42.4537C58.7477 42.6333 57.9642 42.884 57.3805 43.2058C56.8088 43.5264 56.3956 43.9281 56.1409 44.4109C55.8982 44.8925 55.7871 45.488 55.8076 46.1973C56.8821 44.7188 58.5839 43.8668 60.913 43.6413ZM61.162 50.5072C62.5714 50.3707 63.5795 50.0742 64.1863 49.6176C64.8039 49.1479 65.0734 48.5069 64.9947 47.6947C64.9172 46.8944 64.5303 46.3231 63.8341 45.9806C63.1378 45.6381 62.091 45.5345 60.6935 45.6699C59.2005 45.8145 58.1045 46.1376 57.4056 46.6393C56.7056 47.1291 56.3926 47.7562 56.4666 48.5206C56.5418 49.297 56.9699 49.8583 57.7509 50.2046C58.5319 50.551 59.669 50.6518 61.162 50.5072ZM74.7893 40.7422C75.924 40.6323 76.9291 40.7399 77.8045 41.065C78.6787 41.3782 79.3715 41.8717 79.8829 42.5456C80.3942 43.2194 80.6938 44.0102 80.7817 44.918L81.2849 50.1137L79.3141 50.3045L78.6852 48.6655C78.216 49.4223 77.5753 50.0268 76.7631 50.4792C75.9617 50.9185 75.0355 51.1891 73.9844 51.2909C73.0767 51.3788 72.2571 51.3195 71.5258 51.113C70.7957 50.9185 70.2098 50.5955 69.7682 50.144C69.3266 49.6924 69.0746 49.1442 69.0121 48.4992C68.9173 47.5198 69.2428 46.7106 69.9887 46.0717C70.7454 45.4198 71.8881 45.0197 73.417 44.8717L77.9677 44.431C77.8024 43.8442 77.439 43.3911 76.8776 43.0717C76.3281 42.7512 75.6413 42.6308 74.8172 42.7106C73.3361 42.8541 72.3161 43.3387 71.7571 44.1644L69.2089 43.9952C69.6022 43.077 70.2726 42.343 71.22 41.7931C72.1782 41.2301 73.368 40.8798 74.7893 40.7422ZM74.238 49.2409C75.4563 49.1229 76.4191 48.7946 77.1265 48.2559C77.8446 47.7041 78.1942 47.0192 78.1753 46.2012L73.4992 46.6541C72.8184 46.72 72.3325 46.8695 72.0416 47.1026C71.7496 47.3238 71.6232 47.6375 71.6626 48.0436C71.7088 48.5213 71.9526 48.8594 72.3937 49.0578C72.8349 49.2562 73.4497 49.3172 74.238 49.2409ZM96.124 48.6766L92.3974 49.0375L87.1489 45.8204L86.1097 45.921L86.4672 49.6118L83.7439 49.8755L82.8278 40.4158L85.551 40.152L85.8946 43.6994L86.8621 43.6057L91.3021 39.5951L94.7241 39.2637L89.0179 44.3916L96.124 48.6766ZM102.998 48.481C100.586 48.7147 98.7022 48.4389 97.3482 47.6538C96.005 46.8555 95.2536 45.6323 95.094 43.984C94.9355 42.3476 95.4399 41.0208 96.6073 40.0036C97.7855 38.9732 99.5809 38.3412 101.994 38.1075C104.406 37.8739 106.284 38.1502 107.626 38.9365C108.979 39.7097 109.734 40.9144 109.893 42.5508C110.052 44.1991 109.544 45.5444 108.367 46.5867C107.2 47.6159 105.411 48.2473 102.998 48.481ZM102.785 46.2773C104.397 46.1211 105.567 45.7487 106.293 45.1599C107.019 44.5592 107.335 43.7751 107.241 42.8076C107.149 41.8521 106.683 41.1557 105.845 40.7184C105.019 40.28 103.806 40.1383 102.205 40.2933C100.605 40.4483 99.4353 40.8208 98.6967 41.4107C97.9701 41.9995 97.653 42.7717 97.7456 43.7272C97.8392 44.6947 98.2997 45.4036 99.127 45.8539C99.9531 46.2923 101.172 46.4335 102.785 46.2773ZM121.447 41.269C122.119 41.3607 122.665 41.5851 123.086 41.9422C123.506 42.2994 123.743 42.7586 123.798 43.32C123.875 44.1202 123.603 44.7976 122.982 45.3521C122.359 45.8946 121.403 46.2284 120.113 46.3533L112.14 47.1254L111.224 37.6657L118.857 36.9265C120.111 36.8051 121.082 36.9401 121.771 37.3315C122.471 37.7098 122.858 38.2871 122.933 39.0635C123.034 40.1026 122.539 40.8378 121.447 41.269ZM114.061 39.3259L114.242 41.1892L119.026 40.7259C119.491 40.6808 119.824 40.5642 120.022 40.3762C120.232 40.1751 120.324 39.9371 120.297 39.6624C120.27 39.3877 120.135 39.1777 119.892 39.0325C119.66 38.8741 119.311 38.8175 118.845 38.8626L114.061 39.3259ZM119.694 44.4588C120.184 44.4114 120.545 44.28 120.778 44.0646C121.022 43.848 121.129 43.5845 121.099 43.2739C121.07 42.9753 120.921 42.7486 120.653 42.5937C120.396 42.4258 120.01 42.3666 119.497 42.4164L114.408 42.9092L114.606 44.9516L119.694 44.4588Z" fill="black"/>
</svg>
