<svg width="189" height="69" viewBox="0 0 189 69" fill="none" xmlns="http://www.w3.org/2000/svg">
<path d="M37.2549 20.3355L68.6803 24.1349L43.4088 34.6198L139.755 17.8355" stroke="white" stroke-width="34"/>
<path d="M186.255 33.3656L103.706 43.8502L128.977 33.3654L3.25538 51.335" stroke="white" stroke-width="34"/>
<path d="M65.8542 28.8974C63.8357 29.0929 62.0843 28.9973 60.6001 28.6105C59.1267 28.2107 57.9706 27.539 57.1317 26.5955C56.3048 25.6508 55.8219 24.4618 55.6831 23.0285C55.5455 21.6072 55.7978 20.353 56.44 19.266C57.0822 18.1791 58.0885 17.304 59.459 16.6408C60.8283 15.9657 62.5222 15.5303 64.5407 15.3349C66.7146 15.1243 68.6054 15.2908 70.2133 15.8344C71.8212 16.3779 72.9804 17.206 73.691 18.3187L70.5649 19.0916C69.9781 18.5095 69.1734 18.1052 68.1508 17.8787C67.1401 17.6511 66.0018 17.5986 64.7357 17.7212C62.5977 17.9282 61.0109 18.4737 59.9753 19.3577C58.9516 20.2405 58.5063 21.3686 58.6393 22.7422C58.7735 24.1277 59.4276 25.1555 60.6016 25.8254C61.7876 26.4942 63.4496 26.7251 65.5876 26.518C66.9015 26.3908 68.0498 26.1108 69.0327 25.678C70.0144 25.2333 70.7302 24.6576 71.1802 23.951L74.4144 24.1079C73.9448 25.359 72.9624 26.4187 71.4671 27.2868C69.9707 28.1431 68.0997 28.6799 65.8542 28.8974ZM85.9115 21.5297C86.5835 21.6213 87.1297 21.8457 87.5501 22.2029C87.9704 22.56 88.2078 23.0192 88.2622 23.5806C88.3397 24.3809 88.0677 25.0582 87.4463 25.6127C86.8237 26.1553 85.8674 26.489 84.5774 26.6139L76.6047 27.3861L75.6886 17.9263L83.3209 17.1872C84.575 17.0657 85.5465 17.2007 86.2355 17.5921C86.9352 17.9704 87.3227 18.5477 87.3979 19.3241C87.4985 20.3633 87.0031 21.0984 85.9115 21.5297ZM78.5258 19.5866L78.7063 21.4498L83.4899 20.9866C83.9557 20.9415 84.288 20.8249 84.4868 20.6368C84.6964 20.4357 84.7879 20.1978 84.7613 19.9231C84.7347 19.6483 84.5998 19.4384 84.3567 19.2931C84.1244 19.1348 83.7753 19.0782 83.3095 19.1233L78.5258 19.5866ZM84.1589 24.7195C84.6486 24.672 85.0096 24.5406 85.2419 24.3252C85.4862 24.1087 85.5933 23.8451 85.5632 23.5346C85.5343 23.236 85.3857 23.0092 85.1175 22.8544C84.8601 22.6864 84.4747 22.6273 83.9611 22.677L78.8729 23.1698L79.0707 25.2122L84.1589 24.7195ZM103.877 19.8802C103.905 20.1668 103.903 20.4624 103.873 20.7668L92.1375 21.9033C92.4122 22.6241 92.964 23.1554 93.7928 23.4971C94.6336 23.8377 95.7228 23.9431 97.0605 23.8136C98.1236 23.7106 98.9492 23.5222 99.5376 23.2482C100.125 22.9623 100.564 22.5821 100.856 22.1078L103.569 22.2972C103.112 23.3059 102.37 24.1132 101.344 24.7189C100.316 25.3127 98.9305 25.6941 97.1867 25.863C95.6339 26.0134 94.2873 25.9268 93.1468 25.6032C92.0063 25.2796 91.1178 24.7568 90.4812 24.0348C89.8447 23.3128 89.4755 22.4263 89.3737 21.3752C89.2731 20.3361 89.4599 19.4017 89.9341 18.5721C90.4203 17.7414 91.186 17.0584 92.2313 16.5232C93.2885 15.9867 94.6054 15.6422 96.182 15.4895C97.7706 15.3357 99.1238 15.4277 100.242 15.7655C101.358 16.0914 102.216 16.6111 102.816 17.3246C103.427 18.037 103.781 18.8888 103.877 19.8802ZM96.3712 17.4424C95.0932 17.5661 94.0904 17.8561 93.363 18.3124C92.6345 18.7567 92.186 19.3547 92.0177 20.1064L101.101 19.2267C100.82 18.5667 100.279 18.0767 99.4759 17.7566C98.6722 17.4245 97.6372 17.3198 96.3712 17.4424ZM112.54 23.9059L109.835 24.1679L109.139 16.9835L104.23 17.4589L104.009 15.1836L116.533 13.9707L116.753 16.2461L111.844 16.7215L112.54 23.9059ZM123.586 12.8356C124.72 12.7257 125.725 12.8333 126.601 13.1584C127.475 13.4716 128.168 13.9651 128.679 14.639C129.191 15.3128 129.49 16.1036 129.578 17.0114L130.081 22.2071L128.111 22.3979L127.482 20.7589C127.012 21.5157 126.372 22.1203 125.559 22.5727C124.758 23.0119 123.832 23.2825 122.781 23.3843C121.873 23.4722 121.053 23.4129 120.322 23.2065C119.592 23.0119 119.006 22.6889 118.565 22.2374C118.123 21.7858 117.871 21.2376 117.809 20.5926C117.714 19.6132 118.039 18.804 118.785 18.1651C119.542 17.5132 120.685 17.1132 122.213 16.9651L126.764 16.5244C126.599 15.9376 126.235 15.4845 125.674 15.1651C125.125 14.8446 124.438 14.7242 123.614 14.8041C122.132 14.9475 121.112 15.4321 120.553 16.2578L118.005 16.0886C118.399 15.1705 119.069 14.4364 120.016 13.8865C120.975 13.3235 122.164 12.9732 123.586 12.8356ZM123.034 21.3343C124.253 21.2163 125.215 20.888 125.923 20.3493C126.641 19.7975 126.991 19.1126 126.972 18.2946L122.296 18.7475C121.615 18.8134 121.129 18.9629 120.838 19.1961C120.546 19.4172 120.42 19.7309 120.459 20.137C120.505 20.6147 120.749 20.9528 121.19 21.1512C121.631 21.3496 122.246 21.4106 123.034 21.3343ZM22.6906 49.1686C23.5834 49.2991 24.3001 49.6034 24.8407 50.0816C25.3932 50.5585 25.7048 51.1613 25.7753 51.8899C25.8413 52.5707 25.7086 53.1924 25.3773 53.7549C25.0459 54.3175 24.5305 54.7834 23.8308 55.1525C23.1311 55.5217 22.2677 55.756 21.2405 55.8555L11.7987 56.7699L10.5754 44.139L19.5514 43.2697C21.1161 43.1182 22.3519 43.3059 23.259 43.8329C24.166 44.3599 24.6692 45.1371 24.7687 46.1642C24.8358 46.857 24.6829 47.4565 24.31 47.9628C23.937 48.4692 23.3973 48.8711 22.6906 49.1686ZM13.6554 46.0651L13.9469 49.075L19.913 48.4972C20.6296 48.4278 21.1538 48.2384 21.4855 47.9289C21.828 47.6064 21.9773 47.2182 21.9334 46.7644C21.8906 46.3224 21.6767 45.9815 21.2918 45.7414C20.9068 45.5014 20.3501 45.4167 19.6215 45.4873L13.6554 46.0651ZM20.7941 53.6744C21.5108 53.6049 22.0344 53.4096 22.365 53.0882C22.7063 52.7537 22.8544 52.3536 22.8093 51.8878C22.7654 51.4339 22.5449 51.0875 22.1481 50.8487C21.762 50.5967 21.2106 50.5054 20.494 50.5749L14.1516 51.1891L14.4518 54.2886L20.7941 53.6744ZM35.0021 54.9929C32.5894 55.2266 30.706 54.9508 29.3521 54.1657C28.0089 53.3675 27.2574 52.1442 27.0978 50.4959C26.9393 48.8596 27.4438 47.5328 28.6112 46.5155C29.7893 45.4851 31.5848 44.8531 33.9975 44.6194C36.4102 44.3858 38.2876 44.6621 39.6296 45.4484C40.9824 46.2216 41.7381 47.4264 41.8966 49.0627C42.0562 50.711 41.5475 52.0563 40.3705 53.0986C39.2043 54.1278 37.4148 54.7593 35.0021 54.9929ZM34.7887 52.7892C36.4011 52.6331 37.5707 52.2606 38.2973 51.6718C39.0228 51.0711 39.3387 50.287 39.245 49.3195C39.1524 48.364 38.6871 47.6676 37.8491 47.2303C37.023 46.7919 35.8097 46.6502 34.2092 46.8052C32.6086 46.9602 31.4391 47.3327 30.7005 47.9226C29.9739 48.5114 29.6569 49.2836 29.7494 50.2391C29.8431 51.2066 30.3036 51.9155 31.1308 52.3659C31.9569 52.8043 33.1762 52.9454 34.7887 52.7892ZM56.5243 52.4384L52.7977 52.7993L47.5492 49.5822L46.51 49.6829L46.8675 53.3736L44.1442 53.6373L43.2281 44.1776L45.9513 43.9139L46.2949 47.4613L47.2624 47.3676L51.7024 43.3569L55.1244 43.0255L49.4181 48.1534L56.5243 52.4384ZM57.902 56.0122L56.6302 42.8797L58.6189 42.6871L59.3397 44.1544C60.6935 42.6971 62.5828 41.8511 65.0074 41.6163C66.2735 41.4936 67.4057 41.607 68.404 41.9564C69.4132 42.2927 70.2187 42.8296 70.8205 43.567C71.4213 44.2925 71.7708 45.1628 71.8691 46.1781C71.9675 47.1933 71.792 48.1205 71.3428 48.9598C70.8936 49.799 70.2067 50.4864 69.282 51.022C68.3681 51.5445 67.2781 51.8671 66.0121 51.9897C63.6591 52.2176 61.6992 51.7745 60.1325 50.6603L60.6253 55.7485L57.902 56.0122ZM65.0283 49.8606C66.4854 49.7195 67.5594 49.3563 68.2502 48.771C68.953 48.1845 69.2575 47.4075 69.1638 46.4401C69.0701 45.4726 68.6221 44.7685 67.8199 44.3278C67.0296 43.8859 65.9059 43.7355 64.4487 43.8766C62.8721 44.0293 61.6673 44.4112 60.8343 45.0224C60.0133 45.6324 59.6485 46.4092 59.7399 47.3527C59.8313 48.2963 60.3384 48.9887 61.2612 49.4298C62.1959 49.8697 63.4516 50.0133 65.0283 49.8606ZM82.9139 40.3342L85.7626 40.0583L80.8763 51.0385C80.56 51.7563 80.2353 52.3242 79.902 52.7423C79.5699 53.1723 79.1498 53.5024 78.6416 53.7324C78.1453 53.9613 77.503 54.1139 76.7147 54.1903L74.6365 54.3916L74.1942 52.0654L76.6308 51.8294C77.1205 51.782 77.4772 51.669 77.7011 51.4906C77.938 51.323 78.1557 51.0186 78.3541 50.5774L78.4119 50.4272L71.5551 41.4342L74.4575 41.1532L79.2468 47.4709L79.8022 47.4171L82.9139 40.3342ZM90.3282 49.1646L87.6049 49.4283L86.6888 39.9686L96.0052 39.0663L96.2256 41.3417L89.6324 41.9802L90.3282 49.1646ZM115.574 47.1899C113.555 47.3854 111.804 47.2897 110.32 46.903C108.846 46.5032 107.69 45.8315 106.851 44.888C106.024 43.9433 105.541 42.7543 105.403 41.321C105.265 39.8996 105.517 38.6455 106.159 37.5585C106.802 36.4715 107.808 35.5965 109.178 34.9333C110.548 34.2581 112.242 33.8228 114.26 33.6273C116.434 33.4168 118.325 33.5833 119.933 34.1268C121.541 34.6704 122.7 35.4985 123.41 36.6112L120.284 37.3841C119.698 36.802 118.893 36.3977 117.87 36.1712C116.86 35.9435 115.721 35.891 114.455 36.0136C112.317 36.2207 110.73 36.7662 109.695 37.6502C108.671 38.5329 108.226 39.6611 108.359 41.0347C108.493 42.4202 109.147 43.4479 110.321 44.1179C111.507 44.7867 113.169 45.0175 115.307 44.8105C116.621 44.6833 117.769 44.4033 118.752 43.9705C119.734 43.5258 120.45 42.9501 120.9 42.2434L124.134 42.4004C123.664 43.6515 122.682 44.7111 121.187 45.5793C119.69 46.4356 117.819 46.9724 115.574 47.1899ZM135.631 39.8221C136.303 39.9138 136.849 40.1382 137.27 40.4953C137.69 40.8525 137.927 41.3117 137.982 41.8731C138.059 42.6734 137.787 43.3507 137.166 43.9052C136.543 44.4478 135.587 44.7815 134.297 44.9064L126.324 45.6785L125.408 36.2188L133.04 35.4796C134.294 35.3582 135.266 35.4932 135.955 35.8846C136.655 36.2629 137.042 36.8402 137.117 37.6166C137.218 38.6557 136.723 39.3909 135.631 39.8221ZM128.245 37.879L128.426 39.7423L133.209 39.279C133.675 39.2339 134.007 39.1174 134.206 38.9293C134.416 38.7282 134.507 38.4902 134.481 38.2155C134.454 37.9408 134.319 37.7308 134.076 37.5856C133.844 37.4273 133.495 37.3706 133.029 37.4158L128.245 37.879ZM133.878 43.0119C134.368 42.9645 134.729 42.8331 134.961 42.6177C135.206 42.4012 135.313 42.1376 135.283 41.8271C135.254 41.5285 135.105 41.3017 134.837 41.1468C134.58 40.9789 134.194 40.9198 133.681 40.9695L128.592 41.4623L128.79 43.5047L133.878 43.0119ZM153.597 38.1727C153.624 38.4593 153.623 38.7548 153.592 39.0592L141.857 40.1957C142.132 40.9166 142.683 41.4479 143.512 41.7896C144.353 42.1301 145.442 42.2356 146.78 42.1061C147.843 42.0031 148.669 41.8146 149.257 41.5407C149.844 41.2547 150.284 40.8746 150.575 40.4003L153.288 40.5897C152.831 41.5984 152.09 42.4056 151.063 43.0114C150.036 43.6052 148.65 43.9866 146.906 44.1554C145.353 44.3058 144.007 44.2192 142.866 43.8957C141.726 43.5721 140.837 43.0493 140.201 42.3273C139.564 41.6053 139.195 40.7188 139.093 39.6677C138.993 38.6285 139.179 37.6942 139.654 36.8646C140.14 36.0339 140.905 35.3509 141.951 34.8156C143.008 34.2792 144.325 33.9347 145.901 33.782C147.49 33.6281 148.843 33.7201 149.961 34.058C151.078 34.3838 151.936 34.9035 152.535 35.6171C153.147 36.3294 153.501 37.1813 153.597 38.1727ZM146.091 35.7348C144.813 35.8586 143.81 36.1486 143.082 36.6049C142.354 37.0492 141.905 37.6472 141.737 38.3989L150.821 37.5192C150.54 36.8592 149.998 36.3692 149.195 36.049C148.392 35.717 147.357 35.6122 146.091 35.7348ZM162.259 42.1984L159.554 42.4604L158.858 35.276L153.949 35.7514L153.729 33.476L166.252 32.2632L166.473 34.5385L161.564 35.014L162.259 42.1984ZM173.305 31.128C174.44 31.0182 175.445 31.1258 176.32 31.4509C177.195 31.7641 177.887 32.2576 178.399 32.9315C178.91 33.6053 179.21 34.3961 179.298 35.3039L179.801 40.4995L177.83 40.6904L177.201 39.0514C176.732 39.8082 176.091 40.4127 175.279 40.8651C174.478 41.3044 173.551 41.575 172.5 41.6768C171.592 41.7647 170.773 41.7054 170.042 41.4989C169.311 41.3044 168.726 40.9814 168.284 40.5298C167.842 40.0783 167.59 39.53 167.528 38.8851C167.433 37.9056 167.759 37.0965 168.505 36.4576C169.261 35.8056 170.404 35.4056 171.933 35.2576L176.484 34.8168C176.318 34.2301 175.955 33.777 175.393 33.4576C174.844 33.1371 174.157 33.0167 173.333 33.0965C171.852 33.24 170.832 33.7245 170.273 34.5503L167.725 34.3811C168.118 33.4629 168.788 32.7289 169.736 32.179C170.694 31.616 171.884 31.2657 173.305 31.128ZM172.754 39.6268C173.972 39.5088 174.935 39.1804 175.642 38.6417C176.36 38.09 176.71 37.4051 176.691 36.5871L172.015 37.0399C171.334 37.1059 170.848 37.2554 170.557 37.4885C170.265 37.7097 170.139 38.0234 170.178 38.4295C170.225 38.9072 170.468 39.2453 170.91 39.4437C171.351 39.6421 171.965 39.7031 172.754 39.6268Z" fill="black"/>
</svg>
