<svg width="149" height="69" viewBox="0 0 149 69" fill="none" xmlns="http://www.w3.org/2000/svg">
<path d="M12.0557 27.709L47.9811 24.5089L22.7096 34.9938L128.087 16.751" stroke="white" stroke-width="34"/>
<path d="M146.055 33.7394L83.006 44.2244L108.278 33.7395L2.89999 51.9824" stroke="white" stroke-width="34"/>
<path d="M13.0144 50.1459L12.4644 44.4664L12.8227 44.4317C13.408 44.375 13.8777 44.2452 14.2317 44.0421C14.5978 43.8379 14.8765 43.4793 15.0679 42.9665C15.2713 42.4525 15.3692 41.7196 15.3614 40.768L15.295 33.9205L27.9797 32.692L28.9652 42.8684L31.7601 42.5977L32.3102 48.2771L29.4436 48.5548L29.1313 45.3299L15.5687 46.6433L15.881 49.8682L13.0144 50.1459ZM26.0986 43.146L25.3439 35.3525L18.1415 36.05L18.1696 40.2609C18.1713 42.0209 17.8521 43.2695 17.2122 44.0066L26.0986 43.146ZM40.3065 44.7178C37.8938 44.9514 36.0105 44.6757 34.6565 43.8905C33.3133 43.0923 32.5618 41.869 32.4022 40.2208C32.2437 38.5844 32.7482 37.2576 33.9156 36.2403C35.0937 35.21 36.8892 34.578 39.3019 34.3443C41.7146 34.1106 43.592 34.3869 44.934 35.1732C46.2869 35.9464 47.0425 37.1512 47.201 38.7876C47.3606 40.4358 46.8519 41.7811 45.6749 42.8235C44.5087 43.8527 42.7192 44.4841 40.3065 44.7178ZM40.0931 42.5141C41.7056 42.3579 42.8751 41.9854 43.6017 41.3967C44.3272 40.7959 44.6431 40.0118 44.5494 39.0443C44.4568 38.0888 43.9915 37.3924 43.1535 36.9552C42.3274 36.5168 41.1141 36.3751 39.5136 36.5301C37.9131 36.6851 36.7435 37.0575 36.0049 37.6475C35.2783 38.2363 34.9613 39.0084 35.0538 39.964C35.1475 40.9314 35.608 41.6403 36.4353 42.0907C37.2614 42.5291 38.4806 42.6702 40.0931 42.5141ZM52.0465 43.1106L49.4486 43.3622L48.5325 33.9025L52.6353 33.5051L56.9467 40.3032L57.4304 40.2563L60.4467 32.7486L64.4958 32.3565L65.4119 41.8162L62.832 42.0661L62.1414 34.9354L61.7473 34.9736L58.7292 42.4634L56.0597 42.7219L51.75 35.9418L51.3559 35.98L52.0465 43.1106ZM82.1683 31.7481C86.3726 31.3409 88.6165 32.6005 88.8999 35.5268C89.0352 36.9243 88.5857 38.0709 87.5512 38.9668C86.5156 39.8508 84.8452 40.4044 82.54 40.6276C79.9959 40.874 78.1008 40.5391 76.8547 39.623C75.649 38.7511 74.9496 37.3179 74.7564 35.3232C74.5817 33.5196 74.9344 32.0568 75.8143 30.9348C76.705 29.7997 78.1271 29.0471 80.0806 28.677L83.0985 28.0954C83.6075 27.9979 83.9782 27.8414 84.2105 27.626C84.4536 27.3975 84.5936 27.1007 84.6306 26.7354L87.0932 26.7682C87.1299 27.6447 86.9325 28.345 86.501 28.869C86.0695 29.3931 85.2916 29.7638 84.1673 29.9812L80.9863 30.5605C80.0031 30.7401 79.2196 30.9908 78.6359 31.3126C78.0641 31.6332 77.6509 32.0349 77.3963 32.5177C77.1536 32.9993 77.0425 33.5948 77.0629 34.3041C78.1374 32.8257 79.8392 31.9737 82.1683 31.7481ZM82.4173 38.6141C83.8267 38.4776 84.8348 38.181 85.4416 37.7244C86.0592 37.2547 86.3287 36.6137 86.25 35.8015C86.1725 35.0013 85.7857 34.4299 85.0894 34.0874C84.3932 33.7449 83.3463 33.6414 81.9488 33.7767C80.4558 33.9213 79.3599 34.2444 78.661 34.7461C77.9609 35.2359 77.6479 35.863 77.7219 36.6274C77.7971 37.4038 78.2252 37.9651 79.0063 38.3115C79.7873 38.6578 80.9243 38.7587 82.4173 38.6141ZM91.0023 39.3379L90.0861 29.8781L92.8094 29.6144L93.0558 32.1585L96.7107 31.8045C98.1678 31.6634 99.3212 31.8712 100.171 32.4279C101.032 32.9834 101.514 33.7808 101.614 34.8199C101.715 35.8591 101.396 36.7339 100.657 37.4444C99.9297 38.1538 98.8376 38.5791 97.3804 38.7202L91.0023 39.3379ZM106.195 37.8665L103.472 38.1303L102.556 28.6705L105.279 28.4068L106.195 37.8665ZM97.1092 36.6668C97.7303 36.6066 98.1905 36.4415 98.4899 36.1714C98.8 35.8882 98.9337 35.5256 98.8909 35.0837C98.8481 34.6417 98.6479 34.3175 98.2903 34.111C97.9436 33.8914 97.4596 33.8117 96.8385 33.8718L93.2553 34.2189L93.526 37.0138L97.1092 36.6668ZM115.372 36.9777L112.667 37.2397L111.971 30.0553L107.062 30.5308L106.842 28.2554L119.365 27.0426L119.586 29.3179L114.677 29.7933L115.372 36.9777ZM126.418 25.9074C127.553 25.7975 128.558 25.9052 129.433 26.2303C130.308 26.5435 131 27.037 131.512 27.7108C132.023 28.3847 132.323 29.1755 132.411 30.0832L132.914 35.2789L130.943 35.4698L130.314 33.8308C129.845 34.5875 129.204 35.1921 128.392 35.6445C127.591 36.0838 126.664 36.3543 125.613 36.4561C124.706 36.544 123.886 36.4848 123.155 36.2783C122.425 36.0838 121.839 35.7608 121.397 35.3092C120.955 34.8577 120.703 34.3094 120.641 33.6644C120.546 32.685 120.872 31.8759 121.618 31.237C122.374 30.585 123.517 30.185 125.046 30.0369L129.597 29.5962C129.431 29.0094 129.068 28.5563 128.506 28.237C127.957 27.9164 127.27 27.7961 126.446 27.8759C124.965 28.0193 123.945 28.5039 123.386 29.3297L120.838 29.1605C121.231 28.2423 121.901 27.5083 122.849 26.9584C123.807 26.3954 124.997 26.0451 126.418 25.9074ZM125.867 34.4061C127.085 34.2882 128.048 33.9598 128.755 33.4211C129.473 32.8693 129.823 32.1844 129.804 31.3665L125.128 31.8193C124.447 31.8853 123.961 32.0348 123.67 32.2679C123.378 32.4891 123.252 32.8027 123.291 33.2088C123.338 33.6866 123.581 34.0247 124.023 34.2231C124.464 34.4215 125.079 34.4825 125.867 34.4061Z" fill="black"/>
</svg>
