<svg width="168" height="69" viewBox="0 0 168 69" fill="none" xmlns="http://www.w3.org/2000/svg">
<path d="M25.5103 19.487L56.9357 23.2865L31.6642 33.7713L128.01 16.987" stroke="white" stroke-width="34"/>
<path d="M166.01 35.9873L91.961 43.0021L117.233 32.5173L3.51049 51.9872" stroke="white" stroke-width="34"/>
<path d="M47.3645 28.2325L43.0825 28.6472L41.8592 16.0163L44.7258 15.7387L45.6784 25.5746L46.2696 25.5174L54.1318 14.8277L58.4138 14.413L59.637 27.0439L56.7705 27.3216L55.8179 17.4856L55.2266 17.5428L47.3645 28.2325ZM62.749 30.4498L61.4772 17.3173L63.4659 17.1247L64.1867 18.592C65.5405 17.1347 67.4298 16.2887 69.8544 16.0539C71.1205 15.9312 72.2527 16.0446 73.251 16.394C74.2602 16.7303 75.0657 17.2672 75.6675 18.0046C76.2683 18.7301 76.6178 19.6004 76.7161 20.6157C76.8144 21.6309 76.639 22.5581 76.1898 23.3974C75.7406 24.2366 75.0537 24.924 74.129 25.4596C73.2151 25.9821 72.1251 26.3047 70.8591 26.4273C68.5061 26.6552 66.5462 26.2121 64.9795 25.0979L65.4723 30.1861L62.749 30.4498ZM69.8752 24.2982C71.3324 24.1571 72.4064 23.7939 73.0972 23.2086C73.7999 22.6221 74.1045 21.8451 74.0108 20.8777C73.9171 19.9102 73.4691 19.2061 72.6669 18.7654C71.8766 18.3235 70.7529 18.1731 69.2957 18.3142C67.7191 18.4669 66.5143 18.8488 65.6813 19.46C64.8603 20.07 64.4955 20.8468 64.5869 21.7903C64.6782 22.7339 65.1853 23.4263 66.1082 23.8674C67.0429 24.3073 68.2986 24.4509 69.8752 24.2982ZM82.9397 24.7872L78.9623 25.1724L78.0462 15.7126L80.6978 15.4558L81.3762 22.4611L81.9137 22.409L86.9147 14.8537L90.8921 14.4686L91.8082 23.9283L89.1566 24.1851L88.4799 17.1978L87.9603 17.2481L82.9397 24.7872ZM103.212 16.8742L102.867 13.3088L105.59 13.0451L106.506 22.5049L103.783 22.7686L103.425 19.0779L96.7248 19.7268L97.0823 23.4175L94.359 23.6813L93.4429 14.2215L96.1661 13.9578L96.5114 17.5231L103.212 16.8742ZM114.098 11.769C115.233 11.6591 116.238 11.7667 117.113 12.0919C117.988 12.4051 118.681 12.8986 119.192 13.5724C119.703 14.2463 120.003 15.0371 120.091 15.9448L120.594 21.1405L118.623 21.3314L117.994 19.6924C117.525 20.4491 116.884 21.0537 116.072 21.5061C115.271 21.9454 114.344 22.2159 113.293 22.3177C112.386 22.4056 111.566 22.3464 110.835 22.1399C110.105 21.9454 109.519 21.6223 109.077 21.1708C108.636 20.7193 108.384 20.171 108.321 19.526C108.226 18.5466 108.552 17.7375 109.298 17.0986C110.054 16.4466 111.197 16.0466 112.726 15.8985L117.277 15.4578C117.111 14.871 116.748 14.4179 116.187 14.0986C115.637 13.778 114.95 13.6577 114.126 13.7375C112.645 13.8809 111.625 14.3655 111.066 15.1912L108.518 15.0221C108.911 14.1039 109.582 13.3699 110.529 12.82C111.487 12.257 112.677 11.9067 114.098 11.769ZM113.547 20.2677C114.765 20.1498 115.728 19.8214 116.435 19.2827C117.154 18.7309 117.503 18.046 117.484 17.228L112.808 17.6809C112.127 17.7468 111.641 17.8964 111.351 18.1295C111.059 18.3507 110.932 18.6643 110.972 19.0704C111.018 19.5482 111.262 19.8863 111.703 20.0847C112.144 20.2831 112.759 20.3441 113.547 20.2677ZM14.615 54.5118L11.838 54.7807L10.6147 42.1498L15.3267 41.6935L21.6842 51.1326L22.2933 51.0736L26.8109 40.5813L31.4512 40.1319L32.6745 52.7628L29.8975 53.0317L28.9328 43.0703L28.4132 43.1206L23.806 53.6216L20.599 53.9322L14.1698 44.5L13.6503 44.5504L14.615 54.5118ZM44.409 42.0779L47.2577 41.802L42.3713 52.7821C42.0551 53.5 41.7303 54.0679 41.397 54.486C41.065 54.916 40.6448 55.246 40.1366 55.4761C39.6404 55.705 38.9981 55.8576 38.2098 55.934L36.1315 56.1352L35.6892 53.809L38.1258 53.5731C38.6155 53.5256 38.9723 53.4127 39.1961 53.2343C39.4331 53.0667 39.6508 52.7623 39.8492 52.3211L39.9069 52.1708L33.0501 43.1779L35.9526 42.8968L40.7419 49.2146L41.2973 49.1608L44.409 42.0779ZM49.4557 54.8448L48.1838 41.7123L50.1725 41.5197L50.8933 42.987C52.2472 41.5297 54.1364 40.6837 56.5611 40.4489C57.8271 40.3263 58.9594 40.4397 59.9577 40.789C60.9668 41.1253 61.7723 41.6622 62.3742 42.3996C62.9749 43.1251 63.3244 43.9954 63.4228 45.0107C63.5211 46.0259 63.3456 46.9532 62.8965 47.7924C62.4473 48.6316 61.7603 49.319 60.8356 49.8546C59.9218 50.3772 58.8318 50.6997 57.5657 50.8223C55.2127 51.0502 53.2529 50.6071 51.6862 49.4929L52.1789 54.5811L49.4557 54.8448ZM56.5819 48.6933C58.0391 48.5521 59.1131 48.1889 59.8039 47.6036C60.5066 47.0171 60.8111 46.2402 60.7174 45.2727C60.6237 44.3052 60.1758 43.6011 59.3735 43.1604C58.5833 42.7185 57.4595 42.5681 56.0024 42.7093C54.4257 42.8619 53.2209 43.2439 52.388 43.855C51.5669 44.465 51.2021 45.2418 51.2935 46.1854C51.3849 47.1289 51.892 47.8213 52.8148 48.2624C53.7496 48.7023 55.0053 48.846 56.5819 48.6933ZM72.361 49.3895C69.9483 49.6231 68.0649 49.3474 66.7109 48.5623C65.3677 47.764 64.6163 46.5408 64.4567 44.8925C64.2982 43.2561 64.8026 41.9293 65.97 40.9121C67.1482 39.8817 68.9436 39.2497 71.3563 39.016C73.769 38.7824 75.6464 39.0587 76.9885 39.845C78.3413 40.6182 79.097 41.8229 79.2554 43.4593C79.4151 45.1076 78.9064 46.4529 77.7294 47.4952C76.5631 48.5244 74.7737 49.1558 72.361 49.3895ZM72.1475 47.1858C73.76 47.0296 74.9295 46.6572 75.6562 46.0684C76.3816 45.4676 76.6975 44.6835 76.6038 43.7161C76.5113 42.7605 76.046 42.0641 75.2079 41.6269C74.3818 41.1885 73.1685 41.0468 71.568 41.2018C69.9675 41.3568 68.798 41.7293 68.0594 42.3192C67.3328 42.908 67.0157 43.6801 67.1083 44.6357C67.202 45.6032 67.6624 46.3121 68.4897 46.7624C69.3158 47.2008 70.5351 47.342 72.1475 47.1858ZM84.1009 47.7823L81.5031 48.0339L80.5869 38.5742L84.6897 38.1768L89.0011 44.9749L89.4849 44.928L92.5012 37.4203L96.5502 37.0282L97.4664 46.4879L94.8865 46.7378L94.1959 39.6071L93.8017 39.6453L90.7837 47.1351L88.1141 47.3937L83.8045 40.6135L83.4103 40.6517L84.1009 47.7823ZM114.512 47.6764L111.806 47.9384L111.534 45.1256L100.032 46.2395L99.1155 36.7798L101.839 36.516L102.529 43.6467L108.907 43.029L108.217 35.8983L110.922 35.6363L111.613 42.767L114.014 42.5344L114.512 47.6764ZM128.721 38.5964C128.749 38.883 128.747 39.1785 128.717 39.4829L116.982 40.6194C117.256 41.3403 117.808 41.8716 118.637 42.2133C119.478 42.5538 120.567 42.6593 121.905 42.5298C122.968 42.4268 123.793 42.2384 124.382 41.9644C124.969 41.6784 125.408 41.2983 125.7 40.824L128.413 41.0134C127.956 42.0221 127.214 42.8293 126.188 43.4351C125.16 44.0289 123.775 44.4103 122.031 44.5792C120.478 44.7295 119.131 44.6429 117.991 44.3194C116.85 43.9958 115.962 43.473 115.325 42.751C114.689 42.029 114.32 41.1425 114.218 40.0914C114.117 39.0523 114.304 38.1179 114.778 37.2883C115.264 36.4576 116.03 35.7746 117.075 35.2393C118.133 34.7029 119.45 34.3584 121.026 34.2057C122.615 34.0518 123.968 34.1438 125.086 34.4817C126.202 34.8075 127.06 35.3272 127.66 36.0408C128.271 36.7531 128.625 37.605 128.721 38.5964ZM121.215 36.1586C119.937 36.2823 118.935 36.5723 118.207 37.0286C117.479 37.4729 117.03 38.0709 116.862 38.8226L125.945 37.9429C125.664 37.2829 125.123 36.7929 124.32 36.4727C123.516 36.1407 122.481 36.0359 121.215 36.1586ZM140.237 37.3907C140.909 37.4824 141.455 37.7068 141.875 38.0639C142.296 38.421 142.533 38.8803 142.587 39.4417C142.665 40.2419 142.393 40.9193 141.772 41.4738C141.149 42.0163 140.193 42.3501 138.903 42.475L130.93 43.2471L130.014 33.7874L137.646 33.0482C138.9 32.9268 139.872 33.0617 140.561 33.4531C141.261 33.8315 141.648 34.4088 141.723 35.1852C141.824 36.2243 141.328 36.9595 140.237 37.3907ZM132.851 35.4476L133.032 37.3109L137.815 36.8476C138.281 36.8025 138.613 36.6859 138.812 36.4979C139.022 36.2967 139.113 36.0588 139.087 35.7841C139.06 35.5094 138.925 35.2994 138.682 35.1542C138.45 34.9958 138.101 34.9392 137.635 34.9843L132.851 35.4476ZM138.484 40.5805C138.974 40.5331 139.335 40.4017 139.567 40.1863C139.811 39.9697 139.919 39.7062 139.888 39.3956C139.86 39.097 139.711 38.8703 139.443 38.7154C139.185 38.5474 138.8 38.4883 138.286 38.5381L133.198 39.0308L133.396 41.0733L138.484 40.5805ZM149.777 31.4213C150.912 31.3114 151.917 31.419 152.792 31.7441C153.666 32.0573 154.359 32.5508 154.871 33.2247C155.382 33.8985 155.682 34.6893 155.769 35.5971L156.273 40.7928L154.302 40.9836L153.673 39.3446C153.204 40.1014 152.563 40.706 151.751 41.1584C150.949 41.5977 150.023 41.8682 148.972 41.97C148.064 42.0579 147.245 41.9986 146.513 41.7922C145.783 41.5976 145.197 41.2746 144.756 40.8231C144.314 40.3715 144.062 39.8233 144 39.1783C143.905 38.1989 144.23 37.3897 144.976 36.7509C145.733 36.0989 146.876 35.6989 148.405 35.5508L152.955 35.1101C152.79 34.5233 152.427 34.0702 151.865 33.7508C151.316 33.4303 150.629 33.3099 149.805 33.3898C148.324 33.5332 147.304 34.0178 146.745 34.8435L144.197 34.6744C144.59 33.7562 145.26 33.0221 146.208 32.4722C147.166 31.9093 148.356 31.5589 149.777 31.4213ZM149.226 39.92C150.444 39.802 151.407 39.4737 152.114 38.935C152.832 38.3832 153.182 37.6983 153.163 36.8803L148.487 37.3332C147.806 37.3991 147.32 37.5486 147.029 37.7818C146.737 38.0029 146.611 38.3166 146.65 38.7227C146.697 39.2005 146.94 39.5385 147.381 39.7369C147.823 39.9353 148.437 39.9964 149.226 39.92Z" fill="black"/>
</svg>
