<svg width="162" height="49" viewBox="0 0 162 49" fill="none" xmlns="http://www.w3.org/2000/svg">
<path d="M158.129 16.6226L88.0795 31.6373L113.351 21.1525L1.12892 28.6225" stroke="white" stroke-width="34"/>
<path d="M16.5203 34.938L13.7433 35.2069L12.52 22.576L17.232 22.1197L23.5895 31.5588L24.1986 31.4998L28.7162 21.0075L33.3565 20.5581L34.5798 33.189L31.8028 33.4579L30.838 23.4965L30.3185 23.5469L25.7113 34.0479L22.5043 34.3585L16.0751 24.9263L15.5555 24.9766L16.5203 34.938ZM44.0327 32.7437C41.62 32.9774 39.7366 32.7016 38.3826 31.9165C37.0394 31.1182 36.288 29.895 36.1284 28.2467C35.9699 26.6103 36.4744 25.2835 37.6418 24.2663C38.8199 23.2359 40.6154 22.6039 43.0281 22.3702C45.4408 22.1366 47.3182 22.4129 48.6602 23.1992C50.013 23.9724 50.7687 25.1771 50.9272 26.8135C51.0868 28.4618 50.5781 29.8071 49.4011 30.8494C48.2349 31.8786 46.4454 32.51 44.0327 32.7437ZM43.8193 30.54C45.4317 30.3838 46.6013 30.0114 47.3279 29.4226C48.0534 28.8219 48.3693 28.0378 48.2756 27.0703C48.183 26.1148 47.7177 25.4184 46.8797 24.9811C46.0536 24.5427 44.8403 24.401 43.2398 24.556C41.6392 24.711 40.4697 25.0835 39.7311 25.6734C39.0045 26.2622 38.6875 27.0344 38.78 27.9899C38.8737 28.9574 39.3342 29.6663 40.1614 30.1166C40.9875 30.555 42.2068 30.6962 43.8193 30.54ZM53.5305 35.0609L52.2587 21.9284L54.2474 21.7358L54.9682 23.2031C56.322 21.7459 58.2112 20.8998 60.6359 20.665C61.902 20.5424 63.0342 20.6558 64.0325 21.0052C65.0416 21.3414 65.8471 21.8783 66.449 22.6157C67.0497 23.3412 67.3993 24.2115 67.4976 25.2268C67.5959 26.242 67.4205 27.1693 66.9713 28.0085C66.5221 28.8477 65.8351 29.5351 64.9105 30.0707C63.9966 30.5933 62.9066 30.9158 61.6405 31.0385C59.2875 31.2663 57.3277 30.8232 55.761 29.709L56.2538 34.7972L53.5305 35.0609ZM60.6567 28.9094C62.1139 28.7682 63.1879 28.405 63.8787 27.8197C64.5814 27.2332 64.8859 26.4563 64.7922 25.4888C64.6985 24.5213 64.2506 23.8172 63.4484 23.3765C62.6581 22.9346 61.5344 22.7842 60.0772 22.9254C58.5006 23.0781 57.2958 23.46 56.4628 24.0711C55.6418 24.6811 55.2769 25.4579 55.3683 26.4015C55.4597 27.3451 55.9668 28.0374 56.8896 28.4785C57.8244 28.9184 59.0801 29.0621 60.6567 28.9094ZM76.4358 29.6056C74.0231 29.8392 72.1397 29.5635 70.7857 28.7784C69.4425 27.9801 68.6911 26.7569 68.5315 25.1086C68.373 23.4722 68.8775 22.1454 70.0448 21.1282C71.223 20.0978 73.0184 19.4658 75.4312 19.2321C77.8439 18.9985 79.7212 19.2748 81.0633 20.0611C82.4161 20.8343 83.1718 22.039 83.3302 23.6754C83.4899 25.3237 82.9812 26.669 81.8042 27.7113C80.638 28.7405 78.8485 29.3719 76.4358 29.6056ZM76.2224 27.4019C77.8348 27.2457 79.0044 26.8733 79.731 26.2845C80.4565 25.6838 80.7723 24.8996 80.6787 23.9322C80.5861 22.9766 80.1208 22.2803 79.2828 21.843C78.4567 21.4046 77.2433 21.2629 75.6428 21.4179C74.0423 21.5729 72.8728 21.9454 72.1342 22.5353C71.4076 23.1241 71.0905 23.8963 71.1831 24.8518C71.2768 25.8193 71.7373 26.5282 72.5645 26.9785C73.3906 27.4169 74.6099 27.5581 76.2224 27.4019ZM93.2135 22.6459C93.9679 22.7175 94.5809 22.9475 95.0525 23.3358C95.5349 23.7111 95.8028 24.1734 95.856 24.7228C95.9474 25.6664 95.5586 26.4455 94.6898 27.0601C93.8199 27.6628 92.4831 28.0515 90.6796 28.2261C89.0791 28.3811 87.7355 28.2641 86.6489 27.875C85.5743 27.4848 84.7835 26.8501 84.2763 25.9709L86.7788 25.2945C87.4366 26.1109 88.6493 26.4335 90.417 26.2623C91.3845 26.1686 92.1092 25.9959 92.5912 25.7443C93.0721 25.4807 93.294 25.1578 93.257 24.7756C93.2234 24.4292 92.9758 24.1759 92.5142 24.0157C92.0526 23.8554 91.4157 23.8146 90.6035 23.8933L88.2386 24.1223L88.0477 22.1515L90.4127 21.9225C91.9654 21.7721 92.7082 21.3506 92.6411 20.6578C92.6088 20.3234 92.3558 20.0766 91.8823 19.9175C91.4087 19.7584 90.7599 19.7188 89.9357 19.7986C88.4069 19.9467 87.3396 20.4418 86.734 21.2841L84.1662 21.0988C84.5487 20.1937 85.231 19.4585 86.2131 18.8932C87.1952 18.3279 88.3671 17.9793 89.7287 17.8475C91.365 17.689 92.6625 17.8286 93.6212 18.2662C94.5918 18.7027 95.1199 19.3628 95.2055 20.2467C95.2587 20.7961 95.1121 21.2745 94.7657 21.6818C94.4194 22.0891 93.902 22.4104 93.2135 22.6459ZM104.762 26.8623C102.35 27.0959 100.466 26.8202 99.1122 26.0351C97.769 25.2368 97.0176 24.0136 96.8579 22.3653C96.6995 20.7289 97.2039 19.4021 98.3713 18.3849C99.5495 17.3545 101.345 16.7225 103.758 16.4888C106.17 16.2552 108.048 16.5315 109.39 17.3178C110.743 18.091 111.498 19.2957 111.657 20.9321C111.816 22.5804 111.308 23.9257 110.131 24.968C108.964 25.9972 107.175 26.6286 104.762 26.8623ZM104.549 24.6586C106.161 24.5024 107.331 24.13 108.057 23.5412C108.783 22.9404 109.099 22.1563 109.005 21.1889C108.913 20.2333 108.447 19.5369 107.609 19.0997C106.783 18.6613 105.57 18.5196 103.969 18.6746C102.369 18.8296 101.199 19.2021 100.461 19.792C99.734 20.3808 99.417 21.1529 99.5095 22.1085C99.6032 23.076 100.064 23.7849 100.891 24.2352C101.717 24.6736 102.936 24.8148 104.549 24.6586ZM123.211 19.6503C123.883 19.742 124.429 19.9664 124.85 20.3235C125.27 20.6806 125.507 21.1399 125.562 21.7013C125.639 22.5015 125.367 23.1789 124.746 23.7334C124.123 24.2759 123.167 24.6097 121.877 24.7346L113.904 25.5067L112.988 16.047L120.62 15.3078C121.875 15.1864 122.846 15.3213 123.535 15.7127C124.235 16.0911 124.622 16.6684 124.697 17.4448C124.798 18.4839 124.303 19.2191 123.211 19.6503ZM115.825 17.7072L116.006 19.5705L120.79 19.1072C121.255 19.0621 121.588 18.9455 121.786 18.7575C121.996 18.5563 122.088 18.3184 122.061 18.0437C122.034 17.769 121.899 17.559 121.656 17.4138C121.424 17.2554 121.075 17.1988 120.609 17.2439L115.825 17.7072ZM121.458 22.8401C121.948 22.7927 122.309 22.6613 122.542 22.4459C122.786 22.2293 122.893 21.9658 122.863 21.6552C122.834 21.3566 122.685 21.1299 122.417 20.975C122.16 20.807 121.774 20.7479 121.261 20.7977L116.172 21.2904L116.37 23.3329L121.458 22.8401ZM127.884 24.1529L126.968 14.6931L129.691 14.4294L129.937 16.9735L133.592 16.6195C135.049 16.4784 136.203 16.6862 137.052 17.2429C137.914 17.7984 138.395 18.5957 138.496 19.6349C138.596 20.674 138.277 21.5489 137.538 22.2594C136.811 22.9688 135.719 23.394 134.262 23.5352L127.884 24.1529ZM143.077 22.6815L140.354 22.9452L139.437 13.4855L142.161 13.2217L143.077 22.6815ZM133.991 21.4817C134.612 21.4216 135.072 21.2565 135.371 20.9863C135.682 20.7031 135.815 20.3405 135.773 19.8986C135.73 19.4567 135.53 19.1325 135.172 18.926C134.825 18.7064 134.341 18.6267 133.72 18.6868L130.137 19.0338L130.408 21.8288L133.991 21.4817Z" fill="black"/>
</svg>
