<svg width="157" height="49" viewBox="0 0 157 49" fill="none" xmlns="http://www.w3.org/2000/svg">
<path d="M154.778 22.3188L87.7286 27.3317L113 16.8468L2.27782 31.8184" stroke="white" stroke-width="34"/>
<path d="M20.6399 35.1993L16.77 35.5741L10.6556 23.4169L13.5939 23.1324L18.3089 32.604L18.8284 32.5536L21.5308 22.3637L25.3111 21.9976L29.8469 31.4865L30.3844 31.4345L33.2838 21.2255L36.1683 20.9461L32.3929 34.0611L28.4872 34.4394L23.9514 24.9504L23.3422 25.0094L20.6399 35.1993ZM44.8801 33.322C42.4674 33.5556 40.5841 33.2799 39.2301 32.4948C37.8869 31.6965 37.1354 30.4732 36.9758 28.825C36.8173 27.1886 37.3218 25.8618 38.4892 24.8445C39.6673 23.8142 41.4628 23.1822 43.8755 22.9485C46.2882 22.7148 48.1656 22.9912 49.5076 23.7774C50.8605 24.5506 51.6161 25.7554 51.7746 27.3918C51.9342 29.04 51.4255 30.3853 50.2485 31.4277C49.0823 32.4569 47.2928 33.0883 44.8801 33.322ZM44.6667 31.1183C46.2792 30.9621 47.4487 30.5896 48.1753 30.0009C48.9008 29.4001 49.2167 28.616 49.123 27.6486C49.0304 26.693 48.5652 25.9966 47.7271 25.5594C46.901 25.121 45.6877 24.9793 44.0872 25.1343C42.4867 25.2893 41.3171 25.6617 40.5785 26.2517C39.8519 26.8405 39.5349 27.6126 39.6274 28.5682C39.7211 29.5356 40.1816 30.2445 41.0089 30.6949C41.835 31.1333 43.0542 31.2744 44.6667 31.1183ZM60.7142 31.7885C58.3015 32.0222 56.4182 31.7464 55.0642 30.9613C53.721 30.163 52.9696 28.9398 52.8099 27.2915C52.6515 25.6551 53.1559 24.3283 54.3233 23.3111C55.5015 22.2807 57.2969 21.6487 59.7096 21.415C62.1223 21.1814 63.9997 21.4577 65.3417 22.244C66.6946 23.0172 67.4502 24.2219 67.6087 25.8583C67.7683 27.5066 67.2596 28.8519 66.0826 29.8942C64.9164 30.9234 63.127 31.5548 60.7142 31.7885ZM60.5008 29.5848C62.1133 29.4286 63.2828 29.0562 64.0094 28.4674C64.7349 27.8667 65.0508 27.0826 64.9571 26.1151C64.8646 25.1596 64.3993 24.4632 63.5612 24.0259C62.7351 23.5875 61.5218 23.4458 59.9213 23.6008C58.3208 23.7558 57.1512 24.1283 56.4127 24.7182C55.686 25.307 55.369 26.0792 55.4615 27.0347C55.5552 28.0022 56.0157 28.7111 56.843 29.1614C57.6691 29.5998 58.8884 29.741 60.5008 29.5848ZM75.5092 30.3557C74.2431 30.4783 73.1055 30.3714 72.0964 30.0351C71.0981 29.6857 70.2986 29.1483 69.6978 28.4228C69.096 27.6854 68.7453 26.8031 68.6458 25.7759C68.5475 24.7607 68.7235 23.8394 69.1738 23.0122C69.623 22.173 70.3046 21.4921 71.2185 20.9696C72.1431 20.4339 73.2385 20.1048 74.5046 19.9822C76.8695 19.7532 78.8288 20.1903 80.3824 21.2937L79.9382 16.7072L82.6615 16.4434L83.8847 29.0743L81.9139 29.2652L81.1752 27.7996C79.8345 29.2677 77.9458 30.1197 75.5092 30.3557ZM76.0662 28.0774C77.6428 27.9247 78.8416 27.5433 79.6627 26.9333C80.4956 26.3222 80.8664 25.5448 80.775 24.6013C80.6837 23.6577 80.1706 22.9659 79.2358 22.526C78.313 22.0849 77.0633 21.9407 75.4867 22.0934C74.0295 22.2345 72.9555 22.5977 72.2647 23.183C71.5739 23.7683 71.2754 24.5447 71.3691 25.5122C71.4628 26.4797 71.9047 27.1843 72.695 27.6262C73.4853 28.0681 74.609 28.2185 76.0662 28.0774ZM86.5128 28.8198L85.5967 19.3601L87.5495 19.1709L88.2466 20.7672C88.6226 20.0436 89.1277 19.4702 89.7619 19.0471C90.408 18.6229 91.179 18.3673 92.0748 18.2806C92.9825 18.1927 93.8019 18.3123 94.5328 18.6393C95.2757 18.9652 95.8777 19.4555 96.339 20.1101C96.794 19.3306 97.3618 18.721 98.0426 18.2813C98.7342 17.8285 99.5876 17.553 100.603 17.4547C101.582 17.3598 102.457 17.4921 103.227 17.8515C104.01 18.2098 104.642 18.7634 105.124 19.5124C105.606 20.2495 105.896 21.1316 105.995 22.1588L106.453 26.8886L103.748 27.1506L103.306 22.582C103.217 21.6623 102.882 20.9472 102.302 20.4368C101.722 19.9263 100.99 19.7138 100.107 19.7994C99.1988 19.8873 98.498 20.2446 98.0041 20.8711C97.509 21.4857 97.3054 22.2468 97.3934 23.1546L97.8358 27.7232L95.1126 27.987L94.6701 23.4183C94.581 22.4986 94.2465 21.7836 93.6666 21.2731C93.0987 20.7614 92.3787 20.5478 91.5068 20.6323C90.5991 20.7202 89.8982 21.0774 89.4043 21.7039C88.9093 22.3185 88.7063 23.0857 88.7953 24.0054L89.236 28.5561L86.5128 28.8198ZM113.968 16.1603C115.103 16.0504 116.108 16.1581 116.983 16.4832C117.857 16.7964 118.55 17.2899 119.061 17.9637C119.573 18.6376 119.872 19.4284 119.96 20.3361L120.464 25.5318L118.493 25.7227L117.864 24.0837C117.395 24.8404 116.754 25.445 115.942 25.8974C115.14 26.3367 114.214 26.6072 113.163 26.709C112.255 26.7969 111.436 26.7377 110.704 26.5312C109.974 26.3367 109.388 26.0137 108.947 25.5621C108.505 25.1106 108.253 24.5623 108.191 23.9173C108.096 22.9379 108.421 22.1288 109.167 21.4899C109.924 20.8379 111.067 20.4379 112.596 20.2898L117.146 19.8491C116.981 19.2623 116.618 18.8092 116.056 18.4899C115.507 18.1693 114.82 18.049 113.996 18.1288C112.515 18.2722 111.495 18.7568 110.936 19.5826L108.388 19.4134C108.781 18.4952 109.451 17.7612 110.399 17.2113C111.357 16.6483 112.547 16.298 113.968 16.1603ZM113.417 24.659C114.635 24.5411 115.598 24.2127 116.305 23.674C117.023 23.1222 117.373 22.4373 117.354 21.6194L112.678 22.0722C111.997 22.1382 111.511 22.2877 111.22 22.5208C110.928 22.742 110.802 23.0556 110.841 23.4617C110.887 23.9395 111.131 24.2776 111.572 24.476C112.014 24.6744 112.628 24.7354 113.417 24.659ZM122.923 25.2937L122.006 15.8339L123.959 15.6448L124.626 17.1174C124.91 16.4388 125.314 15.9356 125.836 15.6077C126.359 15.2798 127.063 15.073 127.946 14.9874L129.29 14.8573L129.782 17.3233L127.095 17.5836C126.39 17.6518 125.871 17.895 125.538 18.3131C125.203 18.7192 125.07 19.2686 125.137 19.9614L125.628 25.0317L122.923 25.2937ZM144.28 23.2253L140.554 23.5862L135.305 20.3691L134.266 20.4698L134.623 24.1605L131.9 24.4242L130.677 11.7933L133.4 11.5296L134.051 18.2481L135.018 18.1545L139.458 14.1438L142.88 13.8124L137.174 18.9403L144.28 23.2253Z" fill="black"/>
</svg>
