<svg width="153" height="55" viewBox="0 0 153 55" fill="none" xmlns="http://www.w3.org/2000/svg">
<path d="M0.987305 30.2681L47.4127 27.5674L22.1412 38.0522L149.487 16.7676" stroke="white" stroke-width="34"/>
<path d="M38.5466 33.4453L23.927 34.8612L23.6112 31.6004L33.5143 24.0587L33.4762 23.6645L23.1923 24.6605L22.9546 22.206L37.0725 20.8387L37.3883 24.0994L27.4852 31.6412L27.5234 32.0353L38.3089 30.9908L38.5466 33.4453ZM53.6527 27.1177C53.6804 27.4043 53.6789 27.6999 53.6481 28.0043L41.913 29.1408C42.1878 29.8616 42.7396 30.3929 43.5684 30.7346C44.4091 31.0752 45.4983 31.1806 46.8361 31.0511C47.8991 30.9481 48.7248 30.7597 49.3131 30.4857C49.9003 30.1998 50.3397 29.8196 50.6313 29.3453L53.3442 29.5347C52.8873 30.5434 52.1457 31.3507 51.1193 31.9564C50.0917 32.5502 48.7061 32.9316 46.9622 33.1005C45.4095 33.2509 44.0629 33.1643 42.9224 32.8407C41.7819 32.5171 40.8933 31.9943 40.2568 31.2723C39.6202 30.5503 39.251 29.6638 39.1492 28.6127C39.0486 27.5736 39.2354 26.6392 39.7096 25.8096C40.1958 24.9789 40.9616 24.2959 42.0068 23.7607C43.064 23.2242 44.381 22.8797 45.9576 22.727C47.5462 22.5732 48.8993 22.6652 50.0171 23.003C51.1337 23.3289 51.9918 23.8486 52.5914 24.5621C53.2029 25.2745 53.5567 26.1263 53.6527 27.1177ZM46.1467 24.6799C44.8687 24.8036 43.866 25.0937 43.1386 25.5499C42.41 25.9942 41.9616 26.5922 41.7932 27.3439L50.8767 26.4642C50.5958 25.8042 50.0541 25.3142 49.2515 24.9941C48.4477 24.662 47.4128 24.5573 46.1467 24.6799ZM69.1544 25.6164C69.1821 25.9031 69.1806 26.1986 69.1498 26.503L57.4147 27.6395C57.6895 28.3603 58.2412 28.8916 59.07 29.2333C59.9108 29.5739 61 29.6794 62.3378 29.5498C63.4008 29.4469 64.2265 29.2584 64.8148 28.9844C65.402 28.6985 65.8414 28.3183 66.133 27.844L68.8459 28.0334C68.389 29.0421 67.6474 29.8494 66.621 30.4551C65.5934 31.049 64.2077 31.4303 62.4639 31.5992C60.9112 31.7496 59.5646 31.663 58.4241 31.3394C57.2835 31.0158 56.395 30.4931 55.7585 29.7711C55.1219 29.0491 54.7527 28.1625 54.6509 27.1114C54.5503 26.0723 54.7371 25.1379 55.2113 24.3084C55.6975 23.4776 56.4632 22.7946 57.5085 22.2594C58.5657 21.723 59.8827 21.3784 61.4593 21.2257C63.0478 21.0719 64.401 21.1639 65.5188 21.5017C66.6354 21.8276 67.4935 22.3473 68.0931 23.0608C68.7046 23.7732 69.0583 24.6251 69.1544 25.6164ZM61.6484 23.1786C60.3704 23.3024 59.3677 23.5924 58.6403 24.0486C57.9117 24.4929 57.4633 25.0909 57.2949 25.8427L66.3784 24.963C66.0975 24.303 65.5557 23.8129 64.7531 23.4928C63.9494 23.1607 62.9145 23.056 61.6484 23.1786ZM74.3552 29.9774L71.5782 30.2463L70.3549 17.6154L75.0669 17.1591L81.4244 26.5982L82.0335 26.5392L86.5511 16.0469L91.1914 15.5975L92.4147 28.2284L89.6377 28.4973L88.6729 18.5359L88.1534 18.5863L83.5462 29.0873L80.3392 29.3979L73.91 19.9657L73.3904 20.016L74.3552 29.9774ZM100.218 17.4721C101.353 17.3622 102.358 17.4698 103.233 17.795C104.107 18.1081 104.8 18.6017 105.312 19.2755C105.823 19.9494 106.123 20.7402 106.21 21.6479L106.714 26.8436L104.743 27.0345L104.114 25.3955C103.645 26.1522 103.004 26.7568 102.192 27.2092C101.39 27.6485 100.464 27.919 99.4131 28.0208C98.5053 28.1087 97.6858 28.0495 96.9545 27.843C96.2243 27.6485 95.6385 27.3254 95.1969 26.8739C94.7553 26.4224 94.5033 25.8741 94.4408 25.2291C94.346 24.2497 94.6715 23.4406 95.4174 22.8017C96.1741 22.1497 97.3168 21.7497 98.8457 21.6016L103.396 21.1609C103.231 20.5741 102.868 20.121 102.306 19.8017C101.757 19.4811 101.07 19.3608 100.246 19.4406C98.7648 19.584 97.7448 20.0686 97.1858 20.8943L94.6376 20.7252C95.0309 19.807 95.7013 19.0729 96.6487 18.5231C97.6069 17.9601 98.7966 17.6098 100.218 17.4721ZM99.6667 25.9708C100.885 25.8528 101.848 25.5245 102.555 24.9858C103.273 24.434 103.623 23.7491 103.604 22.9311L98.9279 23.384C98.247 23.4499 97.7612 23.5995 97.4703 23.8326C97.1783 24.0538 97.0519 24.3674 97.0912 24.7735C97.1375 25.2513 97.3812 25.5894 97.8224 25.7877C98.2636 25.9861 98.8783 26.0472 99.6667 25.9708ZM109.173 26.6055L108.256 17.1457L110.209 16.9566L110.853 18.558C111.208 17.8726 111.75 17.3077 112.479 16.8634C113.206 16.4071 114.03 16.1345 114.95 16.0454C116.048 15.939 117.027 16.0794 117.884 16.4665C118.753 16.8525 119.443 17.4428 119.954 18.2372C120.476 19.0185 120.788 19.9348 120.889 20.9858L121.32 25.4291L118.597 25.6928L118.184 21.4287C118.084 20.4015 117.706 19.6123 117.05 19.061C116.394 18.5097 115.594 18.2797 114.65 18.3711C114.005 18.4335 113.427 18.6282 112.917 18.9549C112.416 19.2686 112.035 19.6913 111.773 20.223C111.512 20.7548 111.413 21.361 111.479 22.0418L111.896 26.3417L109.173 26.6055Z" fill="black"/>
</svg>
