<svg width="133" height="70" viewBox="0 0 133 70" fill="none" xmlns="http://www.w3.org/2000/svg">
<path d="M6.76855 16.748L39.694 23.047L14.4225 33.5319L110.769 16.7476" stroke="white" stroke-width="34"/>
<path d="M130.769 36.2473L74.7191 42.7625L99.9906 32.2776L3.76877 52.7472" stroke="white" stroke-width="34"/>
<path d="M28.2766 28.1715L24.7471 28.5133L30.5902 21.4371L24.0614 15.8304L27.555 15.492L32.4083 19.6696L32.9816 19.6141L37.0506 14.5724L40.4905 14.2393L35.0571 20.8779L42.1258 26.8303L38.5963 27.1721L33.2766 22.6599L32.6854 22.7171L28.2766 28.1715ZM47.2125 26.3377L43.2351 26.7228L42.3189 17.2631L44.9705 17.0063L45.649 24.0115L46.1864 23.9595L51.1874 16.4042L55.1648 16.019L56.081 25.4788L53.4294 25.7356L52.7527 18.7483L52.2331 18.7986L47.2125 26.3377ZM61.2296 24.9801L58.6318 25.2317L57.7156 15.772L61.8185 15.3747L66.1298 22.1727L66.6136 22.1259L69.6299 14.6181L73.679 14.226L74.5951 23.6858L72.0152 23.9356L71.3246 16.805L70.9304 16.8431L67.9124 24.3329L65.2429 24.5915L60.9332 17.8113L60.5391 17.8495L61.2296 24.9801ZM81.1377 23.0521L77.1603 23.4373L76.2442 13.9776L78.8958 13.7208L79.5742 20.726L80.1117 20.674L85.1127 13.1187L89.0901 12.7335L90.0062 22.1932L87.3546 22.45L86.6779 15.4627L86.1584 15.5131L81.1377 23.0521ZM102.964 11.3899L103.88 20.8496L101.157 21.1134L100.888 18.3363L97.9317 18.6226L95.1549 21.6946L91.9121 22.0087L95.0281 18.7049C94.1103 18.5647 93.3859 18.2431 92.855 17.7399C92.3359 17.2356 92.0394 16.6012 91.9654 15.8368C91.8682 14.8335 92.1843 13.9891 92.9136 13.3036C93.6418 12.6062 94.7404 12.1863 96.2095 12.044L102.964 11.3899ZM100.688 16.276L100.442 13.7319L96.4646 14.1171C95.8554 14.1761 95.3946 14.3352 95.0821 14.5946C94.7805 14.8408 94.6493 15.167 94.6886 15.5731C94.7268 15.9672 94.9181 16.2621 95.2626 16.4578C95.619 16.6524 96.1018 16.7202 96.7109 16.6612L100.688 16.276ZM24.2839 51.6658L21.4173 51.9434L20.1941 39.3125L35.2257 37.8568L36.449 50.4877L33.5824 50.7653L32.5969 40.5889L23.2984 41.4894L24.2839 51.6658ZM39.5617 53.8935L38.2899 40.7609L40.2786 40.5683L40.9994 42.0357C42.3532 40.5784 44.2424 39.7323 46.6671 39.4975C47.9332 39.3749 49.0654 39.4883 50.0637 39.8377C51.0728 40.174 51.8783 40.7108 52.4802 41.4482C53.0809 42.1737 53.4304 43.0441 53.5288 44.0593C53.6271 45.0746 53.4517 46.0018 53.0025 46.841C52.5533 47.6802 51.8663 48.3676 50.9417 48.9033C50.0278 49.4258 48.9378 49.7484 47.6717 49.871C45.3187 50.0989 43.3589 49.6557 41.7922 48.5415L42.285 53.6297L39.5617 53.8935ZM46.6879 47.7419C48.1451 47.6008 49.2191 47.2376 49.9099 46.6522C50.6126 46.0658 50.9171 45.2888 50.8234 44.3213C50.7297 43.3538 50.2818 42.6497 49.4796 42.209C48.6893 41.7671 47.5656 41.6168 46.1084 41.7579C44.5317 41.9106 43.3269 42.2925 42.494 42.9036C41.673 43.5136 41.3081 44.2904 41.3995 45.234C41.4909 46.1776 41.998 46.8699 42.9208 47.311C43.8556 47.751 45.1113 47.8946 46.6879 47.7419ZM62.467 48.4381C60.0543 48.6718 58.1709 48.396 56.8169 47.6109C55.4737 46.8127 54.7223 45.5894 54.5627 43.9411C54.4042 42.3048 54.9087 40.978 56.076 39.9607C57.2542 38.9303 59.0496 38.2983 61.4623 38.0646C63.8751 37.831 65.7524 38.1073 67.0945 38.8936C68.4473 39.6668 69.203 40.8716 69.3614 42.5079C69.5211 44.1562 69.0124 45.5015 67.8354 46.5438C66.6692 47.573 64.8797 48.2045 62.467 48.4381ZM62.2536 46.2344C63.866 46.0783 65.0356 45.7058 65.7622 45.117C66.4877 44.5163 66.8035 43.7322 66.7098 42.7647C66.6173 41.8092 66.152 41.1128 65.314 40.6755C64.4878 40.2371 63.2745 40.0954 61.674 40.2504C60.0735 40.4054 58.904 40.7779 58.1654 41.3678C57.4388 41.9566 57.1217 42.7288 57.2143 43.6843C57.308 44.6518 57.7684 45.3607 58.5957 45.811C59.4218 46.2495 60.6411 46.3906 62.2536 46.2344ZM78.319 46.9029C75.8944 47.1377 74.005 46.8626 72.651 46.0774C71.3078 45.2792 70.5564 44.0559 70.3968 42.4076C70.2383 40.7713 70.7428 39.4445 71.9101 38.4272C73.0883 37.3968 74.8838 36.7648 77.2965 36.5312C79.0642 36.36 80.5665 36.4978 81.8033 36.9447C83.0509 37.3784 83.9782 38.1145 84.5851 39.1528L81.9913 39.8199C81.1167 38.8799 79.6402 38.5105 77.5619 38.7117C75.9375 38.8691 74.756 39.2427 74.0174 39.8326C73.2789 40.4226 72.9558 41.1953 73.0484 42.1508C73.1421 43.1183 73.6026 43.8272 74.4298 44.2776C75.2679 44.7148 76.4931 44.8554 78.1056 44.6992C79.2522 44.5882 80.1717 44.3725 80.8641 44.0523C81.5553 43.7201 82.0407 43.3175 82.3204 42.8443L84.9778 43.021C84.5672 44.1337 83.8146 45.0144 82.72 45.6629C81.6373 46.3103 80.1703 46.7236 78.319 46.9029ZM93.5298 44.9596L90.8245 45.2216L90.1287 38.0372L85.2196 38.5126L84.9993 36.2373L97.5227 35.0244L97.7431 37.2998L92.834 37.7752L93.5298 44.9596ZM106.523 44.1715C104.11 44.4052 102.227 44.1294 100.873 43.3443C99.5293 42.546 98.7779 41.3228 98.6183 39.6745C98.4598 38.0381 98.9643 36.7113 100.132 35.6941C101.31 34.6637 103.105 34.0317 105.518 33.798C107.931 33.5644 109.808 33.8407 111.15 34.627C112.503 35.4002 113.259 36.6049 113.417 38.2413C113.577 39.8896 113.068 41.2349 111.891 42.2772C110.725 43.3064 108.935 43.9378 106.523 44.1715ZM106.309 41.9678C107.922 41.8117 109.091 41.4392 109.818 40.8504C110.543 40.2497 110.859 39.4656 110.765 38.4981C110.673 37.5426 110.208 36.8462 109.37 36.4089C108.543 35.9705 107.33 35.8288 105.73 35.9838C104.129 36.1388 102.96 36.5113 102.221 37.1012C101.494 37.69 101.177 38.4622 101.27 39.4177C101.364 40.3852 101.824 41.0941 102.651 41.5444C103.477 41.9828 104.697 42.124 106.309 41.9678Z" fill="black"/>
</svg>
