<svg width="163" height="72" viewBox="0 0 163 72" fill="none" xmlns="http://www.w3.org/2000/svg">
<path d="M17.394 23.6479L53.8195 27.9474L28.548 38.4323L133.894 16.6479" stroke="white" stroke-width="34"/>
<path d="M159.894 37.1779L88.8449 47.6629L114.116 37.178L3.39453 55.1475" stroke="white" stroke-width="34"/>
<path d="M42.1495 33.5666C40.1309 33.7621 38.3796 33.6665 36.8954 33.2798C35.422 32.8799 34.2658 32.2083 33.427 31.2647C32.6001 30.32 32.1172 29.131 31.9784 27.6978C31.8407 26.2764 32.093 25.0222 32.7352 23.9353C33.3775 22.8483 34.3838 21.9732 35.7542 21.31C37.1235 20.6349 38.8175 20.1996 40.836 20.0041C43.0098 19.7936 44.9007 19.9601 46.5086 20.5036C48.1165 21.0471 49.2757 21.8753 49.9863 22.9879L46.8602 23.7609C46.2734 23.1787 45.4686 22.7744 44.446 22.5479C43.4354 22.3203 42.297 22.2678 41.031 22.3904C38.893 22.5975 37.3062 23.143 36.2705 24.0269C35.2469 24.9097 34.8015 26.0379 34.9346 27.4115C35.0688 28.797 35.7229 29.8247 36.8969 30.4947C38.0829 31.1634 39.7449 31.3943 41.8829 31.1873C43.1968 31.06 44.3451 30.78 45.328 30.3473C46.3097 29.9026 47.0255 29.3269 47.4755 28.6202L50.7097 28.7772C50.2401 30.0283 49.2577 31.0879 47.7624 31.9561C46.266 32.8123 44.395 33.3492 42.1495 33.5666ZM66.0179 25.9202C66.0457 26.2069 66.0442 26.5024 66.0134 26.8068L54.2783 27.9433C54.553 28.6642 55.1048 29.1955 55.9336 29.5372C56.7744 29.8777 57.8636 29.9832 59.2013 29.8536C60.2644 29.7507 61.09 29.5622 61.6784 29.2882C62.2655 29.0023 62.7049 28.6222 62.9966 28.1478L65.7095 28.3372C65.2526 29.346 64.5109 30.1532 63.4846 30.759C62.457 31.3528 61.0713 31.7341 59.3275 31.903C57.7747 32.0534 56.4281 31.9668 55.2876 31.6432C54.1471 31.3197 53.2586 30.7969 52.622 30.0749C51.9855 29.3529 51.6163 28.4663 51.5145 27.4153C51.4139 26.3761 51.6007 25.4418 52.0749 24.6122C52.5611 23.7814 53.3268 23.0984 54.3721 22.5632C55.4293 22.0268 56.7462 21.6822 58.3228 21.5296C59.9114 21.3757 61.2646 21.4677 62.3824 21.8055C63.499 22.1314 64.3571 22.6511 64.9566 23.3646C65.5681 24.077 65.9219 24.9289 66.0179 25.9202ZM58.512 23.4824C57.234 23.6062 56.2312 23.8962 55.5038 24.3524C54.7753 24.7967 54.3268 25.3947 54.1585 26.1465L63.242 25.2668C62.9611 24.6068 62.4193 24.1167 61.6167 23.7966C60.813 23.4645 59.778 23.3598 58.512 23.4824ZM68.5824 34.2438L67.3106 21.1112L69.2993 20.9186L70.0201 22.386C71.3739 20.9287 73.2632 20.0826 75.6878 19.8478C76.9539 19.7252 78.0861 19.8386 79.0844 20.188C80.0935 20.5243 80.899 21.0611 81.5009 21.7986C82.1017 22.524 82.4512 23.3944 82.5495 24.4096C82.6478 25.4249 82.4724 26.3521 82.0232 27.1913C81.574 28.0305 80.8871 28.7179 79.9624 29.2536C79.0485 29.7761 77.9585 30.0987 76.6924 30.2213C74.3395 30.4492 72.3796 30.006 70.8129 28.8919L71.3057 33.98L68.5824 34.2438ZM75.7086 28.0922C77.1658 27.9511 78.2398 27.5879 78.9306 27.0026C79.6333 26.4161 79.9379 25.6391 79.8442 24.6716C79.7505 23.7042 79.3025 23.0001 78.5003 22.5593C77.71 22.1175 76.5863 21.9671 75.1291 22.1082C73.5525 22.2609 72.3477 22.6428 71.5147 23.2539C70.6937 23.8639 70.3289 24.6407 70.4203 25.5843C70.5116 26.5279 71.0187 27.2202 71.9416 27.6613C72.8763 28.1013 74.132 28.2449 75.7086 28.0922ZM87.519 28.7026L84.7957 28.9663L83.8796 19.5066L93.196 18.6043L93.4163 20.8797L86.8232 21.5182L87.519 28.7026ZM108.919 21.7655C108.947 22.0521 108.945 22.3476 108.914 22.652L97.1791 23.7885C97.4539 24.5094 98.0057 25.0407 98.8345 25.3824C99.6752 25.7229 100.764 25.8284 102.102 25.6989C103.165 25.5959 103.991 25.4074 104.579 25.1334C105.166 24.8475 105.606 24.4674 105.897 23.9931L108.61 24.1824C108.153 25.1912 107.412 25.9984 106.385 26.6042C105.358 27.198 103.972 27.5794 102.228 27.7482C100.676 27.8986 99.329 27.812 98.1885 27.4885C97.048 27.1649 96.1594 26.6421 95.5229 25.9201C94.8863 25.1981 94.5171 24.3116 94.4153 23.2605C94.3147 22.2213 94.5015 21.287 94.9757 20.4574C95.4619 19.6267 96.2277 18.9437 97.2729 18.4084C98.3301 17.872 99.6471 17.5275 101.224 17.3748C102.812 17.2209 104.165 17.3129 105.283 17.6507C106.4 17.9766 107.258 18.4963 107.857 19.2099C108.469 19.9222 108.823 20.7741 108.919 21.7655ZM101.413 19.3276C100.135 19.4514 99.1321 19.7414 98.4047 20.1977C97.6761 20.642 97.2277 21.24 97.0593 21.9917L106.143 21.112C105.862 20.452 105.32 19.9619 104.518 19.6418C103.714 19.3097 102.679 19.205 101.413 19.3276ZM115.105 26.031L111.128 26.4162L110.211 16.9565L112.863 16.6997L113.541 23.7049L114.079 23.6528L119.08 16.0976L123.057 15.7124L123.973 25.1721L121.322 25.4289L120.645 18.4416L120.126 18.4919L115.105 26.031ZM116.56 15.4736C115.413 15.5846 114.459 15.3757 113.696 14.8467C112.933 14.3058 112.466 13.5312 112.296 12.5229L114.338 12.3251C114.472 12.8306 114.707 13.2057 115.044 13.4503C115.393 13.6938 115.842 13.7889 116.392 13.7357C116.929 13.6836 117.34 13.5052 117.624 13.2004C117.92 12.8945 118.085 12.4807 118.119 11.959L120.161 11.7612C120.188 12.7834 119.878 13.6332 119.232 14.3106C118.586 14.976 117.695 15.3637 116.56 15.4736ZM12.7938 59.047L10.0168 59.316L8.7935 46.6851L13.5055 46.2287L19.8629 55.6679L20.4721 55.6089L24.9897 45.1165L29.63 44.6671L30.8533 57.2981L28.0763 57.567L27.1115 47.6056L26.592 47.6559L21.9848 58.1569L18.7778 58.4675L12.3486 49.0353L11.829 49.0856L12.7938 59.047ZM38.6566 46.5418C39.7913 46.4319 40.7963 46.5395 41.6717 46.8646C42.546 47.1778 43.2388 47.6713 43.7501 48.3452C44.2615 49.019 44.5611 49.8098 44.649 50.7176L45.1522 55.9133L43.1814 56.1041L42.5525 54.4651C42.0833 55.2219 41.4426 55.8264 40.6304 56.2788C39.829 56.7181 38.9028 56.9887 37.8517 57.0905C36.9439 57.1784 36.1244 57.1191 35.3931 56.9126C34.6629 56.7181 34.0771 56.3951 33.6355 55.9436C33.1939 55.492 32.9419 54.9438 32.8794 54.2988C32.7846 53.3194 33.1101 52.5102 33.856 51.8713C34.6126 51.2194 35.7554 50.8193 37.2843 50.6713L41.835 50.2306C41.6696 49.6438 41.3063 49.1907 40.7449 48.8713C40.1954 48.5508 39.5086 48.4304 38.6845 48.5102C37.2034 48.6537 36.1834 49.1383 35.6243 49.964L33.0762 49.7948C33.4695 48.8766 34.1399 48.1426 35.0873 47.5927C36.0455 47.0297 37.2352 46.6794 38.6566 46.5418ZM38.1052 55.0405C39.3235 54.9225 40.2864 54.5942 40.9937 54.0555C41.7119 53.5037 42.0615 52.8188 42.0426 52.0008L37.3664 52.4537C36.6856 52.5196 36.1998 52.6691 35.9089 52.9022C35.6169 53.1234 35.4905 53.4371 35.5298 53.8432C35.5761 54.3209 35.8198 54.659 36.261 54.8574C36.7022 55.0558 37.3169 55.1168 38.1052 55.0405ZM48.258 46.064L58.6852 45.0542L59.6013 54.5139L56.8781 54.7777L56.1823 47.5933L50.9687 48.0982L51.0198 51.8005C51.0492 53.0997 50.8001 54.0763 50.2727 54.7302C49.7572 55.3829 48.8963 55.7677 47.69 55.8845C47.3555 55.9169 46.9579 55.9192 46.4971 55.8915L46.0478 53.4937C46.3738 53.4983 46.6622 53.4884 46.913 53.4641C47.4147 53.4155 47.783 53.2352 48.018 52.9231C48.265 52.6098 48.3807 52.0621 48.3652 51.28L48.258 46.064ZM68.8426 54.0891C66.4299 54.3228 64.5465 54.047 63.1926 53.2619C61.8494 52.4637 61.0979 51.2404 60.9383 49.5921C60.7798 47.9558 61.2843 46.629 62.4517 45.6117C63.6298 44.5813 65.4253 43.9493 67.838 43.7157C70.2507 43.482 72.1281 43.7583 73.4701 44.5446C74.8229 45.3178 75.5786 46.5226 75.7371 48.1589C75.8967 49.8072 75.388 51.1525 74.211 52.1948C73.0448 53.224 71.2553 53.8555 68.8426 54.0891ZM68.6292 51.8854C70.2416 51.7293 71.4112 51.3568 72.1378 50.768C72.8633 50.1673 73.1792 49.3832 73.0855 48.4157C72.9929 47.4602 72.5276 46.7638 71.6896 46.3265C70.8635 45.8881 69.6502 45.7464 68.0497 45.9014C66.4491 46.0564 65.2796 46.4289 64.541 47.0188C63.8144 47.6076 63.4974 48.3798 63.5899 49.3353C63.6836 50.3028 64.1441 51.0117 64.9713 51.4621C65.7974 51.9005 67.0167 52.0416 68.6292 51.8854ZM85.6203 47.1294C86.3747 47.201 86.9877 47.431 87.4593 47.8194C87.9418 48.1946 88.2096 48.6569 88.2628 49.2064C88.3542 50.15 87.9655 50.9291 87.0967 51.5437C86.2267 52.1463 84.8899 52.535 83.0864 52.7097C81.4859 52.8647 80.1423 52.7476 79.0558 52.3586C77.9811 51.9683 77.1903 51.3336 76.6832 50.4544L79.1856 49.778C79.8434 50.5944 81.0561 50.917 82.8239 50.7458C83.7913 50.6521 84.5161 50.4795 84.998 50.2278C85.4789 49.9643 85.7008 49.6414 85.6638 49.2592C85.6302 48.9128 85.3827 48.6595 84.9211 48.4992C84.4595 48.339 83.8226 48.2982 83.0104 48.3768L80.6454 48.6059L80.4546 46.6351L82.8195 46.406C84.3722 46.2557 85.1151 45.8341 85.048 45.1413C85.0156 44.8069 84.7626 44.5601 84.2891 44.401C83.8155 44.2419 83.1667 44.2023 82.3425 44.2821C80.8137 44.4302 79.7465 44.9254 79.1408 45.7677L76.573 45.5823C76.9555 44.6772 77.6379 43.9421 78.6199 43.3768C79.602 42.8115 80.7739 42.4629 82.1355 42.331C83.7718 42.1725 85.0693 42.3121 86.028 42.7497C86.9986 43.1862 87.5267 43.8464 87.6123 44.7302C87.6655 45.2797 87.5189 45.758 87.1726 46.1653C86.8262 46.5726 86.3088 46.894 85.6203 47.1294ZM103.77 45.3717C103.798 45.6584 103.796 45.9539 103.765 46.2583L92.0303 47.3948C92.305 48.1156 92.8568 48.6469 93.6856 48.9886C94.5264 49.3292 95.6156 49.4347 96.9533 49.3051C98.0164 49.2022 98.842 49.0137 99.4304 48.7397C100.018 48.4538 100.457 48.0736 100.749 47.5993L103.461 47.7887C103.005 48.7974 102.263 49.6047 101.237 50.2104C100.209 50.8043 98.8233 51.1856 97.0795 51.3545C95.5267 51.5049 94.1801 51.4183 93.0396 51.0947C91.8991 50.7711 91.0106 50.2484 90.374 49.5264C89.7375 48.8044 89.3683 47.9178 89.2665 46.8667C89.1659 45.8276 89.3527 44.8932 89.8269 44.0637C90.3131 43.2329 91.0788 42.5499 92.1241 42.0147C93.1813 41.4783 94.4982 41.1337 96.0748 40.981C97.6634 40.8272 99.0166 40.9192 100.134 41.257C101.251 41.5829 102.109 42.1026 102.709 42.8161C103.32 43.5285 103.674 44.3803 103.77 45.3717ZM96.264 42.9339C94.986 43.0577 93.9832 43.3477 93.2558 43.8039C92.5273 44.2482 92.0788 44.8462 91.9105 45.5979L100.994 44.7182C100.713 44.0583 100.171 43.5682 99.3687 43.2481C98.565 42.916 97.5301 42.8113 96.264 42.9339ZM108.577 49.7709L105.979 50.0224L105.063 40.5627L109.165 40.1654L113.477 46.9634L113.961 46.9166L116.977 39.4089L121.026 39.0167L121.942 48.4765L119.362 48.7263L118.672 41.5957L118.277 41.6339L115.259 49.1237L112.59 49.3822L108.28 42.602L107.886 42.6402L108.577 49.7709ZM131.199 48.0501C128.787 48.2838 126.903 48.008 125.549 47.2229C124.206 46.4247 123.455 45.2014 123.295 43.5531C123.137 41.9168 123.641 40.59 124.808 39.5727C125.987 38.5423 127.782 37.9103 130.195 37.6767C132.607 37.443 134.485 37.7193 135.827 38.5056C137.18 39.2788 137.935 40.4836 138.094 42.1199C138.253 43.7682 137.745 45.1135 136.568 46.1558C135.401 47.185 133.612 47.8165 131.199 48.0501ZM130.986 45.8464C132.598 45.6903 133.768 45.3178 134.495 44.729C135.22 44.1283 135.536 43.3442 135.442 42.3767C135.35 41.4212 134.884 40.7248 134.046 40.2875C133.22 39.8491 132.007 39.7074 130.406 39.8624C128.806 40.0174 127.636 40.3899 126.898 40.9798C126.171 41.5686 125.854 42.3408 125.947 43.2963C126.04 44.2638 126.501 44.9727 127.328 45.4231C128.154 45.8615 129.373 46.0026 130.986 45.8464ZM149.648 40.8382C150.32 40.9298 150.866 41.1542 151.287 41.5113C151.707 41.8685 151.944 42.3277 151.999 42.8891C152.076 43.6894 151.804 44.3667 151.183 44.9212C150.56 45.4638 149.604 45.7975 148.314 45.9224L140.341 46.6946L139.425 37.2348L147.058 36.4957C148.312 36.3742 149.283 36.5092 149.972 36.9006C150.672 37.2789 151.059 37.8562 151.135 38.6326C151.235 39.6717 150.74 40.4069 149.648 40.8382ZM142.263 38.895L142.443 40.7583L147.227 40.2951C147.692 40.2499 148.025 40.1334 148.224 39.9453C148.433 39.7442 148.525 39.5063 148.498 39.2315C148.471 38.9568 148.337 38.7469 148.093 38.6016C147.861 38.4433 147.512 38.3867 147.046 38.4318L142.263 38.895ZM147.896 44.028C148.385 43.9805 148.746 43.8491 148.979 43.6337C149.223 43.4172 149.33 43.1536 149.3 42.8431C149.271 42.5445 149.122 42.3177 148.854 42.1629C148.597 41.9949 148.211 41.9358 147.698 41.9855L142.61 42.4783L142.807 44.5207L147.896 44.028Z" fill="black"/>
</svg>
