<svg width="185" height="61" viewBox="0 0 185 61" fill="none" xmlns="http://www.w3.org/2000/svg">
<path d="M1.3468 38.1962L66.7722 32.996L41.5007 43.4808L181.347 16.6964" stroke="white" stroke-width="34"/>
<path d="M22.4769 34.6552L21.9876 29.6028L24.8542 29.3252L26.0774 41.9561L23.2108 42.2337L22.7077 37.038L13.1942 37.9594L13.6974 43.1551L10.8308 43.4327L9.60751 30.8018L12.4741 30.5242L12.9634 35.5765L22.4769 34.6552ZM35.5214 41.5117C33.1087 41.7453 31.2253 41.4696 29.8713 40.6845C28.5281 39.8862 27.7767 38.663 27.6171 37.0147C27.4586 35.3783 27.9631 34.0515 29.1305 33.0343C30.3086 32.0039 32.1041 31.3719 34.5168 31.1382C36.9295 30.9046 38.8069 31.1809 40.1489 31.9672C41.5017 32.7404 42.2574 33.9451 42.4159 35.5815C42.5755 37.2298 42.0668 38.5751 40.8898 39.6174C39.7236 40.6466 37.9341 41.278 35.5214 41.5117ZM35.308 39.308C36.9204 39.1518 38.09 38.7794 38.8166 38.1906C39.5421 37.5898 39.858 36.8057 39.7643 35.8383C39.6717 34.8827 39.2064 34.1863 38.3684 33.7491C37.5423 33.3107 36.329 33.169 34.7285 33.324C33.1279 33.479 31.9584 33.8515 31.2198 34.4414C30.4932 35.0302 30.1762 35.8023 30.2687 36.7579C30.3624 37.7254 30.8229 38.4343 31.6501 38.8846C32.4762 39.323 33.6955 39.4642 35.308 39.308ZM44.6635 40.1561L43.7474 30.6964L45.7002 30.5072L46.3436 32.1087C46.6992 31.4232 47.2413 30.8583 47.9698 30.414C48.6972 29.9578 49.5208 29.6851 50.4405 29.5961C51.5393 29.4896 52.5174 29.63 53.3747 30.0172C54.244 30.4032 54.9341 30.9934 55.4451 31.7879C55.9668 32.5692 56.2786 33.4854 56.3804 34.5365L56.8107 38.9797L54.0874 39.2434L53.6745 34.9794C53.575 33.9522 53.1971 33.1629 52.5409 32.6116C51.8847 32.0603 51.0848 31.8304 50.1413 31.9217C49.4963 31.9842 48.9183 32.1788 48.4075 32.5056C47.9074 32.8193 47.5263 33.242 47.2644 33.7737C47.0024 34.3054 46.9044 34.9117 46.9703 35.5925L47.3868 39.8924L44.6635 40.1561ZM72.5658 32.5892C72.5935 32.8759 72.592 33.1714 72.5612 33.4758L60.8261 34.6123C61.1009 35.3332 61.6527 35.8645 62.4815 36.2062C63.3222 36.5467 64.4114 36.6522 65.7492 36.5226C66.8122 36.4197 67.6379 36.2312 68.2262 35.9572C68.8134 35.6713 69.2528 35.2912 69.5444 34.8169L72.2573 35.0062C71.8004 36.015 71.0588 36.8222 70.0324 37.428C69.0049 38.0218 67.6192 38.4031 65.8753 38.572C64.3226 38.7224 62.976 38.6358 61.8355 38.3122C60.695 37.9887 59.8064 37.4659 59.1699 36.7439C58.5333 36.0219 58.1641 35.1353 58.0623 34.0843C57.9617 33.0451 58.1485 32.1108 58.6227 31.2812C59.1089 30.4504 59.8747 29.7675 60.9199 29.2322C61.9771 28.6958 63.2941 28.3512 64.8707 28.1986C66.4593 28.0447 67.8124 28.1367 68.9302 28.4745C70.0468 28.8004 70.9049 29.3201 71.5045 30.0336C72.116 30.746 72.4698 31.5979 72.5658 32.5892ZM65.0598 30.1514C63.7818 30.2752 62.7791 30.5652 62.0517 31.0214C61.3231 31.4657 60.8747 32.0638 60.7063 32.8155L69.7899 31.9358C69.5089 31.2758 68.9672 30.7857 68.1646 30.4656C67.3608 30.1335 66.3259 30.0288 65.0598 30.1514ZM83.5732 26.8394L86.4219 26.5635L81.5356 37.5437C81.2193 38.2615 80.8945 38.8294 80.5613 39.2475C80.2292 39.6775 79.809 40.0076 79.3008 40.2376C78.8046 40.4665 78.1623 40.6192 77.374 40.6955L75.2957 40.8968L74.8534 38.5706L77.29 38.3346C77.7797 38.2872 78.1365 38.1743 78.3604 37.9958C78.5973 37.8282 78.815 37.5238 79.0134 37.0826L79.0712 36.9324L72.2144 27.9395L75.1168 27.6584L79.9061 33.9761L80.4615 33.9223L83.5732 26.8394ZM99.3712 28.3114C100.264 28.442 100.981 28.7463 101.521 29.2244C102.074 29.7014 102.385 30.3041 102.456 31.0327C102.522 31.7135 102.389 32.3352 102.058 32.8978C101.726 33.4603 101.211 33.9262 100.511 34.2954C99.8116 34.6645 98.9482 34.8989 97.921 34.9983L88.4792 35.9127L87.2559 23.2818L96.2319 22.4125C97.7966 22.261 99.0325 22.4488 99.9395 22.9758C100.847 23.5028 101.35 24.2799 101.449 25.3071C101.516 25.9999 101.363 26.5994 100.991 27.1057C100.618 27.612 100.078 28.0139 99.3712 28.3114ZM90.3359 25.2079L90.6274 28.2178L96.5935 27.64C97.3102 27.5706 97.8344 27.3812 98.1661 27.0718C98.5086 26.7493 98.6579 26.3611 98.6139 25.9072C98.5711 25.4653 98.3572 25.1243 97.9723 24.8843C97.5874 24.6443 97.0306 24.5596 96.302 24.6301L90.3359 25.2079ZM97.4747 32.8172C98.1913 32.7478 98.7149 32.5524 99.0455 32.2311C99.3869 31.8966 99.535 31.4964 99.4899 31.0306C99.4459 30.5768 99.2255 30.2304 98.8286 29.9915C98.4425 29.7396 97.8912 29.6483 97.1745 29.7177L90.8322 30.3319L91.1324 33.4314L97.4747 32.8172ZM109.858 23.8417C110.993 23.7318 111.998 23.8394 112.873 24.1646C113.747 24.4777 114.44 24.9713 114.952 25.6451C115.463 26.319 115.763 27.1098 115.851 28.0175L116.354 33.2132L114.383 33.4041L113.754 31.7651C113.285 32.5218 112.644 33.1264 111.832 33.5788C111.03 34.0181 110.104 34.2886 109.053 34.3904C108.145 34.4783 107.326 34.4191 106.595 34.2126C105.864 34.0181 105.279 33.695 104.837 33.2435C104.395 32.792 104.143 32.2437 104.081 31.5987C103.986 30.6193 104.312 29.8102 105.057 29.1713C105.814 28.5193 106.957 28.1193 108.486 27.9712L113.036 27.5305C112.871 26.9437 112.508 26.4906 111.946 26.1713C111.397 25.8507 110.71 25.7304 109.886 25.8102C108.405 25.9536 107.385 26.4382 106.826 27.2639L104.278 27.0948C104.671 26.1766 105.341 25.4426 106.289 24.8927C107.247 24.3297 108.437 23.9794 109.858 23.8417ZM109.307 32.3404C110.525 32.2224 111.488 31.8941 112.195 31.3554C112.913 30.8036 113.263 30.1187 113.244 29.3007L108.568 29.7536C107.887 29.8195 107.401 29.9691 107.11 30.2022C106.818 30.4234 106.692 30.737 106.731 31.1431C106.778 31.6209 107.021 31.959 107.463 32.1574C107.904 32.3557 108.518 32.4168 109.307 32.3404ZM124.466 32.8978C123.199 33.0204 122.062 32.9136 121.053 32.5773C120.054 32.2279 119.255 31.6904 118.654 30.965C118.052 30.2276 117.702 29.3453 117.602 28.3181C117.504 27.3028 117.68 26.3816 118.13 25.5543C118.579 24.7151 119.261 24.0342 120.175 23.5117C121.099 22.9761 122.195 22.6469 123.461 22.5243C125.826 22.2953 127.785 22.7325 129.339 23.8358L128.895 19.2493L131.618 18.9856L132.841 31.6165L130.87 31.8073L130.132 30.3417C128.791 31.8098 126.902 32.6618 124.466 32.8978ZM125.023 30.6195C126.599 30.4668 127.798 30.0855 128.619 29.4755C129.452 28.8643 129.823 28.087 129.731 27.1434C129.64 26.1998 129.127 25.508 128.192 25.0681C127.269 24.627 126.02 24.4828 124.443 24.6355C122.986 24.7766 121.912 25.1398 121.221 25.7251C120.53 26.3105 120.232 27.0869 120.325 28.0543C120.419 29.0218 120.861 29.7265 121.651 30.1684C122.442 30.6102 123.565 30.7606 125.023 30.6195ZM142.167 34.4205C140.411 34.5906 138.953 34.4726 137.793 34.0666C136.632 33.6605 135.738 32.9574 135.111 31.9573L137.81 31.2618C138.14 31.676 138.662 31.963 139.377 32.1228C140.105 32.2935 140.97 32.3302 141.973 32.233C144.959 31.9438 146.357 30.8139 146.166 28.8431L146.098 28.1443C144.92 29.4159 143.243 30.157 141.069 30.3675C139.075 30.5607 137.482 30.299 136.291 29.5824C135.112 28.8527 134.449 27.7414 134.305 26.2484C134.21 25.269 134.379 24.4026 134.813 23.6493C135.245 22.8841 135.915 22.2706 136.823 21.809C137.741 21.3342 138.851 21.0338 140.153 20.9077C141.3 20.7967 142.318 20.8548 143.208 21.0821C144.097 21.2974 144.938 21.7042 145.732 22.3025L146.127 20.7813L148.098 20.5905L148.873 28.599C149.041 30.3309 148.568 31.6727 147.455 32.6245C146.354 33.587 144.592 34.1857 142.167 34.4205ZM141.49 28.1747C142.923 28.0359 144.018 27.7008 144.774 27.1694C145.543 26.6369 145.887 25.9586 145.807 25.1344C145.727 24.3103 145.265 23.71 144.421 23.3337C143.576 22.9453 142.43 22.8212 140.985 22.9611C138.178 23.233 136.859 24.2408 137.028 25.9846C137.196 27.7165 138.683 28.4466 141.49 28.1747ZM164.876 23.6493C164.904 23.936 164.902 24.2315 164.872 24.5359L153.136 25.6724C153.411 26.3933 153.963 26.9246 154.792 27.2663C155.633 27.6068 156.722 27.7123 158.059 27.5827C159.123 27.4798 159.948 27.2913 160.537 27.0173C161.124 26.7314 161.563 26.3513 161.855 25.877L164.568 26.0663C164.111 27.0751 163.369 27.8823 162.343 28.4881C161.315 29.0819 159.929 29.4632 158.186 29.6321C156.633 29.7825 155.286 29.6959 154.146 29.3723C153.005 29.0488 152.117 28.526 151.48 27.804C150.844 27.082 150.474 26.1954 150.373 25.1444C150.272 24.1052 150.459 23.1709 150.933 22.3413C151.419 21.5106 152.185 20.8276 153.23 20.2923C154.287 19.7559 155.604 19.4114 157.181 19.2587C158.77 19.1048 160.123 19.1968 161.241 19.5346C162.357 19.8605 163.215 20.3802 163.815 21.0937C164.426 21.8061 164.78 22.658 164.876 23.6493ZM157.37 21.2115C156.092 21.3353 155.089 21.6253 154.362 22.0816C153.633 22.5259 153.185 23.1239 153.017 23.8756L162.1 22.9959C161.819 22.3359 161.277 21.8458 160.475 21.5257C159.671 21.1936 158.636 21.0889 157.37 21.2115ZM167.085 28.3001L166.169 18.8403L168.122 18.6512L168.789 20.1238C169.073 19.4452 169.476 18.942 169.999 18.6141C170.522 18.2862 171.225 18.0794 172.109 17.9938L173.453 17.8637L173.945 20.3297L171.257 20.59C170.552 20.6582 170.033 20.9014 169.7 21.3195C169.366 21.7256 169.232 22.275 169.299 22.9678L169.79 28.0381L167.085 28.3001Z" fill="black"/>
</svg>
