<svg width="147" height="51" viewBox="0 0 147 51" fill="none" xmlns="http://www.w3.org/2000/svg">
<path d="M142.677 16.5498L85.1271 30.0642L110.399 19.5793L2.17653 33.5498" stroke="white" stroke-width="34"/>
<path d="M35.1999 33.7884L32.1363 34.0851L30.5156 31.7284L21.3783 32.6133L20.222 35.239L17.1584 35.5357L23.227 22.1986L26.8461 21.8481L35.1999 33.7884ZM24.9246 24.6021L22.4317 30.2327L29.0607 29.5907L25.6054 24.5362L24.9246 24.6021ZM36.7564 37.3449L35.4846 24.2124L37.4733 24.0198L38.1941 25.4871C39.5479 24.0299 41.4372 23.1838 43.8618 22.949C45.1279 22.8264 46.2601 22.9398 47.2584 23.2891C48.2676 23.6254 49.0731 24.1623 49.6749 24.8997C50.2757 25.6252 50.6252 26.4955 50.7235 27.5108C50.8218 28.526 50.6464 29.4533 50.1972 30.2925C49.748 31.1317 49.0611 31.8191 48.1364 32.3547C47.2225 32.8773 46.1325 33.1998 44.8665 33.3224C42.5135 33.5503 40.5536 33.1072 38.9869 31.993L39.4797 37.0812L36.7564 37.3449ZM43.8826 31.1934C45.3398 31.0522 46.4138 30.689 47.1046 30.1037C47.8074 29.5172 48.1119 28.7403 48.0182 27.7728C47.9245 26.8053 47.4765 26.1012 46.6743 25.6605C45.884 25.2186 44.7603 25.0682 43.3031 25.2094C41.7265 25.3621 40.5217 25.744 39.6887 26.3551C38.8677 26.9651 38.5029 27.7419 38.5943 28.6855C38.6857 29.629 39.1928 30.3214 40.1156 30.7625C41.0503 31.2024 42.306 31.3461 43.8826 31.1934ZM56.9471 31.6823L52.9697 32.0675L52.0536 22.6077L54.7052 22.351L55.3836 29.3562L55.9211 29.3041L60.9221 21.7489L64.8995 21.3637L65.8156 30.8234L63.164 31.0802L62.4873 24.0929L61.9678 24.1432L56.9471 31.6823ZM87.0351 28.7684L68.3664 30.5764L67.4503 21.1166L70.1735 20.8529L70.8641 27.9835L76.1136 27.4751L75.423 20.3445L78.1462 20.0808L78.8368 27.2114L84.0863 26.703L83.3957 19.5724L86.1189 19.3086L87.0351 28.7684ZM98.425 21.7156L98.0797 18.1503L100.803 17.8866L101.719 27.3463L98.9958 27.61L98.6384 23.9193L91.9377 24.5682L92.2952 28.259L89.5719 28.5227L88.6558 19.063L91.379 18.7992L91.7243 22.3646L98.425 21.7156ZM117.562 20.9474C117.589 21.234 117.588 21.5295 117.557 21.8339L105.822 22.9704C106.097 23.6913 106.649 24.2226 107.477 24.5643C108.318 24.9048 109.407 25.0103 110.745 24.8808C111.808 24.7778 112.634 24.5893 113.222 24.3154C113.809 24.0294 114.249 23.6493 114.54 23.175L117.253 23.3643C116.796 24.3731 116.055 25.1803 115.028 25.7861C114.001 26.3799 112.615 26.7613 110.871 26.9301C109.318 27.0805 107.972 26.9939 106.831 26.6704C105.691 26.3468 104.802 25.824 104.166 25.102C103.529 24.38 103.16 23.4935 103.058 22.4424C102.958 21.4032 103.144 20.4689 103.619 19.6393C104.105 18.8086 104.871 18.1256 105.916 17.5903C106.973 17.0539 108.29 16.7094 109.867 16.5567C111.455 16.4028 112.808 16.4948 113.926 16.8326C115.043 17.1585 115.901 17.6782 116.5 18.3918C117.112 19.1041 117.466 19.956 117.562 20.9474ZM110.056 18.5095C108.778 18.6333 107.775 18.9233 107.048 19.3796C106.319 19.8239 105.871 20.4219 105.702 21.1736L114.786 20.2939C114.505 19.6339 113.963 19.1438 113.16 18.8237C112.357 18.4917 111.322 18.3869 110.056 18.5095ZM129.077 19.7417C129.749 19.8333 130.295 20.0577 130.716 20.4149C131.136 20.772 131.374 21.2313 131.428 21.7927C131.505 22.5929 131.233 23.2703 130.612 23.8248C129.989 24.3673 129.033 24.701 127.743 24.826L119.77 25.5981L118.854 16.1384L126.487 15.3992C127.741 15.2777 128.712 15.4127 129.401 15.8041C130.101 16.1824 130.488 16.7598 130.564 17.5361C130.664 18.5753 130.169 19.3105 129.077 19.7417ZM121.692 17.7986L121.872 19.6619L126.656 19.1986C127.121 19.1535 127.454 19.0369 127.653 18.8489C127.862 18.6477 127.954 18.4098 127.927 18.1351C127.9 17.8604 127.766 17.6504 127.522 17.5052C127.29 17.3468 126.941 17.2902 126.475 17.3353L121.692 17.7986ZM127.325 22.9315C127.814 22.8841 128.175 22.7527 128.408 22.5373C128.652 22.3207 128.759 22.0572 128.729 21.7466C128.7 21.448 128.551 21.2213 128.283 21.0664C128.026 20.8984 127.64 20.8393 127.127 20.8891L122.039 21.3818L122.236 23.4243L127.325 22.9315Z" fill="black"/>
</svg>
