<svg width="150" height="69" viewBox="0 0 150 69" fill="none" xmlns="http://www.w3.org/2000/svg">
<path d="M12.626 27.709L48.5514 24.5089L23.2799 34.9938L128.657 16.751" stroke="white" stroke-width="34"/>
<path d="M146.626 33.7394L83.5763 44.2244L108.848 33.7395L3.47031 51.9824" stroke="white" stroke-width="34"/>
<path d="M43.1791 32.3031L42.6291 26.6237L42.9874 26.589C43.5726 26.5323 44.0423 26.4024 44.3964 26.1993C44.7624 25.9951 45.0411 25.6366 45.2326 25.1237C45.436 24.6097 45.5338 23.8769 45.526 22.9252L45.4597 16.0777L58.1443 14.8493L59.1299 25.0256L61.9248 24.755L62.4748 30.4344L59.6082 30.712L59.2959 27.4871L45.7334 28.8006L46.0457 32.0255L43.1791 32.3031ZM56.2633 25.3033L55.5085 17.5097L48.3062 18.2072L48.3342 22.4181C48.3359 24.1782 48.0168 25.4268 47.3768 26.1639L56.2633 25.3033ZM68.8215 16.564C69.9562 16.4541 70.9613 16.5617 71.8367 16.8869C72.711 17.2 73.4038 17.6936 73.9151 18.3674C74.4264 19.0413 74.7261 19.8321 74.814 20.7398L75.3172 25.9355L73.3464 26.1264L72.7175 24.4874C72.2482 25.2441 71.6075 25.8487 70.7953 26.3011C69.994 26.7404 69.0677 27.0109 68.0166 27.1127C67.1089 27.2006 66.2894 27.1414 65.558 26.9349C64.8279 26.7404 64.242 26.4173 63.8004 25.9658C63.3589 25.5143 63.1068 24.966 63.0444 24.321C62.9495 23.3416 63.275 22.5325 64.0209 21.8936C64.7776 21.2416 65.9204 20.8416 67.4492 20.6935L71.9999 20.2528C71.8346 19.666 71.4712 19.2129 70.9098 18.8936C70.3604 18.573 69.6736 18.4527 68.8494 18.5325C67.3684 18.6759 66.3483 19.1605 65.7893 19.9862L63.2411 19.8171C63.6345 18.8989 64.3048 18.1648 65.2522 17.615C66.2104 17.052 67.4002 16.7017 68.8215 16.564ZM68.2702 25.0627C69.4885 24.9447 70.4513 24.6164 71.1587 24.0777C71.8769 23.5259 72.2265 22.841 72.2075 22.023L67.5314 22.4759C66.8506 22.5418 66.3648 22.6914 66.0739 22.9245C65.7818 23.1457 65.6555 23.4593 65.6948 23.8654C65.7411 24.3432 65.9848 24.6813 66.426 24.8796C66.8672 25.078 67.4819 25.1391 68.2702 25.0627ZM86.6292 18.8903L86.2839 15.3249L89.0072 15.0612L89.9233 24.521L87.2001 24.7847L86.8426 21.094L80.142 21.7429L80.4994 25.4336L77.7762 25.6974L76.86 16.2376L79.5833 15.9739L79.9286 19.5392L86.6292 18.8903ZM102.88 13.7177L103.796 23.1774L101.073 23.4412L100.804 20.6642L97.8477 20.9505L95.0709 24.0224L91.828 24.3365L94.9441 21.0327C94.0263 20.8925 93.3019 20.5709 92.7709 20.0677C92.2519 19.5634 91.9554 18.929 91.8813 18.1646C91.7842 17.1613 92.1003 16.3169 92.8296 15.6314C93.5577 14.934 94.6564 14.5141 96.1255 14.3718L102.88 13.7177ZM100.604 18.6038L100.358 16.0597L96.3805 16.4449C95.7714 16.5039 95.3106 16.6631 94.9981 16.9224C94.6964 17.1686 94.5653 17.4948 94.6046 17.9009C94.6428 18.295 94.8341 18.59 95.1786 18.7857C95.535 18.9802 96.0178 19.048 96.6269 18.989L100.604 18.6038ZM29.5481 46.893L39.2811 52.5331L35.1066 52.9373L27.2509 48.3814L26.1043 48.4924L26.6144 53.7598L23.7478 54.0374L22.5245 41.4065L25.3911 41.1289L25.8735 46.1096L27.1276 45.9881L33.4892 40.3446L37.395 39.9664L29.5481 46.893ZM40.5449 56.1179L39.2731 42.9854L41.2618 42.7928L41.9826 44.2601C43.3364 42.8028 45.2257 41.9568 47.6503 41.722C48.9164 41.5993 50.0486 41.7127 51.0469 42.0621C52.056 42.3984 52.8615 42.9353 53.4634 43.6727C54.0642 44.3982 54.4137 45.2685 54.512 46.2838C54.6103 47.299 54.4349 48.2263 53.9857 49.0655C53.5365 49.9047 52.8496 50.5921 51.9249 51.1277C51.011 51.6502 49.921 51.9728 48.655 52.0954C46.302 52.3233 44.3421 51.8802 42.7754 50.766L43.2682 55.8542L40.5449 56.1179ZM47.6711 49.9663C49.1283 49.8252 50.2023 49.462 50.8931 48.8767C51.5958 48.2902 51.9004 47.5132 51.8067 46.5458C51.713 45.5783 51.265 44.8742 50.4628 44.4335C49.6725 43.9916 48.5488 43.8412 47.0916 43.9823C45.515 44.135 44.3102 44.5169 43.4772 45.1281C42.6562 45.7381 42.2914 46.5149 42.3828 47.4584C42.4741 48.402 42.9812 49.0944 43.9041 49.5355C44.8388 49.9754 46.0945 50.119 47.6711 49.9663ZM61.8006 40.3516C62.9353 40.2417 63.9403 40.3493 64.8158 40.6744C65.69 40.9876 66.3828 41.4811 66.8942 42.155C67.4055 42.8288 67.7051 43.6196 67.793 44.5274L68.2962 49.7231L66.3254 49.9139L65.6965 48.2749C65.2273 49.0317 64.5866 49.6362 63.7744 50.0886C62.973 50.5279 62.0468 50.7985 60.9957 50.9003C60.0879 50.9882 59.2684 50.9289 58.5371 50.7224C57.807 50.5279 57.2211 50.2049 56.7795 49.7534C56.3379 49.3018 56.0859 48.7536 56.0234 48.1086C55.9286 47.1292 56.2541 46.32 57 45.6811C57.7567 45.0292 58.8994 44.6291 60.4283 44.4811L64.979 44.0404C64.8137 43.4536 64.4503 43.0005 63.8889 42.6811C63.3394 42.3606 62.6526 42.2402 61.8285 42.32C60.3474 42.4635 59.3274 42.9481 58.7684 43.7738L56.2202 43.6046C56.6135 42.6864 57.2839 41.9524 58.2313 41.4025C59.1895 40.8395 60.3793 40.4892 61.8006 40.3516ZM61.2493 48.8503C62.4676 48.7323 63.4304 48.404 64.1378 47.8653C64.8559 47.3135 65.2055 46.6286 65.1866 45.8106L60.5105 46.2635C59.8297 46.3294 59.3438 46.4789 59.0529 46.712C58.7609 46.9332 58.6345 47.2469 58.6739 47.653C58.7201 48.1307 58.9639 48.4688 59.405 48.6672C59.8462 48.8656 60.461 48.9266 61.2493 48.8503ZM77.4651 49.3053C75.0405 49.5401 73.1512 49.2649 71.7972 48.4798C70.454 47.6816 69.7026 46.4583 69.5429 44.81C69.3845 43.1737 69.8889 41.8469 71.0563 40.8296C72.2344 39.7992 74.0299 39.1672 76.4426 38.9335C78.2103 38.7623 79.7126 38.9002 80.9494 39.347C82.1971 39.7808 83.1243 40.5168 83.7313 41.5552L81.1375 42.2223C80.2628 41.2822 78.7863 40.9128 76.708 41.1141C75.0836 41.2714 73.9021 41.6451 73.1636 42.235C72.425 42.8249 72.102 43.5977 72.1945 44.5532C72.2882 45.5207 72.7487 46.2296 73.576 46.6799C74.414 47.1172 75.6393 47.2577 77.2517 47.1016C78.3984 46.9905 79.3179 46.7749 80.0102 46.4547C80.7014 46.1225 81.1869 45.7198 81.4665 45.2467L84.124 45.4233C83.7133 46.5361 82.9607 47.4167 81.8661 48.0653C80.7835 48.7126 79.3165 49.126 77.4651 49.3053ZM92.6759 47.362L89.9706 47.624L89.2748 40.4396L84.3658 40.915L84.1454 38.6397L96.6688 37.4268L96.8892 39.7022L91.9802 40.1776L92.6759 47.362ZM112.27 40.5998C112.297 40.8864 112.296 41.1819 112.265 41.4863L100.53 42.6228C100.805 43.3437 101.356 43.875 102.185 44.2167C103.026 44.5572 104.115 44.6627 105.453 44.5332C106.516 44.4302 107.342 44.2417 107.93 43.9678C108.517 43.6818 108.957 43.3017 109.248 42.8274L111.961 43.0167C111.504 44.0255 110.763 44.8327 109.736 45.4385C108.709 46.0323 107.323 46.4137 105.579 46.5825C104.026 46.7329 102.68 46.6463 101.539 46.3228C100.399 45.9992 99.5102 45.4764 98.8737 44.7544C98.2371 44.0324 97.8679 43.1459 97.7661 42.0948C97.6655 41.0556 97.8523 40.1213 98.3265 39.2917C98.8127 38.461 99.5785 37.778 100.624 37.2427C101.681 36.7063 102.998 36.3618 104.574 36.2091C106.163 36.0552 107.516 36.1472 108.634 36.485C109.751 36.8109 110.609 37.3306 111.208 38.0442C111.82 38.7565 112.174 39.6084 112.27 40.5998ZM104.764 38.1619C103.486 38.2857 102.483 38.5757 101.755 39.032C101.027 39.4763 100.578 40.0743 100.41 40.826L109.494 39.9463C109.213 39.2863 108.671 38.7962 107.868 38.4761C107.065 38.1441 106.03 38.0393 104.764 38.1619ZM114.834 48.9233L113.562 35.7908L115.551 35.5982L116.272 37.0655C117.626 35.6082 119.515 34.7622 121.939 34.5273C123.206 34.4047 124.338 34.5181 125.336 34.8675C126.345 35.2038 127.151 35.7407 127.753 36.4781C128.353 37.2035 128.703 38.0739 128.801 39.0892C128.899 40.1044 128.724 41.0316 128.275 41.8708C127.826 42.7101 127.139 43.3975 126.214 43.9331C125.3 44.4556 124.21 44.7782 122.944 44.9008C120.591 45.1287 118.631 44.6856 117.065 43.5714L117.557 48.6596L114.834 48.9233ZM121.96 42.7717C123.417 42.6306 124.491 42.2674 125.182 41.6821C125.885 41.0956 126.19 40.3186 126.096 39.3512C126.002 38.3837 125.554 37.6796 124.752 37.2389C123.962 36.797 122.838 36.6466 121.381 36.7877C119.804 36.9404 118.599 37.3223 117.766 37.9335C116.945 38.5435 116.581 39.3202 116.672 40.2638C116.763 41.2074 117.27 41.8998 118.193 42.3409C119.128 42.7808 120.384 42.9244 121.96 42.7717Z" fill="black"/>
</svg>
