<svg width="115" height="69" viewBox="0 0 115 69" fill="none" xmlns="http://www.w3.org/2000/svg">
<path d="M1.1167 24.1631L36.042 26.4626L10.7705 36.9475L111.117 16.6632" stroke="white" stroke-width="34"/>
<path d="M110.616 39.6629L71.0669 46.1779L96.3385 35.693L9.11674 52.1628" stroke="white" stroke-width="34"/>
<path d="M44.9399 29.6197L41.5358 29.9494L36.7837 26.0694L32.9675 26.4389L33.384 30.7388L30.5174 31.0164L29.2941 18.3855L36.9981 17.6394C38.9808 17.4474 40.5222 17.6779 41.6223 18.3309C42.7343 18.9828 43.3516 19.9417 43.4742 21.2078C43.5725 22.223 43.3208 23.1094 42.719 23.867C42.1292 24.6234 41.2014 25.1894 39.9358 25.5652L44.9399 29.6197ZM32.3863 20.437L32.7437 24.1278L37.9752 23.6211C38.871 23.5343 39.5357 23.3012 39.9691 22.9216C40.4014 22.5302 40.5903 22.0537 40.536 21.4923C40.4827 20.9429 40.207 20.5235 39.7088 20.2342C39.2106 19.9449 38.5136 19.8436 37.6178 19.9304L32.3863 20.437ZM49.3868 29.189L46.6635 29.4528L45.7474 19.993L48.4706 19.7293L49.3868 29.189ZM46.9945 18.6787C46.5406 18.7226 46.1379 18.6109 45.7865 18.3436C45.4459 18.0631 45.2542 17.7019 45.2114 17.2599C45.1674 16.8061 45.2863 16.4148 45.5679 16.0861C45.8615 15.7563 46.2352 15.5694 46.6891 15.5254C47.143 15.4815 47.5396 15.5938 47.8791 15.8623C48.2305 16.1297 48.4282 16.4903 48.4721 16.9442C48.5149 17.3861 48.3901 17.7779 48.0977 18.1197C47.8161 18.4484 47.4483 18.6347 46.9945 18.6787ZM57.489 28.8745C55.9601 29.0226 54.6071 28.8703 53.43 28.4177C52.2518 27.9531 51.4067 27.2573 50.895 26.3303L53.2541 25.6678C53.6121 26.1275 54.1698 26.4713 54.9274 26.6993C55.6957 26.9143 56.5337 26.9778 57.4414 26.8899C58.4089 26.7962 59.1109 26.6378 59.5474 26.4147C59.9828 26.1796 60.186 25.9128 60.1571 25.6142C60.134 25.3753 60.008 25.1946 59.7791 25.0721C59.5491 24.9376 59.1894 24.8338 58.7 24.7606C58.2096 24.6755 57.5154 24.6041 56.6177 24.5464C55.3308 24.454 54.3169 24.3171 53.5759 24.1357C52.835 23.9542 52.2788 23.6886 51.9074 23.3388C51.5478 22.9878 51.3392 22.5137 51.2813 21.9165C51.1911 20.9849 51.5881 20.2291 52.4723 19.6492C53.3554 19.0573 54.639 18.6798 56.3231 18.5167C57.6967 18.3837 58.91 18.5254 59.963 18.9418C61.0149 19.3463 61.8075 19.9989 62.3408 20.8997L59.928 21.5674C59.607 21.1162 59.1357 20.7942 58.5142 20.6012C57.8927 20.4082 57.1878 20.3499 56.3995 20.4262C54.6557 20.5951 53.8156 21.008 53.8792 21.6649C53.9012 21.8919 54.0331 22.072 54.2751 22.2053C54.5171 22.3386 54.9012 22.446 55.4276 22.5277C55.9527 22.5974 56.7125 22.6625 57.707 22.7229C58.9211 22.8103 59.8807 22.9464 60.5858 23.1313C61.2897 23.3042 61.8089 23.5614 62.1434 23.9027C62.4898 24.2429 62.6908 24.6997 62.7463 25.273C62.8377 26.2166 62.4561 27.007 61.6015 27.6444C60.747 28.2817 59.3761 28.6918 57.489 28.8745ZM65.227 27.655L64.0038 15.024L66.727 14.7603L67.1712 19.3468C67.5434 18.708 68.0662 18.1932 68.7397 17.8025C69.4131 17.4117 70.1679 17.1759 71.004 17.0949C72.1029 16.9885 73.0809 17.1289 73.9383 17.516C74.8075 17.902 75.4976 18.4922 76.0086 19.2867C76.5303 20.068 76.8421 20.9843 76.9439 22.0353L77.3742 26.4785L74.6509 26.7423L74.238 22.4782C74.1385 21.451 73.7607 20.6618 73.1045 20.1105C72.4483 19.5592 71.6484 19.3292 70.7048 19.4206C70.0598 19.483 69.4819 19.6777 68.971 20.0044C68.4709 20.3181 68.0899 20.7408 67.8279 21.2725C67.5659 21.8042 67.4679 22.4105 67.5339 23.0913L67.9503 27.3912L65.227 27.655ZM84.8767 15.7514C86.0114 15.6415 87.0165 15.7491 87.8919 16.0742C88.7661 16.3874 89.4589 16.8809 89.9703 17.5548C90.4816 18.2286 90.7812 19.0194 90.8692 19.9272L91.3723 25.1229L89.4016 25.3137L88.7726 23.6747C88.3034 24.4315 87.6627 25.0361 86.8505 25.4885C86.0491 25.9278 85.1229 26.1983 84.0718 26.3001C83.1641 26.388 82.3445 26.3287 81.6132 26.1223C80.8831 25.9277 80.2972 25.6047 79.8556 25.1532C79.414 24.7016 79.162 24.1534 79.0996 23.5084C79.0047 22.529 79.3302 21.7198 80.0761 21.081C80.8328 20.429 81.9755 20.029 83.5044 19.8809L88.0551 19.4402C87.8898 18.8534 87.5264 18.4003 86.965 18.0809C86.4155 17.7604 85.7287 17.64 84.9046 17.7199C83.4235 17.8633 82.4035 18.3479 81.8445 19.1736L79.2963 19.0045C79.6896 18.0863 80.36 17.3522 81.3074 16.8023C82.2656 16.2394 83.4554 15.889 84.8767 15.7514ZM84.3254 24.2501C85.5437 24.1321 86.5065 23.8038 87.2139 23.2651C87.932 22.7133 88.2816 22.0284 88.2627 21.2104L83.5866 21.6633C82.9058 21.7292 82.4199 21.8787 82.129 22.1119C81.837 22.333 81.7106 22.6467 81.75 23.0528C81.7962 23.5306 82.04 23.8686 82.4811 24.067C82.9223 24.2654 83.5371 24.3265 84.3254 24.2501ZM18.8025 55.2586L16.0255 55.5275L14.8023 42.8966L19.5142 42.4403L25.8717 51.8794L26.4809 51.8204L30.9985 41.3281L35.6388 40.8787L36.862 53.5096L34.085 53.7785L33.1203 43.8171L32.6007 43.8675L27.9935 54.3685L24.7865 54.6791L18.3574 45.2469L17.8378 45.2972L18.8025 55.2586ZM44.6654 42.7533C45.8001 42.6434 46.8051 42.751 47.6805 43.0762C48.5548 43.3893 49.2476 43.8829 49.7589 44.5567C50.2703 45.2306 50.5699 46.0214 50.6578 46.9291L51.161 52.1248L49.1902 52.3157L48.5613 50.6767C48.092 51.4334 47.4513 52.038 46.6392 52.4904C45.8378 52.9297 44.9115 53.2002 43.8605 53.302C42.9527 53.3899 42.1332 53.3307 41.4019 53.1242C40.6717 52.9297 40.0858 52.6066 39.6443 52.1551C39.2027 51.7036 38.9507 51.1553 38.8882 50.5103C38.7933 49.5309 39.1189 48.7218 39.8647 48.0829C40.6214 47.4309 41.7642 47.0309 43.293 46.8828L47.8437 46.4421C47.6784 45.8553 47.315 45.4022 46.7536 45.0829C46.2042 44.7623 45.5174 44.642 44.6932 44.7218C43.2122 44.8652 42.1921 45.3498 41.6331 46.1755L39.085 46.0064C39.4783 45.0882 40.1486 44.3541 41.096 43.8043C42.0542 43.2413 43.244 42.891 44.6654 42.7533ZM44.114 51.252C45.3323 51.134 46.2952 50.8057 47.0025 50.267C47.7207 49.7152 48.0703 49.0303 48.0514 48.2123L43.3752 48.6652C42.6944 48.7311 42.2086 48.8807 41.9177 49.1138C41.6256 49.335 41.4993 49.6486 41.5386 50.0547C41.5849 50.5325 41.8286 50.8706 42.2698 51.069C42.711 51.2673 43.3257 51.3284 44.114 51.252ZM66.0896 50.679L62.3631 51.0399L57.1145 47.8229L56.0754 47.9235L56.4328 51.6142L53.7095 51.878L52.4863 39.2471L55.2096 38.9833L55.8602 45.7019L56.8277 45.6082L61.2678 41.5975L64.6898 41.2661L58.9835 46.3941L66.0896 50.679ZM79.5626 44.5096C79.5904 44.7962 79.5889 45.0917 79.5581 45.3961L67.823 46.5326C68.0978 47.2535 68.6495 47.7848 69.4783 48.1265C70.3191 48.467 71.4083 48.5725 72.7461 48.443C73.8091 48.34 74.6348 48.1515 75.2231 47.8776C75.8103 47.5916 76.2497 47.2115 76.5413 46.7372L79.2542 46.9265C78.7973 47.9353 78.0557 48.7425 77.0293 49.3483C76.0017 49.9421 74.616 50.3235 72.8722 50.4923C71.3195 50.6427 69.9728 50.5561 68.8323 50.2326C67.6918 49.909 66.8033 49.3862 66.1668 48.6642C65.5302 47.9422 65.161 47.0557 65.0592 46.0046C64.9586 44.9654 65.1454 44.0311 65.6196 43.2015C66.1058 42.3708 66.8715 41.6878 67.9168 41.1525C68.974 40.6161 70.291 40.2716 71.8676 40.1189C73.4561 39.965 74.8093 40.057 75.9271 40.3948C77.0437 40.7207 77.9018 41.2404 78.5014 41.954C79.1129 42.6663 79.4666 43.5182 79.5626 44.5096ZM72.0567 42.0717C70.7787 42.1955 69.776 42.4855 69.0486 42.9418C68.32 43.3861 67.8716 43.9841 67.7032 44.7358L76.7867 43.8561C76.5058 43.1961 75.964 42.706 75.1614 42.3859C74.3577 42.0539 73.3228 41.9491 72.0567 42.0717ZM86.9943 49.1247C85.9194 49.2288 84.9532 49.0872 84.0959 48.7001C83.2375 48.301 82.5473 47.7108 82.0256 46.9294C81.5146 46.135 81.2083 45.2122 81.1065 44.1611L80.6762 39.7179L83.3994 39.4542L83.8141 43.7361C83.88 44.4169 84.0693 45.0014 84.3818 45.4896C84.7051 45.9646 85.1189 46.3164 85.6233 46.5448C86.1265 46.7613 86.6827 46.8401 87.2918 46.7811C87.9249 46.7198 88.4914 46.5323 88.9915 46.2186C89.5024 45.8919 89.8829 45.4632 90.1329 44.9326C90.3948 44.4009 90.4934 43.8006 90.4287 43.1317L90.0105 38.8139L92.7337 38.5502L93.6499 48.0099L91.697 48.199L91.0537 46.5976C90.6981 47.2831 90.1566 47.8539 89.4292 48.3102C88.7018 48.7664 87.8902 49.0379 86.9943 49.1247ZM96.5441 51.4369L95.2722 38.3043L97.2609 38.1117L97.9817 39.5791C99.3356 38.1218 101.225 37.2757 103.649 37.0409C104.916 36.9183 106.048 37.0317 107.046 37.3811C108.055 37.7174 108.861 38.2542 109.463 38.9917C110.063 39.7171 110.413 40.5875 110.511 41.6027C110.609 42.618 110.434 43.5452 109.985 44.3844C109.536 45.2236 108.849 45.911 107.924 46.4467C107.01 46.9692 105.92 47.2918 104.654 47.4144C102.301 47.6423 100.341 47.1991 98.7746 46.085L99.2673 51.1732L96.5441 51.4369ZM103.67 45.2853C105.127 45.1442 106.201 44.781 106.892 44.1957C107.595 43.6092 107.9 42.8322 107.806 41.8647C107.712 40.8973 107.264 40.1932 106.462 39.7524C105.672 39.3106 104.548 39.1602 103.091 39.3013C101.514 39.454 100.309 39.8359 99.4764 40.4471C98.6553 41.057 98.2905 41.8338 98.3819 42.7774C98.4733 43.721 98.9804 44.4133 99.9032 44.8544C100.838 45.2944 102.094 45.438 103.67 45.2853Z" fill="black"/>
</svg>
