<svg width="153" height="55" viewBox="0 0 153 55" fill="none" xmlns="http://www.w3.org/2000/svg">
<path d="M0.987305 30.2681L47.4127 27.5674L22.1412 38.0522L149.487 16.7676" stroke="white" stroke-width="34"/>
<path d="M19.47 35.2926L16.6034 35.5702L15.6179 25.3938L9.00682 26.0341L8.76911 23.5796L24.8399 22.0232L25.0776 24.4777L18.4845 25.1162L19.47 35.2926ZM30.5216 24.2217C31.6563 24.1118 32.6614 24.2194 33.5368 24.5446C34.411 24.8578 35.1038 25.3513 35.6152 26.0251C36.1265 26.699 36.4261 27.4898 36.514 28.3975L37.0172 33.5932L35.0465 33.7841L34.4175 32.1451C33.9483 32.9018 33.3076 33.5064 32.4954 33.9588C31.694 34.3981 30.7678 34.6686 29.7167 34.7704C28.809 34.8583 27.9894 34.7991 27.2581 34.5926C26.528 34.3981 25.9421 34.075 25.5005 33.6235C25.0589 33.172 24.8069 32.6237 24.7445 31.9787C24.6496 30.9993 24.9751 30.1902 25.721 29.5513C26.4777 28.8993 27.6204 28.4993 29.1493 28.3512L33.7 27.9105C33.5347 27.3237 33.1713 26.8706 32.6099 26.5513C32.0604 26.2307 31.3736 26.1104 30.5495 26.1902C29.0684 26.3336 28.0484 26.8182 27.4894 27.6439L24.9412 27.4748C25.3345 26.5566 26.0049 25.8226 26.9523 25.2727C27.9105 24.7097 29.1003 24.3594 30.5216 24.2217ZM29.9703 32.7204C31.1886 32.6025 32.1514 32.2741 32.8588 31.7354C33.5769 31.1836 33.9265 30.4987 33.9076 29.6807L29.2315 30.1336C28.5507 30.1995 28.0648 30.3491 27.7739 30.5822C27.4819 30.8034 27.3555 31.117 27.3949 31.5231C27.4411 32.0009 27.6849 32.339 28.126 32.5374C28.5672 32.7358 29.182 32.7968 29.9703 32.7204ZM51.8563 32.1561L48.1297 32.517L42.8812 29.3L41.8421 29.4006L42.1995 33.0913L39.4762 33.3551L38.5601 23.8953L41.2833 23.6316L41.6269 27.179L42.5944 27.0853L47.0344 23.0746L50.4564 22.7432L44.7502 27.8712L51.8563 32.1561ZM67.0763 31.1523C64.6636 31.386 62.7802 31.1102 61.4262 30.3251C60.083 29.5268 59.3316 28.3036 59.172 26.6553C59.0135 25.019 59.518 23.6921 60.6853 22.6749C61.8635 21.6445 63.6589 21.0125 66.0717 20.7788C68.4844 20.5452 70.3617 20.8215 71.7038 21.6078C73.0566 22.381 73.8123 23.5858 73.9707 25.2221C74.1304 26.8704 73.6217 28.2157 72.4447 29.258C71.2785 30.2872 69.489 30.9186 67.0763 31.1523ZM66.8629 28.9486C68.4753 28.7925 69.6449 28.42 70.3715 27.8312C71.097 27.2305 71.4128 26.4464 71.3191 25.4789C71.2266 24.5234 70.7613 23.827 69.9233 23.3897C69.0972 22.9513 67.8838 22.8096 66.2833 22.9646C64.6828 23.1196 63.5133 23.4921 62.7747 24.082C62.0481 24.6708 61.731 25.443 61.8236 26.3985C61.9173 27.366 62.3778 28.0749 63.205 28.5252C64.0311 28.9636 65.2504 29.1048 66.8629 28.9486ZM82.9283 29.6171C80.5037 29.8519 78.6143 29.5768 77.2603 28.7916C75.9171 27.9934 75.1657 26.7701 75.0061 25.1218C74.8476 23.4855 75.3521 22.1587 76.5195 21.1414C77.6976 20.111 79.4931 19.479 81.9058 19.2454C83.6735 19.0742 85.1758 19.212 86.4126 19.6589C87.6602 20.0926 88.5875 20.8287 89.1944 21.867L86.6007 22.5341C85.726 21.5941 84.2495 21.2247 82.1712 21.4259C80.5468 21.5832 79.3653 21.9569 78.6267 22.5468C77.8882 23.1368 77.5652 23.9095 77.6577 24.865C77.7514 25.8325 78.2119 26.5414 79.0391 26.9918C79.8772 27.429 81.1024 27.5696 82.7149 27.4134C83.8615 27.3024 84.781 27.0867 85.4734 26.7665C86.1646 26.4343 86.65 26.0316 86.9297 25.5585L89.5871 25.7351C89.1765 26.8479 88.4239 27.7286 87.3293 28.3771C86.2466 29.0245 84.7797 29.4378 82.9283 29.6171ZM98.1391 27.6738L95.4338 27.9358L94.738 20.7514L89.829 21.2268L89.6086 18.9515L102.132 17.7386L102.352 20.014L97.4433 20.4894L98.1391 27.6738ZM104.971 30.7195L103.699 17.5869L105.687 17.3943L106.408 18.8617C107.762 17.4044 109.651 16.5583 112.076 16.3235C113.342 16.2009 114.474 16.3143 115.473 16.6637C116.482 17 117.287 17.5368 117.889 18.2742C118.49 18.9997 118.839 19.8701 118.938 20.8853C119.036 21.9006 118.86 22.8278 118.411 23.667C117.962 24.5062 117.275 25.1936 116.35 25.7293C115.437 26.2518 114.347 26.5744 113.081 26.697C110.728 26.9248 108.768 26.4817 107.201 25.3675L107.694 30.4557L104.971 30.7195ZM112.097 24.5679C113.554 24.4268 114.628 24.0636 115.319 23.4782C116.021 22.8918 116.326 22.1148 116.232 21.1473C116.139 20.1798 115.691 19.4757 114.888 19.035C114.098 18.5931 112.974 18.4428 111.517 18.5839C109.941 18.7366 108.736 19.1185 107.903 19.7296C107.082 20.3396 106.717 21.1164 106.808 22.06C106.9 23.0036 107.407 23.6959 108.33 24.137C109.264 24.577 110.52 24.7206 112.097 24.5679ZM127.876 25.2641C125.463 25.4978 123.58 25.222 122.226 24.4369C120.883 23.6387 120.131 22.4154 119.972 20.7671C119.813 19.1308 120.317 17.804 121.485 16.7867C122.663 15.7563 124.458 15.1243 126.871 14.8906C129.284 14.657 131.161 14.9333 132.503 15.7196C133.856 16.4928 134.612 17.6976 134.77 19.3339C134.93 20.9822 134.421 22.3275 133.244 23.3698C132.078 24.399 130.289 25.0304 127.876 25.2641ZM127.662 23.0604C129.275 22.9043 130.444 22.5318 131.171 21.943C131.896 21.3423 132.212 20.5582 132.119 19.5907C132.026 18.6352 131.561 17.9388 130.723 17.5015C129.897 17.0631 128.683 16.9214 127.083 17.0764C125.482 17.2314 124.313 17.6039 123.574 18.1938C122.848 18.7826 122.531 19.5548 122.623 20.5103C122.717 21.4778 123.177 22.1867 124.005 22.637C124.831 23.0755 126.05 23.2166 127.662 23.0604Z" fill="black"/>
</svg>
