<svg width="149" height="52" viewBox="0 0 149 52" fill="none" xmlns="http://www.w3.org/2000/svg">
<path d="M146.055 16.7697L83.006 27.2547L108.278 16.7698L2.89999 35.0126" stroke="white" stroke-width="34"/>
<path d="M15.8774 36.6439L13.0288 36.9198L11.8055 24.2889L14.6542 24.013L15.8774 36.6439ZM26.9725 33.2004L26.9489 35.5717L23.4374 35.9118C22.2191 36.0298 21.2937 35.8119 20.6614 35.2583C20.0411 34.7035 19.6673 33.7692 19.54 32.4554L19.2121 29.0692L16.8292 29.3L16.6089 27.0246L18.9917 26.7938L19.5019 24.0318L21.4547 23.8427L21.715 26.5301L26.0328 26.1119L26.2531 28.3873L21.9353 28.8055L22.2598 32.1558C22.3153 32.7291 22.4729 33.1117 22.7327 33.3036C23.0031 33.4823 23.4609 33.5405 24.1059 33.478L26.9725 33.2004ZM31.4781 27.0313L29.4894 27.2239L28.7927 22.6438L31.2651 22.4043L31.4781 27.0313ZM40.2782 34.751C38.7493 34.8991 37.3964 34.7468 36.2192 34.2941C35.041 33.8295 34.196 33.1338 33.6842 32.2068L36.0433 31.5443C36.4013 32.0039 36.9591 32.3477 37.7166 32.5758C38.4849 32.7907 39.3229 32.8542 40.2307 32.7663C41.1981 32.6726 41.9001 32.5142 42.3366 32.2911C42.772 32.056 42.9752 31.7892 42.9463 31.4906C42.9232 31.2517 42.7972 31.071 42.5683 30.9485C42.3383 30.8141 41.9786 30.7103 41.4893 30.6371C40.9988 30.552 40.3047 30.4806 39.4069 30.4228C38.12 30.3304 37.1061 30.1935 36.3652 30.0121C35.6242 29.8307 35.068 29.5651 34.6966 29.2153C34.3371 28.8643 34.1284 28.3902 34.0706 27.793C33.9803 26.8613 34.3773 26.1055 35.2615 25.5256C36.1446 24.9337 37.4282 24.5562 39.1123 24.3931C40.4859 24.2601 41.6992 24.4018 42.7522 24.8182C43.8041 25.2227 44.5967 25.8754 45.13 26.7762L42.7172 27.4439C42.3962 26.9927 41.9249 26.6706 41.3034 26.4776C40.6819 26.2846 39.977 26.2263 39.1887 26.3027C37.4449 26.4715 36.6048 26.8845 36.6684 27.5414C36.6904 27.7683 36.8224 27.9484 37.0643 28.0817C37.3063 28.215 37.6905 28.3225 38.2168 28.4041C38.7419 28.4738 39.5018 28.5389 40.4962 28.5993C41.7103 28.6867 42.6699 28.8228 43.375 29.0077C44.0789 29.1807 44.5981 29.4378 44.9326 29.7792C45.279 30.1194 45.48 30.5761 45.5355 31.1494C45.6269 32.093 45.2453 32.8835 44.3908 33.5208C43.5362 34.1582 42.1654 34.5682 40.2782 34.751ZM59.3694 32.4319L56.5924 32.7008L55.3691 20.0699L60.0811 19.6136L66.4386 29.0527L67.0477 28.9937L71.5653 18.5014L76.2056 18.052L77.4289 30.6829L74.6519 30.9518L73.6871 20.9904L73.1676 21.0408L68.5604 31.5418L65.3534 31.8524L58.9242 22.4202L58.4046 22.4705L59.3694 32.4319ZM85.2322 19.9266C86.3669 19.8167 87.3719 19.9243 88.2473 20.2495C89.1216 20.5627 89.8144 21.0562 90.3257 21.73C90.8371 22.4039 91.1367 23.1947 91.2246 24.1024L91.7278 29.2981L89.757 29.489L89.1281 27.85C88.6589 28.6067 88.0182 29.2113 87.206 29.6637C86.4046 30.103 85.4784 30.3735 84.4273 30.4753C83.5195 30.5632 82.7 30.504 81.9687 30.2975C81.2385 30.103 80.6527 29.7799 80.2111 29.3284C79.7695 28.8769 79.5175 28.3286 79.455 27.6836C79.3602 26.7042 79.6857 25.8951 80.4316 25.2562C81.1883 24.6042 82.331 24.2042 83.8599 24.0561L88.4106 23.6154C88.2452 23.0286 87.8819 22.5755 87.3205 22.2562C86.771 21.9356 86.0842 21.8153 85.2601 21.8951C83.779 22.0385 82.759 22.5231 82.2 23.3488L79.6518 23.1797C80.0451 22.2615 80.7155 21.5275 81.6629 20.9776C82.6211 20.4146 83.8108 20.0643 85.2322 19.9266ZM84.6809 28.4253C85.8992 28.3073 86.862 27.979 87.5694 27.4403C88.2875 26.8885 88.6371 26.2036 88.6182 25.3856L83.9421 25.8385C83.2612 25.9044 82.7754 26.054 82.4845 26.2871C82.1925 26.5083 82.0661 26.8219 82.1054 27.228C82.1517 27.7058 82.3954 28.0439 82.8366 28.2423C83.2778 28.4407 83.8925 28.5017 84.6809 28.4253ZM94.1868 29.06L93.2707 19.6002L95.2235 19.4111L95.9206 21.0073C96.2966 20.2837 96.8017 19.7104 97.4359 19.2873C98.082 18.863 98.853 18.6075 99.7488 18.5207C100.657 18.4328 101.476 18.5524 102.207 18.8795C102.95 19.2054 103.552 19.6956 104.013 20.3502C104.468 19.5707 105.036 18.9611 105.717 18.5215C106.408 18.0687 107.262 17.7931 108.277 17.6948C109.256 17.6 110.131 17.7323 110.901 18.0917C111.684 18.45 112.316 19.0036 112.798 19.7526C113.28 20.4896 113.57 21.3717 113.669 22.3989L114.128 27.1288L111.422 27.3908L110.98 22.8222C110.891 21.9025 110.556 21.1874 109.976 20.6769C109.396 20.1664 108.664 19.954 107.781 20.0396C106.873 20.1275 106.172 20.4847 105.678 21.1112C105.183 21.7258 104.979 22.487 105.067 23.3947L105.51 27.9634L102.787 28.2271L102.344 23.6585C102.255 22.7388 101.921 22.0237 101.341 21.5132C100.773 21.0016 100.053 20.788 99.1808 20.8724C98.2731 20.9603 97.5722 21.3176 97.0783 21.9441C96.5833 22.5587 96.3803 23.3258 96.4693 24.2455L96.9101 28.7962L94.1868 29.06ZM119.412 26.617L116.689 26.8807L115.773 17.421L118.496 17.1572L119.412 26.617ZM117.02 16.1066C116.566 16.1506 116.164 16.0389 115.812 15.7715C115.472 15.491 115.28 15.1298 115.237 14.6879C115.193 14.234 115.312 13.8427 115.594 13.5141C115.887 13.1842 116.261 12.9973 116.715 12.9534C117.169 12.9094 117.565 13.0217 117.905 13.2902C118.256 13.5576 118.454 13.9182 118.498 14.3721C118.541 14.814 118.416 15.2059 118.123 15.5477C117.842 15.8764 117.474 16.0627 117.02 16.1066ZM123.85 26.1872L120.608 26.5012L124.928 21.0734L120.283 16.9842L123.328 16.6892L126.582 19.6654L127.012 19.6238L129.689 16.0733L132.752 15.7766L128.96 20.683L134.17 25.1877L130.945 25.5001L127.296 22.1823L126.848 22.2257L123.85 26.1872Z" fill="black"/>
</svg>
