<svg width="32" height="32" viewBox="0 0 32 32" fill="none" xmlns="http://www.w3.org/2000/svg">
<path opacity="0.12" d="M16 32C24.8366 32 32 24.8366 32 16C32 7.16344 24.8366 0 16 0C7.16344 0 0 7.16344 0 16C0 24.8366 7.16344 32 16 32Z" fill="#A8A8A8"/>
<path d="M22.3154 9.68485C22.784 10.1535 22.784 10.9133 22.3154 11.3819L17.6975 16L22.3154 20.6182C22.745 21.0478 22.7807 21.722 22.4228 22.1924L22.3154 22.3153C21.8467 22.7839 21.0869 22.7839 20.6183 22.3153L16.0002 17.6974L11.382 22.3153C10.9134 22.7839 10.1536 22.7839 9.68497 22.3153C9.21634 21.8466 9.21634 21.0868 9.68497 20.6182L14.3028 16L9.68497 11.3819C9.25539 10.9523 9.21959 10.2781 9.57757 9.80773L9.68497 9.68485C10.1536 9.21622 10.9134 9.21622 11.382 9.68485L16.0002 14.3027L20.6183 9.68485C21.0869 9.21622 21.8467 9.21622 22.3154 9.68485Z" fill="#A8A8A8"/>
</svg>
