<svg width="36" height="36" viewBox="0 0 36 36" fill="none" xmlns="http://www.w3.org/2000/svg">
<path d="M36 18C36 27.9411 27.9411 36 18 36C8.05887 36 0 27.9411 0 18C0 8.05887 8.05887 0 18 0C27.9411 0 36 8.05887 36 18Z" fill="white"/>
<path fill-rule="evenodd" clip-rule="evenodd" d="M18 8.75C18.6904 8.75 19.25 9.30964 19.25 10V16.75H26C26.6904 16.75 27.25 17.3096 27.25 18C27.25 18.6904 26.6904 19.25 26 19.25H19.25V26C19.25 26.6904 18.6904 27.25 18 27.25C17.3096 27.25 16.75 26.6904 16.75 26V19.25H10C9.30964 19.25 8.75 18.6904 8.75 18C8.75 17.3096 9.30964 16.75 10 16.75H16.75V10C16.75 9.30964 17.3096 8.75 18 8.75Z" fill="#0077FF"/>
</svg>
