<svg width="142" height="49" viewBox="0 0 142 49" fill="none" xmlns="http://www.w3.org/2000/svg">
<path d="M139.987 21.2877L78.4377 27.3021L103.709 16.8173L2.48706 31.7881" stroke="white" stroke-width="34"/>
<path d="M19.9882 28.8339L29.7167 27.8917L29.7913 28.6621C29.9197 29.9879 29.692 31.1855 29.1084 32.2547C28.5236 33.312 27.5357 34.1913 26.1449 34.8927C24.7648 35.5809 22.9819 36.0309 20.7961 36.2425C18.7895 36.4369 17.05 36.3401 15.5778 35.9522C14.1044 35.5524 12.9483 34.8807 12.1094 33.9372C11.2825 32.9925 10.7996 31.8035 10.6608 30.3702C10.5232 28.9488 10.7754 27.6947 11.4177 26.6077C12.0599 25.5207 13.0662 24.6457 14.4367 23.9825C15.8179 23.3062 17.5238 22.8697 19.5543 22.673C21.6923 22.466 23.5635 22.6163 25.1679 23.124C26.7711 23.6198 27.9531 24.4336 28.7138 25.5656L25.5536 26.3599C24.9822 25.8124 24.1798 25.432 23.1464 25.2186C22.1238 24.9922 21.0033 24.9379 19.785 25.0559C17.6112 25.2664 16.0065 25.8137 14.9709 26.6976C13.9353 27.5816 13.484 28.7103 13.617 30.0839C13.7512 31.4694 14.4053 32.4971 15.5793 33.1671C16.7653 33.8359 18.4273 34.0667 20.5653 33.8597C22.4286 33.6792 23.8931 33.3023 24.9588 32.7289C26.0233 32.1436 26.6788 31.3808 26.9254 30.4407L20.2068 31.0914L19.9882 28.8339ZM45.3607 33.3934L32.5148 34.6374L31.2915 22.0065L43.8866 20.7867L44.1121 23.1159L34.312 24.065L34.5844 26.8778L43.5067 26.0137L43.7253 28.2712L34.803 29.1352L35.0841 32.0377L45.1351 31.0643L45.3607 33.3934ZM62.264 31.7563L58.8599 32.086L54.1078 28.206L50.2917 28.5756L50.7081 32.8755L47.8415 33.1531L46.6182 20.5222L54.3222 19.7761C56.3049 19.5841 57.8463 19.8146 58.9464 20.4676C60.0584 21.1194 60.6757 22.0784 60.7983 23.3445C60.8966 24.3597 60.6449 25.2461 60.0431 26.0036C59.4533 26.76 58.5256 27.3261 57.2599 27.7018L62.264 31.7563ZM49.7104 22.5737L50.0678 26.2644L55.2993 25.7578C56.1952 25.671 56.8598 25.4379 57.2932 25.0583C57.7255 24.6668 57.9144 24.1904 57.8601 23.629C57.8069 23.0796 57.5312 22.6602 57.0329 22.3709C56.5347 22.0816 55.8377 21.9803 54.9419 22.067L49.7104 22.5737ZM80.1235 30.0267L77.0598 30.3234L75.4391 27.9667L66.3019 28.8516L65.1456 31.4773L62.0819 31.774L68.1505 18.4369L71.7696 18.0864L80.1235 30.0267ZM69.8481 20.8404L67.3553 26.471L73.9843 25.829L70.529 20.7745L69.8481 20.8404ZM87.2931 29.8026C85.4418 29.9819 83.8345 29.818 82.4713 29.3111C81.108 28.8041 80.0802 27.9633 79.3877 26.7886L82.2953 26.0006C82.6757 26.5666 83.2958 26.9948 84.1558 27.2853C85.0266 27.5626 86.0413 27.6452 87.1999 27.533C88.3704 27.4196 89.198 27.1888 89.6827 26.8404C90.1793 26.4909 90.4045 26.0773 90.3582 25.5995C90.327 25.277 90.194 25.0247 89.9594 24.8424C89.7236 24.6483 89.3169 24.4948 88.7393 24.3819C88.1617 24.2691 87.3077 24.1649 86.1773 24.0694C84.8283 23.9589 83.7165 23.8074 82.8419 23.6148C81.9792 23.4211 81.2542 23.0934 80.667 22.6319C80.0906 22.1572 79.7613 21.4959 79.6792 20.6479C79.6028 19.8596 79.7883 19.1604 80.2356 18.5505C80.6937 17.9274 81.3746 17.4274 82.2785 17.0506C83.1932 16.6606 84.2776 16.4049 85.5317 16.2834C87.1561 16.1261 88.5771 16.2959 89.7947 16.7928C91.0111 17.2778 91.9276 18.027 92.5441 19.0403L89.8839 19.7681C89.4735 19.2653 88.9092 18.9161 88.191 18.7204C87.4836 18.5116 86.6521 18.4535 85.6966 18.546C84.5858 18.6536 83.7749 18.8708 83.2641 19.1976C82.764 19.5112 82.5365 19.901 82.5816 20.3668C82.6117 20.6773 82.7446 20.9297 82.9804 21.1239C83.2151 21.3061 83.6152 21.4542 84.1809 21.5682C84.7465 21.6822 85.5575 21.7785 86.614 21.857C88.1086 21.9775 89.2932 22.134 90.1678 22.3266C91.0544 22.5181 91.7669 22.8409 92.3052 23.2951C92.8542 23.7362 93.1693 24.3749 93.2502 25.2109C93.3266 25.9993 93.1374 26.7229 92.6828 27.3817C92.2271 28.0287 91.5376 28.5656 90.6145 28.9926C89.6902 29.4077 88.5831 29.6776 87.2931 29.8026ZM108.575 27.2713L95.7288 28.5154L94.5055 15.8845L107.101 14.6647L107.326 16.9938L97.526 17.9429L97.7984 20.7558L106.721 19.8917L106.939 22.1491L98.017 23.0132L98.2981 25.9156L108.349 24.9422L108.575 27.2713ZM119.665 26.1972L116.064 26.546L107.854 14.5918L110.917 14.2951L117.305 23.8579L117.986 23.792L122.545 13.169L125.591 12.874L119.665 26.1972Z" fill="black"/>
</svg>
