<svg width="186" height="76" viewBox="0 0 186 76" fill="none" xmlns="http://www.w3.org/2000/svg">
<path d="M1.3468 38.1962L66.7722 32.996L41.5007 43.4808L181.347 16.6964" stroke="white" stroke-width="34"/>
<path d="M141.346 46.1966L101.797 52.7116L127.068 42.2267L39.8467 58.6965" stroke="white" stroke-width="34"/>
<path d="M10.5343 42.4614L9.31105 29.8305L22.2644 28.576L22.49 30.9051L12.4032 31.882L12.6079 33.9961L17.8574 33.4877C19.8162 33.298 21.3189 33.5021 22.3654 34.1C23.4108 34.686 23.9982 35.6478 24.1278 36.9856C24.2596 38.3472 23.8694 39.4218 22.9571 40.2094C22.0447 40.997 20.6092 41.4857 18.6503 41.6754L10.5343 42.4614ZM18.8548 39.3046C19.655 39.2271 20.2551 39.0123 20.655 38.6601C21.0657 38.2948 21.2439 37.8315 21.1895 37.2701C21.134 36.6968 20.8762 36.2757 20.4161 36.0068C19.9549 35.7259 19.3182 35.6248 18.506 35.7035L12.8266 36.2535L13.1753 39.8547L18.8548 39.3046ZM39.9362 34.7493C39.964 35.0359 39.9624 35.3315 39.9316 35.6358L28.1965 36.7723C28.4713 37.4932 29.0231 38.0245 29.8519 38.3662C30.6926 38.7067 31.7819 38.8122 33.1196 38.6827C34.1826 38.5797 35.0083 38.3913 35.5967 38.1173C36.1838 37.8313 36.6232 37.4512 36.9149 36.9769L39.6278 37.1663C39.1709 38.175 38.4292 38.9823 37.4028 39.588C36.3753 40.1818 34.9896 40.5632 33.2458 40.7321C31.693 40.8824 30.3464 40.7958 29.2059 40.4723C28.0654 40.1487 27.1769 39.6259 26.5403 38.9039C25.9037 38.1819 25.5346 37.2954 25.4328 36.2443C25.3321 35.2052 25.5189 34.2708 25.9932 33.4412C26.4794 32.6105 27.2451 31.9275 28.2904 31.3922C29.3476 30.8558 30.6645 30.5113 32.2411 30.3586C33.8297 30.2048 35.1829 30.2967 36.3006 30.6346C37.4172 30.9605 38.2753 31.4802 38.8749 32.1937C39.4864 32.9061 39.8402 33.7579 39.9362 34.7493ZM32.4303 32.3115C31.1522 32.4352 30.1495 32.7252 29.4221 33.1815C28.6935 33.6258 28.2451 34.2238 28.0768 34.9755L37.1603 34.0958C36.8794 33.4358 36.3376 32.9458 35.535 32.6256C34.7312 32.2936 33.6963 32.1889 32.4303 32.3115ZM49.7806 33.7959C50.535 33.8675 51.148 34.0975 51.6197 34.4858C52.1021 34.8611 52.3699 35.3234 52.4231 35.8728C52.5145 36.8164 52.1258 37.5955 51.257 38.2101C50.387 38.8128 49.0503 39.2015 47.2467 39.3761C45.6462 39.5311 44.3026 39.4141 43.2161 39.025C42.1415 38.6348 41.3506 38.0001 40.8435 37.1209L43.3459 36.4445C44.0037 37.2609 45.2164 37.5835 46.9842 37.4123C47.9516 37.3186 48.6764 37.1459 49.1584 36.8943C49.6392 36.6307 49.8611 36.3078 49.8241 35.9256C49.7905 35.5792 49.543 35.3259 49.0814 35.1657C48.6198 35.0054 47.9829 34.9646 47.1707 35.0433L44.8057 35.2723L44.6149 33.3015L46.9798 33.0725C48.5325 32.9221 49.2754 32.5006 49.2083 31.8078C49.1759 31.4734 48.9229 31.2266 48.4494 31.0675C47.9758 30.9084 47.327 30.8688 46.5029 30.9486C44.974 31.0967 43.9068 31.5918 43.3011 32.4341L40.7333 32.2488C41.1159 31.3437 41.7982 30.6085 42.7802 30.0432C43.7623 29.4779 44.9342 29.1293 46.2958 28.9975C47.9322 28.839 49.2297 28.9786 50.1883 29.4162C51.1589 29.8527 51.687 30.5128 51.7726 31.3967C51.8258 31.9461 51.6792 32.4245 51.3329 32.8318C50.9865 33.2391 50.4691 33.5604 49.7806 33.7959ZM61.4848 37.5632C58.9288 37.8107 56.9832 37.5772 55.6481 36.8626C54.3118 36.136 53.5708 35.0202 53.4251 33.5153C53.2805 32.0223 53.7948 30.797 54.9679 29.8394C56.1411 28.8819 58.0057 28.2793 60.5617 28.0318L60.2581 24.8965L62.838 24.6466L63.1417 27.7819C65.6977 27.5344 67.6373 27.7685 68.9605 28.4843C70.2956 29.1989 71.0354 30.3028 71.18 31.7958C71.3257 33.3007 70.8126 34.538 69.6406 35.5075C68.4794 36.4638 66.6208 37.0658 64.0647 37.3134L64.417 40.9503L61.837 41.2002L61.4848 37.5632ZM60.7613 30.0922C59.0055 30.2622 57.7608 30.6058 57.0272 31.1229C56.2937 31.64 55.9708 32.3525 56.0587 33.2602C56.1478 34.1799 56.6025 34.8291 57.4228 35.2078C58.242 35.5745 59.5295 35.6729 61.2853 35.5028L60.7613 30.0922ZM63.8652 35.253C65.621 35.0829 66.8597 34.7399 67.5813 34.224C68.3137 33.6949 68.6354 32.9705 68.5463 32.0508C68.4584 31.1431 68.0049 30.5058 67.1857 30.1391C66.3785 29.7712 65.097 29.6723 63.3412 29.8423L63.8652 35.253ZM77.4232 35.9835L73.4458 36.3687L72.5297 26.9089L75.1813 26.6521L75.8597 33.6573L76.3972 33.6053L81.3982 26.05L85.3756 25.6648L86.2917 35.1246L83.6401 35.3814L82.9634 28.3941L82.4439 28.4444L77.4232 35.9835ZM89.6643 25.2495L100.091 24.2397L101.008 33.6994L98.2844 33.9631L97.5886 26.7788L92.375 27.2837L92.4261 30.986C92.4555 32.2852 92.2065 33.2618 91.679 33.9156C91.1636 34.5684 90.3026 34.9532 89.0963 35.07C88.7618 35.1024 88.3642 35.1047 87.9034 35.077L87.4542 32.6791C87.7801 32.6837 88.0685 32.6739 88.3194 32.6496C88.821 32.601 89.1893 32.4207 89.4243 32.1086C89.6713 31.7953 89.787 31.2476 89.7716 30.4654L89.6643 25.2495ZM103.557 33.4525L102.641 23.9928L105.364 23.729L105.61 26.2731L109.588 25.8879C111.057 25.7457 112.216 25.9529 113.066 26.5096C113.916 27.0663 114.391 27.8642 114.491 28.9033C114.592 29.9425 114.273 30.8173 113.534 31.5278C112.807 32.2372 111.715 32.6625 110.258 32.8036L103.557 33.4525ZM110.004 30.7484C110.625 30.6883 111.086 30.5232 111.385 30.253C111.683 29.971 111.811 29.609 111.768 29.167C111.725 28.7251 111.531 28.4003 111.185 28.1927C110.839 27.9731 110.355 27.8934 109.734 27.9535L105.81 28.3335L106.081 31.1284L110.004 30.7484ZM122.416 31.6261L119.71 31.8881L119.015 24.7037L114.106 25.1791L113.885 22.9038L126.409 21.6909L126.629 23.9663L121.72 24.4417L122.416 31.6261ZM129.247 34.6718L127.975 21.5392L129.964 21.3466L130.685 22.814C132.039 21.3567 133.928 20.5106 136.353 20.2758C137.619 20.1532 138.751 20.2666 139.749 20.616C140.758 20.9523 141.564 21.4891 142.166 22.2265C142.766 22.952 143.116 23.8224 143.214 24.8376C143.313 25.8529 143.137 26.7801 142.688 27.6193C142.239 28.4585 141.552 29.1459 140.627 29.6816C139.713 30.2041 138.623 30.5267 137.357 30.6493C135.004 30.8772 133.044 30.434 131.478 29.3198L131.97 34.408L129.247 34.6718ZM136.373 28.5202C137.831 28.3791 138.905 28.0159 139.595 27.4305C140.298 26.8441 140.603 26.0671 140.509 25.0996C140.415 24.1322 139.967 23.4281 139.165 22.9873C138.375 22.5455 137.251 22.3951 135.794 22.5362C134.217 22.6889 133.012 23.0708 132.179 23.6819C131.358 24.2919 130.994 25.0687 131.085 26.0123C131.176 26.9559 131.684 27.6482 132.606 28.0893C133.541 28.5293 134.797 28.6729 136.373 28.5202ZM152.152 29.2164C149.74 29.4501 147.856 29.1743 146.502 28.3892C145.159 27.591 144.408 26.3677 144.248 24.7194C144.09 23.0831 144.594 21.7563 145.762 20.739C146.94 19.7086 148.735 19.0766 151.148 18.843C153.561 18.6093 155.438 18.8856 156.78 19.6719C158.133 20.4451 158.888 21.6499 159.047 23.2862C159.207 24.9345 158.698 26.2798 157.521 27.3221C156.355 28.3513 154.565 28.9828 152.152 29.2164ZM151.939 27.0127C153.552 26.8566 154.721 26.4841 155.448 25.8953C156.173 25.2946 156.489 24.5105 156.395 23.543C156.303 22.5875 155.838 21.8911 154.999 21.4538C154.173 21.0154 152.96 20.8737 151.36 21.0287C149.759 21.1837 148.589 21.5562 147.851 22.1461C147.124 22.7349 146.807 23.5071 146.9 24.4626C146.993 25.4301 147.454 26.139 148.281 26.5894C149.107 27.0278 150.327 27.1689 151.939 27.0127ZM170.601 22.0044C171.273 22.0961 171.82 22.3205 172.24 22.6776C172.66 23.0348 172.898 23.494 172.952 24.0554C173.03 24.8557 172.758 25.533 172.136 26.0875C171.514 26.6301 170.557 26.9638 169.267 27.0887L161.295 27.8609L160.378 18.4011L168.011 17.662C169.265 17.5405 170.236 17.6755 170.925 18.0669C171.625 18.4452 172.013 19.0225 172.088 19.7989C172.188 20.838 171.693 21.5732 170.601 22.0044ZM163.216 20.0613L163.396 21.9246L168.18 21.4614C168.646 21.4162 168.978 21.2997 169.177 21.1116C169.386 20.9105 169.478 20.6726 169.451 20.3978C169.425 20.1231 169.29 19.9132 169.047 19.7679C168.814 19.6096 168.465 19.553 167.999 19.5981L163.216 20.0613ZM168.849 25.1943C169.338 25.1468 169.699 25.0154 169.932 24.8C170.176 24.5835 170.283 24.3199 170.253 24.0094C170.224 23.7108 170.076 23.484 169.807 23.3292C169.55 23.1612 169.165 23.1021 168.651 23.1518L163.563 23.6446L163.761 25.687L168.849 25.1943ZM62.0157 64.2905L59.1312 64.5699L65.5532 47.0392L68.4556 46.7581L62.0157 64.2905ZM98.1195 57.0867L79.4509 58.8947L78.5347 49.435L81.258 49.1712L81.9486 56.3019L87.198 55.7935L86.5074 48.6628L89.2307 48.3991L89.9213 55.5297L95.1707 55.0214L94.4801 47.8907L97.2034 47.627L98.1195 57.0867ZM107.348 56.6631C104.936 56.8968 103.052 56.6211 101.698 55.8359C100.355 55.0377 99.6037 53.8144 99.4441 52.1661C99.2856 50.5298 99.79 49.203 100.957 48.1857C102.136 47.1553 103.931 46.5233 106.344 46.2897C108.756 46.056 110.634 46.3323 111.976 47.1186C113.329 47.8918 114.084 49.0966 114.243 50.7329C114.402 52.3812 113.894 53.7265 112.717 54.7688C111.551 55.798 109.761 56.4295 107.348 56.6631ZM107.135 54.4594C108.747 54.3033 109.917 53.9308 110.644 53.342C111.369 52.7413 111.685 51.9572 111.591 50.9897C111.499 50.0342 111.033 49.3378 110.195 48.9005C109.369 48.4621 108.156 48.3204 106.555 48.4754C104.955 48.6304 103.785 49.0029 103.047 49.5929C102.32 50.1816 102.003 50.9538 102.096 51.9093C102.189 52.8768 102.65 53.5857 103.477 54.0361C104.303 54.4745 105.522 54.6156 107.135 54.4594ZM125.289 44.907L128.138 44.6311L123.251 55.6113C122.935 56.3291 122.61 56.897 122.277 57.3151C121.945 57.7451 121.525 58.0752 121.017 58.3052C120.52 58.5341 119.878 58.6867 119.09 58.7631L117.012 58.9644L116.569 56.6382L119.006 56.4022C119.496 56.3548 119.852 56.2418 120.076 56.0634C120.313 55.8958 120.531 55.5914 120.729 55.1502L120.787 55L113.93 46.007L116.833 45.726L121.622 52.0437L122.177 51.9899L125.289 44.907Z" fill="black"/>
</svg>
