<svg width="163" height="50" viewBox="0 0 163 50" fill="none" xmlns="http://www.w3.org/2000/svg">
<path d="M161.276 21.3174L95.227 27.3318L120.498 16.8469L2.27637 32.8179" stroke="white" stroke-width="34"/>
<path d="M17.3967 25.0078L30.1351 23.7742L31.3583 36.4051L28.4917 36.6827L27.5062 26.5063L20.286 27.2055L20.3864 32.9104C20.4146 34.5714 20.0776 35.8218 19.3752 36.6614C18.6837 37.4879 17.5376 37.9786 15.9371 38.1336C15.5549 38.1707 15.1692 38.1718 14.7801 38.1372L14.2742 35.5278C14.6838 35.5243 15.0797 35.5041 15.4619 35.467C16.0113 35.4138 16.4344 35.3005 16.731 35.1271C17.0396 34.9526 17.2548 34.6846 17.3765 34.3231C17.509 33.9486 17.568 33.4366 17.5533 32.787L17.3967 25.0078ZM43.0963 25.7198L45.945 25.4439L41.0587 36.4241C40.7424 37.1419 40.4176 37.7099 40.0844 38.1279C39.7523 38.558 39.3321 38.888 38.824 39.118C38.3277 39.347 37.6854 39.4996 36.8971 39.5759L34.8188 39.7772L34.3765 37.451L36.8131 37.215C37.3029 37.1676 37.6596 37.0547 37.8835 36.8763C38.1204 36.7086 38.3381 36.4042 38.5365 35.9631L38.5943 35.8128L31.7375 26.8199L34.6399 26.5388L39.4292 32.8565L39.9846 32.8028L43.0963 25.7198ZM56.6404 28.0069L56.2951 24.4416L59.0183 24.1778L59.9345 33.6376L57.2112 33.9013L56.8538 30.2106L50.1531 30.8595L50.5106 34.5502L47.7873 34.814L46.8712 25.3542L49.5944 25.0905L49.9397 28.6558L56.6404 28.0069ZM69.1762 33.2127C66.7635 33.4464 64.8801 33.1707 63.5261 32.3855C62.1829 31.5873 61.4315 30.364 61.2719 28.7157C61.1134 27.0794 61.6179 25.7526 62.7853 24.7353C63.9634 23.705 65.7589 23.0729 68.1716 22.8393C70.5843 22.6056 72.4617 22.8819 73.8037 23.6682C75.1565 24.4414 75.9122 25.6462 76.0707 27.2825C76.2303 28.9308 75.7216 30.2761 74.5446 31.3184C73.3784 32.3476 71.5889 32.9791 69.1762 33.2127ZM68.9628 31.0091C70.5752 30.8529 71.7448 30.4804 72.4714 29.8916C73.1969 29.2909 73.5128 28.5068 73.4191 27.5393C73.3265 26.5838 72.8612 25.8874 72.0232 25.4502C71.1971 25.0117 69.9838 24.87 68.3832 25.025C66.7827 25.1801 65.6132 25.5525 64.8746 26.1425C64.148 26.7313 63.831 27.5034 63.9235 28.4589C64.0172 29.4264 64.4777 30.1353 65.3049 30.5857C66.131 31.0241 67.3503 31.1652 68.9628 31.0091ZM80.9161 31.6056L78.3183 31.8572L77.4022 22.3974L81.505 22.0001L85.8163 28.7982L86.3001 28.7513L89.3164 21.2436L93.3655 20.8514L94.2816 30.3112L91.7017 30.561L91.0111 23.4304L90.617 23.4686L87.5989 30.9584L84.9294 31.2169L80.6197 24.4368L80.2256 24.4749L80.9161 31.6056ZM103.539 29.8849C101.126 30.1185 99.2428 29.8428 97.8888 29.0576C96.5456 28.2594 95.7942 27.0361 95.6346 25.3878C95.4761 23.7515 95.9805 22.4247 97.1479 21.4074C98.3261 20.3771 100.122 19.745 102.534 19.5114C104.947 19.2777 106.824 19.554 108.166 20.3403C109.519 21.1135 110.275 22.3183 110.433 23.9546C110.593 25.6029 110.084 26.9482 108.907 27.9905C107.741 29.0198 105.952 29.6512 103.539 29.8849ZM103.325 27.6812C104.938 27.525 106.107 27.1525 106.834 26.5637C107.56 25.963 107.875 25.1789 107.782 24.2114C107.689 23.2559 107.224 22.5595 106.386 22.1223C105.56 21.6839 104.346 21.5422 102.746 21.6972C101.145 21.8522 99.9759 22.2246 99.2373 22.8146C98.5107 23.4034 98.1936 24.1755 98.2862 25.131C98.3799 26.0985 98.8403 26.8074 99.6676 27.2578C100.494 27.6962 101.713 27.8373 103.325 27.6812ZM119.391 28.3496C116.966 28.5845 115.077 28.3093 113.723 27.5242C112.38 26.7259 111.628 25.5027 111.469 23.8544C111.31 22.218 111.815 20.8912 112.982 19.874C114.16 18.8436 115.956 18.2116 118.368 17.9779C120.136 17.8067 121.638 17.9445 122.875 18.3914C124.123 18.8252 125.05 19.5612 125.657 20.5995L123.063 21.2667C122.189 20.3266 120.712 19.9572 118.634 20.1585C117.009 20.3158 115.828 20.6894 115.089 21.2794C114.351 21.8693 114.028 22.642 114.12 23.5976C114.214 24.565 114.674 25.274 115.502 25.7243C116.34 26.1616 117.565 26.3021 119.177 26.146C120.324 26.0349 121.244 25.8193 121.936 25.499C122.627 25.1669 123.113 24.7642 123.392 24.291L126.05 24.4677C125.639 25.5805 124.886 26.4611 123.792 27.1096C122.709 27.757 121.242 28.1703 119.391 28.3496ZM131.95 26.6631L127.973 27.0483L127.057 17.5886L129.708 17.3318L130.387 24.337L130.924 24.285L135.925 16.7297L139.902 16.3445L140.819 25.8043L138.167 26.0611L137.49 19.0738L136.971 19.1241L131.95 26.6631ZM155.749 24.3583L152.023 24.7192L146.774 21.5021L145.735 21.6028L146.093 25.2935L143.369 25.5572L142.453 16.0975L145.177 15.8338L145.52 19.3812L146.488 19.2875L150.928 15.2768L154.35 14.9454L148.643 20.0733L155.749 24.3583Z" fill="black"/>
</svg>
