<svg width="183" height="77" viewBox="0 0 183 77" fill="none" xmlns="http://www.w3.org/2000/svg">
<path d="M11.2788 28.6519L66.2038 32.4513L40.9323 42.9362L168.779 16.6519" stroke="white" stroke-width="34"/>
<path d="M180.278 39.652L101.228 52.1671L126.5 41.6823L3.27807 59.6516" stroke="white" stroke-width="34"/>
<path d="M40.7333 38.937L37.6696 39.2337L36.0489 36.877L26.9116 37.7619L25.7554 40.3876L22.6917 40.6843L28.7603 27.3472L32.3794 26.9967L40.7333 38.937ZM30.4579 29.7507L27.9651 35.3813L34.5941 34.7393L31.1387 29.6848L30.4579 29.7507ZM42.7558 29.1927L53.183 28.1829L54.0992 37.6426L51.3759 37.9063L50.6801 30.722L45.4665 31.2269L45.5177 34.9292C45.547 36.2284 45.298 37.205 44.7706 37.8588C44.2551 38.5116 43.3942 38.8963 42.1878 39.0132C41.8534 39.0456 41.4558 39.0479 40.9949 39.0202L40.5457 36.6223C40.8717 36.6269 41.1601 36.6171 41.4109 36.5928C41.9125 36.5442 42.2809 36.3639 42.5159 36.0518C42.7628 35.7385 42.8786 35.1908 42.8631 34.4086L42.7558 29.1927ZM69.9413 31.2437C69.9691 31.5304 69.9676 31.8259 69.9368 32.1303L58.2017 33.2668C58.4764 33.9876 59.0282 34.5189 59.857 34.8606C60.6978 35.2012 61.787 35.3067 63.1248 35.1771C64.1878 35.0741 65.0135 34.8857 65.6018 34.6117C66.189 34.3258 66.6284 33.9456 66.92 33.4713L69.6329 33.6607C69.176 34.6694 68.4344 35.4767 67.408 36.0824C66.3804 36.6762 64.9947 37.0576 63.2509 37.2265C61.6982 37.3769 60.3515 37.2903 59.211 36.9667C58.0705 36.6431 57.182 36.1203 56.5454 35.3983C55.9089 34.6763 55.5397 33.7898 55.4379 32.7387C55.3373 31.6996 55.5241 30.7652 55.9983 29.9356C56.4845 29.1049 57.2502 28.4219 58.2955 27.8867C59.3527 27.3503 60.6696 27.0057 62.2463 26.853C63.8348 26.6992 65.188 26.7912 66.3058 27.129C67.4224 27.4549 68.2805 27.9746 68.88 28.6881C69.4916 29.4005 69.8453 30.2523 69.9413 31.2437ZM62.4354 28.8059C61.1574 28.9297 60.1547 29.2197 59.4272 29.6759C58.6987 30.1202 58.2502 30.7182 58.0819 31.4699L67.1654 30.5902C66.8845 29.9302 66.3427 29.4402 65.5401 29.1201C64.7364 28.788 63.7015 28.6833 62.4354 28.8059ZM84.5302 34.6955L80.8037 35.0564L75.5551 31.8393L74.516 31.94L74.8734 35.6307L72.1501 35.8944L71.234 26.4347L73.9573 26.171L74.3008 29.7184L75.2683 29.6247L79.7084 25.614L83.1304 25.2826L77.4241 30.4105L84.5302 34.6955ZM91.4224 34.4982C88.9977 34.733 87.1084 34.4578 85.7544 33.6727C84.4112 32.8745 83.6598 31.6512 83.5002 30.0029C83.3417 28.3666 83.8462 27.0398 85.0135 26.0225C86.1917 24.9921 87.9871 24.3601 90.3999 24.1265C92.1676 23.9553 93.6699 24.0931 94.9067 24.5399C96.1543 24.9737 97.0816 25.7097 97.6885 26.7481L95.0947 27.4152C94.22 26.4751 92.7436 26.1057 90.6653 26.307C89.0409 26.4643 87.8594 26.838 87.1208 27.4279C86.3823 28.0178 86.0592 28.7906 86.1518 29.7461C86.2455 30.7136 86.706 31.4225 87.5332 31.8729C88.3713 32.3101 89.5965 32.4507 91.209 32.2945C92.3556 32.1834 93.2751 31.9678 93.9675 31.6476C94.6587 31.3154 95.1441 30.9127 95.4238 30.4396L98.0812 30.6162C97.6706 31.729 96.9179 32.6096 95.8234 33.2582C94.7407 33.9056 93.2737 34.3189 91.4224 34.4982ZM105.047 22.708C106.181 22.5981 107.186 22.7057 108.062 23.0308C108.936 23.344 109.629 23.8375 110.14 24.5114C110.652 25.1852 110.951 25.976 111.039 26.8838L111.542 32.0795L109.571 32.2703L108.943 30.6313C108.473 31.3881 107.833 31.9927 107.02 32.4451C106.219 32.8843 105.293 33.1549 104.242 33.2567C103.334 33.3446 102.514 33.2853 101.783 33.0789C101.053 32.8843 100.467 32.5613 100.026 32.1098C99.5839 31.6582 99.3319 31.11 99.2694 30.465C99.1746 29.4856 99.5001 28.6764 100.246 28.0375C101.003 27.3856 102.145 26.9855 103.674 26.8375L108.225 26.3968C108.06 25.81 107.696 25.3569 107.135 25.0375C106.585 24.717 105.899 24.5966 105.074 24.6765C103.593 24.8199 102.573 25.3045 102.014 26.1302L99.4662 25.961C99.8595 25.0429 100.53 24.3088 101.477 23.7589C102.435 23.1959 103.625 22.8456 105.047 22.708ZM104.495 31.2067C105.714 31.0887 106.676 30.7604 107.384 30.2217C108.102 29.6699 108.452 28.985 108.433 28.167L103.756 28.6199C103.076 28.6858 102.59 28.8353 102.299 29.0685C102.007 29.2896 101.881 29.6033 101.92 30.0094C101.966 30.4871 102.21 30.8252 102.651 31.0236C103.092 31.222 103.707 31.283 104.495 31.2067ZM122.854 25.0342L122.509 21.4689L125.232 21.2052L126.148 30.6649L123.425 30.9287L123.068 27.2379L116.367 27.8869L116.724 31.5776L114.001 31.8413L113.085 22.3816L115.808 22.1178L116.154 25.6832L122.854 25.0342ZM127.985 33.3263L127.487 28.1843L127.702 28.1635C128.323 28.1033 128.799 27.8523 129.13 27.4103C129.46 26.9564 129.625 26.2954 129.625 25.4274L129.556 20.7865L139.965 19.7784L140.656 26.909L142.967 26.6852L143.465 31.8271L140.759 32.0891L140.487 29.2763L130.436 30.2497L130.708 33.0625L127.985 33.3263ZM137.944 27.2982L137.455 22.2458L132.224 22.7525L132.276 25.3515C132.289 25.9772 132.236 26.4887 132.118 26.8859C132.011 27.282 131.839 27.6242 131.602 27.9124L137.944 27.2982ZM145.203 32.5268L143.931 19.3943L145.92 19.2017L146.64 20.669C147.994 19.2117 149.884 18.3657 152.308 18.1309C153.574 18.0083 154.707 18.1216 155.705 18.471C156.714 18.8073 157.519 19.3442 158.121 20.0816C158.722 20.8071 159.072 21.6774 159.17 22.6927C159.268 23.7079 159.093 24.6352 158.644 25.4744C158.194 26.3136 157.507 27.001 156.583 27.5366C155.669 28.0592 154.579 28.3817 153.313 28.5043C150.96 28.7322 149 28.2891 147.433 27.1749L147.926 32.2631L145.203 32.5268ZM152.329 26.3753C153.786 26.2341 154.86 25.8709 155.551 25.2856C156.254 24.6991 156.558 23.9222 156.465 22.9547C156.371 21.9872 155.923 21.2831 155.121 20.8424C154.33 20.4005 153.207 20.2501 151.75 20.3913C150.173 20.5439 148.968 20.9259 148.135 21.537C147.314 22.147 146.949 22.9238 147.041 23.8674C147.132 24.8109 147.639 25.5033 148.562 25.9444C149.497 26.3843 150.752 26.5279 152.329 26.3753ZM20.1123 64.5119C18.0937 64.7074 16.3423 64.6118 14.8581 64.225C13.3847 63.8252 12.2286 63.1535 11.3898 62.21C10.5628 61.2653 10.08 60.0763 9.94117 58.643C9.80352 57.2217 10.0558 55.9675 10.698 54.8805C11.3402 53.7936 12.3466 52.9185 13.717 52.2553C15.0863 51.5802 16.7802 51.1448 18.7988 50.9494C20.9726 50.7388 22.8635 50.9053 24.4714 51.4489C26.0792 51.9924 27.2385 52.8205 27.949 53.9332L24.823 54.7061C24.2361 54.124 23.4314 53.7197 22.4088 53.4932C21.3982 53.2656 20.2598 53.2131 18.9937 53.3357C16.8557 53.5427 15.2689 54.0882 14.2333 54.9722C13.2096 55.855 12.7643 56.9831 12.8973 58.3567C13.0315 59.7422 13.6856 60.77 14.8597 61.4399C16.0457 62.1087 17.7077 62.3396 19.8457 62.1325C21.1595 62.0053 22.3079 61.7253 23.2907 61.2925C24.2724 60.8478 24.9883 60.2721 25.4383 59.5655L28.6724 59.7224C28.2029 60.9735 27.2204 62.0332 25.7252 62.9013C24.2287 63.7576 22.3578 64.2944 20.1123 64.5119ZM37.3798 62.8396C34.9671 63.0733 33.0838 62.7975 31.7298 62.0124C30.3866 61.2141 29.6352 59.9909 29.4755 58.3426C29.317 56.7063 29.8215 55.3794 30.9889 54.3622C32.167 53.3318 33.9625 52.6998 36.3752 52.4661C38.7879 52.2325 40.6653 52.5088 42.0073 53.2951C43.3602 54.0683 44.1158 55.2731 44.2743 56.9094C44.4339 58.5577 43.9252 59.903 42.7482 60.9453C41.582 61.9745 39.7925 62.6059 37.3798 62.8396ZM37.1664 60.6359C38.7789 60.4798 39.9484 60.1073 40.675 59.5185C41.4005 58.9178 41.7164 58.1337 41.6227 57.1662C41.5302 56.2107 41.0649 55.5143 40.2268 55.077C39.4007 54.6386 38.1874 54.4969 36.5869 54.6519C34.9864 54.8069 33.8168 55.1794 33.0782 55.7693C32.3516 56.3581 32.0346 57.1303 32.1271 58.0858C32.2208 59.0533 32.6813 59.7622 33.5086 60.2125C34.3347 60.6509 35.5539 60.7921 37.1664 60.6359ZM58.902 60.2851L55.1754 60.646L49.9269 57.4289L48.8878 57.5296L49.2452 61.2203L46.5219 61.484L45.6058 52.0243L48.329 51.7606L48.6726 55.308L49.6401 55.2143L54.0801 51.2036L57.5021 50.8722L51.7959 56.0001L58.902 60.2851ZM65.7763 60.0895C63.3635 60.3232 61.4802 60.0474 60.1262 59.2623C58.783 58.4641 58.0316 57.2408 57.872 55.5925C57.7135 53.9562 58.2179 52.6294 59.3853 51.6121C60.5635 50.5817 62.3589 49.9497 64.7716 49.7161C67.1843 49.4824 69.0617 49.7587 70.4038 50.545C71.7566 51.3182 72.5123 52.523 72.6707 54.1593C72.8304 55.8076 72.3217 57.1529 71.1447 58.1952C69.9784 59.2244 68.189 59.8559 65.7763 60.0895ZM65.5628 57.8858C67.1753 57.7297 68.3448 57.3572 69.0715 56.7684C69.7969 56.1677 70.1128 55.3836 70.0191 54.4161C69.9266 53.4606 69.4613 52.7642 68.6232 52.3269C67.7971 51.8885 66.5838 51.7468 64.9833 51.9018C63.3828 52.0568 62.2133 52.4293 61.4747 53.0192C60.7481 53.608 60.431 54.3802 60.5236 55.3357C60.6173 56.3032 61.0777 57.0121 61.905 57.4625C62.7311 57.9009 63.9504 58.042 65.5628 57.8858ZM75.5651 49.1229L85.9924 48.113L86.9085 57.5728L84.1852 57.8365L83.4895 50.6521L78.2758 51.157L78.327 54.8593C78.3563 56.1586 78.1073 57.1351 77.5799 57.789C77.0644 58.4417 76.2035 58.8265 74.9971 58.9433C74.6627 58.9757 74.2651 58.9781 73.8043 58.9504L73.355 56.5525C73.681 56.5571 73.9694 56.5472 74.2202 56.523C74.7219 56.4744 75.0902 56.294 75.3252 55.9819C75.5722 55.6687 75.6879 55.1209 75.6724 54.3388L75.5651 49.1229ZM96.1498 57.148C93.7371 57.3816 91.8537 57.1059 90.4997 56.3207C89.1565 55.5225 88.4051 54.2992 88.2455 52.651C88.087 51.0146 88.5915 49.6878 89.7588 48.6705C90.937 47.6402 92.7324 47.0082 95.1451 46.7745C97.5579 46.5408 99.4352 46.8172 100.777 47.6034C102.13 48.3766 102.886 49.5814 103.044 51.2178C103.204 52.866 102.695 54.2113 101.518 55.2537C100.352 56.2829 98.5625 56.9143 96.1498 57.148ZM95.9364 54.9443C97.5488 54.7881 98.7184 54.4156 99.445 53.8269C100.17 53.2261 100.486 52.442 100.393 51.4746C100.3 50.519 99.8348 49.8226 98.9968 49.3854C98.1707 48.947 96.9573 48.8053 95.3568 48.9603C93.7563 49.1153 92.5868 49.4877 91.8482 50.0777C91.1216 50.6665 90.8045 51.4386 90.8971 52.3942C90.9908 53.3616 91.4513 54.0705 92.2785 54.5209C93.1046 54.9593 94.3239 55.1004 95.9364 54.9443ZM114.599 49.936C115.271 50.0276 115.817 50.252 116.237 50.6092C116.658 50.9663 116.895 51.4256 116.949 51.987C117.027 52.7872 116.755 53.4646 116.133 54.0191C115.511 54.5616 114.555 54.8953 113.265 55.0203L105.292 55.7924L104.376 46.3327L112.008 45.5935C113.262 45.472 114.234 45.607 114.923 45.9984C115.622 46.3767 116.01 46.9541 116.085 47.7304C116.186 48.7696 115.69 49.5048 114.599 49.936ZM107.213 47.9929L107.393 49.8562L112.177 49.3929C112.643 49.3478 112.975 49.2312 113.174 49.0432C113.384 48.842 113.475 48.6041 113.448 48.3294C113.422 48.0547 113.287 47.8447 113.044 47.6995C112.812 47.5411 112.462 47.4845 111.997 47.5296L107.213 47.9929ZM112.846 53.1258C113.336 53.0784 113.697 52.947 113.929 52.7316C114.173 52.515 114.28 52.2515 114.25 51.9409C114.221 51.6423 114.073 51.4156 113.805 51.2607C113.547 51.0927 113.162 51.0336 112.648 51.0834L107.56 51.5761L107.758 53.6186L112.846 53.1258ZM125.981 54.2589C123.557 54.4937 121.667 54.2186 120.313 53.4334C118.97 52.6352 118.219 51.4119 118.059 49.7636C117.901 48.1273 118.405 46.8005 119.572 45.7832C120.751 44.7528 122.546 44.1208 124.959 43.8872C126.727 43.716 128.229 43.8538 129.466 44.3007C130.713 44.7344 131.641 45.4704 132.247 46.5088L129.654 47.1759C128.779 46.2359 127.302 45.8665 125.224 46.0677C123.6 46.225 122.418 46.5987 121.68 47.1886C120.941 47.7786 120.618 48.5513 120.711 49.5068C120.804 50.4743 121.265 51.1832 122.092 51.6336C122.93 52.0708 124.155 52.2114 125.768 52.0552C126.915 51.9442 127.834 51.7285 128.526 51.4083C129.218 51.0761 129.703 50.6734 129.983 50.2003L132.64 50.3769C132.229 51.4897 131.477 52.3704 130.382 53.0189C129.3 53.6663 127.833 54.0796 125.981 54.2589ZM146.943 51.7586L143.217 52.1195L137.968 48.9025L136.929 49.0031L137.286 52.6939L134.563 52.9576L133.647 43.4978L136.37 43.2341L136.714 46.7815L137.681 46.6878L142.121 42.6771L145.543 42.3457L139.837 47.4737L146.943 51.7586ZM151.943 51.2745L147.965 51.6596L147.049 42.1999L149.701 41.9431L150.379 48.9483L150.917 48.8963L155.918 41.341L159.895 40.9558L160.811 50.4156L158.16 50.6724L157.483 43.6851L156.963 43.7354L151.943 51.2745ZM167.339 49.7833L163.362 50.1685L162.446 40.7088L165.097 40.452L165.776 47.4572L166.313 47.4052L171.314 39.8499L175.292 39.4647L176.208 48.9245L173.556 49.1813L172.88 42.1939L172.36 42.2443L167.339 49.7833ZM168.794 39.2259C167.648 39.337 166.693 39.128 165.931 38.599C165.167 38.0581 164.7 37.2835 164.53 36.2752L166.573 36.0774C166.706 36.5829 166.941 36.958 167.278 37.2026C167.627 37.4461 168.077 37.5413 168.626 37.488C169.164 37.436 169.574 37.2576 169.858 36.9528C170.154 36.6468 170.319 36.233 170.353 35.7113L172.395 35.5135C172.422 36.5357 172.113 37.3855 171.467 38.0629C170.82 38.7283 169.929 39.116 168.794 39.2259Z" fill="black"/>
</svg>
