<svg width="186" height="76" viewBox="0 0 186 76" fill="none" xmlns="http://www.w3.org/2000/svg">
<path d="M1.34705 38.1962L66.7725 32.996L41.5009 43.4808L181.347 16.6964" stroke="white" stroke-width="34"/>
<path d="M148.347 45.196L101.797 52.7114L127.069 42.2265L39.847 58.6963" stroke="white" stroke-width="34"/>
<path d="M16.2765 29.1558L29.0149 27.9221L30.2382 40.553L27.3716 40.8306L26.386 30.6543L19.1658 31.3535L19.2662 37.0584C19.2944 38.7194 18.9574 39.9697 18.2551 40.8093C17.5635 41.6358 16.4175 42.1266 14.817 42.2816C14.4348 42.3186 14.0491 42.3198 13.6599 42.2851L13.154 39.6758C13.5636 39.6723 13.9595 39.652 14.3417 39.615C14.8911 39.5618 15.3142 39.4485 15.6108 39.2751C15.9195 39.1005 16.1346 38.8325 16.2564 38.4711C16.3889 38.0966 16.4478 37.5845 16.4331 36.9349L16.2765 29.1558ZM36.98 39.9001L33.0026 40.2853L32.0864 30.8256L34.738 30.5688L35.4164 37.574L35.9539 37.5219L40.9549 29.9667L44.9323 29.5815L45.8485 39.0412L43.1969 39.298L42.5202 32.3107L42.0006 32.361L36.98 39.9001ZM51.1225 38.5305L48.3993 38.7942L47.4831 29.3344L56.7995 28.4322L57.0199 30.7075L50.4268 31.3461L51.1225 38.5305ZM63.9744 27.2852C65.1091 27.1753 66.1142 27.283 66.9896 27.6081C67.8639 27.9213 68.5567 28.4148 69.068 29.0886C69.5793 29.7625 69.879 30.5533 69.9669 31.461L70.47 36.6567L68.4993 36.8476L67.8703 35.2086C67.4011 35.9653 66.7604 36.5699 65.9482 37.0223C65.1468 37.4616 64.2206 37.7321 63.1695 37.8339C62.2618 37.9219 61.4422 37.8626 60.7109 37.6561C59.9808 37.4616 59.3949 37.1386 58.9533 36.687C58.5118 36.2355 58.2597 35.6872 58.1973 35.0422C58.1024 34.0628 58.4279 33.2537 59.1738 32.6148C59.9305 31.9628 61.0733 31.5628 62.6021 31.4147L67.1528 30.974C66.9875 30.3872 66.6241 29.9341 66.0627 29.6148C65.5133 29.2942 64.8265 29.1739 64.0023 29.2537C62.5212 29.3971 61.5012 29.8817 60.9422 30.7075L58.394 30.5383C58.7873 29.6201 59.4577 28.8861 60.4051 28.3362C61.3633 27.7732 62.5531 27.4229 63.9744 27.2852ZM63.4231 35.7839C64.6414 35.666 65.6042 35.3376 66.3116 34.7989C67.0298 34.2471 67.3794 33.5622 67.3604 32.7443L62.6843 33.1971C62.0035 33.2631 61.5176 33.4126 61.2268 33.6457C60.9347 33.8669 60.8084 34.1805 60.8477 34.5866C60.894 35.0644 61.1377 35.4025 61.5789 35.6009C62.02 35.7993 62.6348 35.8603 63.4231 35.7839ZM82.6223 22.7304L95.3607 21.4968L96.584 34.1277L93.7174 34.4053L92.7319 24.2289L85.5116 24.9282L85.612 30.6331C85.6403 32.2941 85.3032 33.5444 84.6009 34.384C83.9093 35.2105 82.7633 35.7013 81.1628 35.8563C80.7806 35.8933 80.3949 35.8945 80.0058 35.8598L79.4999 33.2504C79.9094 33.2469 80.3053 33.2267 80.6875 33.1897C81.237 33.1364 81.66 33.0231 81.9567 32.8497C82.2653 32.6752 82.4805 32.4072 82.6022 32.0458C82.7347 31.6713 82.7936 31.1592 82.7789 30.5096L82.6223 22.7304ZM112.641 27.7079C112.669 27.9946 112.668 28.2901 112.637 28.5945L100.902 29.731C101.176 30.4519 101.728 30.9832 102.557 31.3249C103.398 31.6654 104.487 31.7709 105.825 31.6414C106.888 31.5384 107.713 31.3499 108.302 31.0759C108.889 30.79 109.328 30.4099 109.62 29.9356L112.333 30.1249C111.876 31.1337 111.134 31.9409 110.108 32.5467C109.08 33.1405 107.695 33.5219 105.951 33.6907C104.398 33.8411 103.051 33.7545 101.911 33.4309C100.77 33.1074 99.8819 32.5846 99.2454 31.8626C98.6088 31.1406 98.2396 30.2541 98.1379 29.203C98.0372 28.1638 98.224 27.2295 98.6983 26.3999C99.1844 25.5692 99.9502 24.8862 100.995 24.3509C102.053 23.8145 103.37 23.47 104.946 23.3173C106.535 23.1634 107.888 23.2554 109.006 23.5932C110.122 23.9191 110.98 24.4388 111.58 25.1524C112.192 25.8647 112.545 26.7166 112.641 27.7079ZM105.135 25.2701C103.857 25.3939 102.855 25.6839 102.127 26.1402C101.399 26.5845 100.95 27.1825 100.782 27.9342L109.865 27.0545C109.584 26.3945 109.043 25.9044 108.24 25.5843C107.436 25.2522 106.401 25.1475 105.135 25.2701ZM117.573 32.095L114.85 32.3587L113.934 22.8989L123.25 21.9967L123.471 24.272L116.878 24.9106L117.573 32.095ZM138.973 25.1578C139.001 25.4445 138.999 25.74 138.969 26.0444L127.234 27.1809C127.508 27.9017 128.06 28.433 128.889 28.7747C129.73 29.1153 130.819 29.2208 132.157 29.0912C133.22 28.9883 134.045 28.7998 134.634 28.5258C135.221 28.2399 135.66 27.8597 135.952 27.3854L138.665 27.5748C138.208 28.5835 137.466 29.3908 136.44 29.9965C135.412 30.5904 134.027 30.9717 132.283 31.1406C130.73 31.291 129.383 31.2044 128.243 30.8808C127.102 30.5572 126.214 30.0345 125.577 29.3125C124.941 28.5905 124.572 27.7039 124.47 26.6528C124.369 25.6137 124.556 24.6793 125.03 23.8498C125.516 23.019 126.282 22.336 127.327 21.8008C128.385 21.2644 129.701 20.9198 131.278 20.7671C132.867 20.6133 134.22 20.7053 135.338 21.0431C136.454 21.369 137.312 21.8887 137.912 22.6022C138.523 23.3146 138.877 24.1664 138.973 25.1578ZM131.467 22.72C130.189 22.8438 129.186 23.1338 128.459 23.59C127.731 24.0343 127.282 24.6323 127.114 25.3841L136.197 24.5044C135.916 23.8444 135.375 23.3543 134.572 23.0342C133.768 22.7021 132.733 22.5974 131.467 22.72ZM150.035 23.0015L149.69 19.4361L152.413 19.1724L153.329 28.6321L150.606 28.8959L150.248 25.2051L143.548 25.8541L143.905 29.5448L141.182 29.8085L140.266 20.3488L142.989 20.0851L143.334 23.6504L150.035 23.0015ZM155.166 31.2935L154.668 26.1515L154.883 26.1307C155.504 26.0706 155.98 25.8195 156.311 25.3776C156.641 24.9237 156.806 24.2627 156.806 23.3946L156.736 18.7537L167.146 17.7456L167.836 24.8762L170.147 24.6524L170.645 29.7943L167.94 30.0564L167.668 27.2435L157.617 28.2169L157.889 31.0297L155.166 31.2935ZM165.125 25.2654L164.636 20.213L159.404 20.7197L159.457 23.3187C159.469 23.9444 159.417 24.4559 159.298 24.8531C159.192 25.2492 159.02 25.5914 158.783 25.8796L165.125 25.2654ZM55.76 61.6591C53.3472 61.8928 51.4639 61.6171 50.1099 60.8319C48.7667 60.0337 48.0153 58.8104 47.8557 57.1621C47.6972 55.5258 48.2016 54.199 49.369 53.1817C50.5472 52.1513 52.3426 51.5193 54.7553 51.2857C57.168 51.052 59.0454 51.3283 60.3875 52.1146C61.7403 52.8878 62.4959 54.0926 62.6544 55.7289C62.8141 57.3772 62.3054 58.7225 61.1284 59.7648C59.9621 60.794 58.1727 61.4255 55.76 61.6591ZM55.5465 59.4554C57.159 59.2993 58.3285 58.9268 59.0552 58.338C59.7806 57.7373 60.0965 56.9532 60.0028 55.9857C59.9103 55.0302 59.445 54.3338 58.6069 53.8965C57.7808 53.4581 56.5675 53.3164 54.967 53.4714C53.3665 53.6264 52.197 53.9989 51.4584 54.5889C50.7318 55.1776 50.4147 55.9498 50.5073 56.9053C50.6009 57.8728 51.0614 58.5817 51.8887 59.0321C52.7148 59.4705 53.9341 59.6116 55.5465 59.4554ZM71.3561 59.6785L68.6507 59.9405L67.955 52.7561L63.0459 53.2316L62.8256 50.9562L75.349 49.7434L75.5693 52.0187L70.6603 52.4941L71.3561 59.6785ZM95.7745 50.6225C96.7508 50.745 97.5201 51.0322 98.0823 51.4841C98.6445 51.936 98.9631 52.5501 99.0383 53.3265C99.1182 54.1507 98.9015 54.901 98.3883 55.5777C97.8871 56.2531 97.1152 56.8101 96.0726 57.2487C95.042 57.686 93.7981 57.9753 92.3409 58.1164C90.2984 58.3142 88.6141 58.1639 87.2879 57.6654C85.9736 57.1658 85.0018 56.3436 84.3725 55.1989L87.2264 54.4162C87.6067 54.9822 88.2192 55.393 89.0637 55.6488C89.9203 55.9034 90.898 55.9775 91.9968 55.8711C93.3943 55.7358 94.4465 55.4591 95.1535 55.041C95.8724 54.6217 96.2024 54.1075 96.1434 53.4984C96.0902 52.9489 95.781 52.5569 95.2157 52.3223C94.6624 52.0865 93.8065 52.0248 92.6479 52.137L89.1722 52.4736L88.9657 50.3416L92.4056 50.0084C93.4089 49.9113 94.1427 49.7076 94.607 49.3974C95.082 49.0741 95.2958 48.6676 95.2484 48.1779C95.1952 47.6284 94.8436 47.2345 94.1936 46.996C93.5543 46.7445 92.6733 46.6731 91.5506 46.7818C89.329 46.997 87.848 47.701 87.1075 48.8939L84.2836 48.6791C85.3276 46.2633 87.6711 44.8789 91.3141 44.5261C92.6757 44.3942 93.8499 44.4433 94.8366 44.6732C95.8353 44.902 96.6067 45.2734 97.1508 45.7873C97.7068 46.3001 98.0195 46.9149 98.0889 47.6315C98.1537 48.3004 97.9823 48.8957 97.5747 49.4174C97.1779 49.926 96.5778 50.3277 95.7745 50.6225ZM106.442 46.28C107.576 46.1702 108.581 46.2778 109.457 46.6029C110.331 46.9161 111.024 47.4096 111.535 48.0835C112.047 48.7573 112.346 49.5481 112.434 50.4559L112.937 55.6515L110.967 55.8424L110.338 54.2034C109.868 54.9602 109.228 55.5647 108.415 56.0171C107.614 56.4564 106.688 56.727 105.637 56.8288C104.729 56.9167 103.909 56.8574 103.178 56.6509C102.448 56.4564 101.862 56.1334 101.421 55.6818C100.979 55.2303 100.727 54.682 100.665 54.0371C100.57 53.0576 100.895 52.2485 101.641 51.6096C102.398 50.9576 103.541 50.5576 105.069 50.4096L109.62 49.9688C109.455 49.382 109.091 48.929 108.53 48.6096C107.981 48.2891 107.294 48.1687 106.47 48.2485C104.988 48.392 103.968 48.8765 103.409 49.7023L100.861 49.5331C101.255 48.6149 101.925 47.8809 102.872 47.331C103.831 46.768 105.02 46.4177 106.442 46.28ZM105.89 54.7788C107.109 54.6608 108.071 54.3324 108.779 53.7937C109.497 53.242 109.847 52.5571 109.828 51.7391L105.152 52.1919C104.471 52.2579 103.985 52.4074 103.694 52.6405C103.402 52.8617 103.276 53.1754 103.315 53.5815C103.361 54.0592 103.605 54.3973 104.046 54.5957C104.487 54.7941 105.102 54.8551 105.89 54.7788ZM127.776 54.2144L124.05 54.5753L118.801 51.3583L117.762 51.4589L118.12 55.1497L115.396 55.4134L114.48 45.9537L117.203 45.6899L117.547 49.2373L118.514 49.1436L122.955 45.133L126.376 44.8015L120.67 49.9295L127.776 54.2144ZM133.001 43.7079C134.136 43.598 135.141 43.7056 136.016 44.0307C136.89 44.3439 137.583 44.8374 138.095 45.5113C138.606 46.1851 138.906 46.9759 138.993 47.8837L139.497 53.0794L137.526 53.2702L136.897 51.6312C136.428 52.388 135.787 52.9926 134.975 53.445C134.173 53.8843 133.247 54.1548 132.196 54.2566C131.288 54.3445 130.469 54.2852 129.738 54.0788C129.007 53.8842 128.421 53.5612 127.98 53.1097C127.538 52.6581 127.286 52.1099 127.224 51.4649C127.129 50.4855 127.455 49.6763 128.2 49.0375C128.957 48.3855 130.1 47.9855 131.629 47.8374L136.179 47.3967C136.014 46.8099 135.651 46.3568 135.089 46.0374C134.54 45.7169 133.853 45.5965 133.029 45.6764C131.548 45.8198 130.528 46.3044 129.969 47.1301L127.421 46.961C127.814 46.0428 128.484 45.3087 129.432 44.7588C130.39 44.1959 131.58 43.8455 133.001 43.7079ZM132.45 52.2066C133.668 52.0886 134.631 51.7603 135.338 51.2216C136.056 50.6698 136.406 49.9849 136.387 49.1669L131.711 49.6198C131.03 49.6857 130.544 49.8352 130.253 50.0684C129.961 50.2895 129.835 50.6032 129.874 51.0093C129.921 51.487 130.164 51.8251 130.605 52.0235C131.047 52.2219 131.661 52.2829 132.45 52.2066Z" fill="black"/>
</svg>
