<svg width="123" height="47" viewBox="0 0 123 47" fill="none" xmlns="http://www.w3.org/2000/svg">
<path d="M121.778 24.3169L69.229 27.3314L94.5005 16.8465L2.27832 29.3169" stroke="white" stroke-width="34"/>
<path d="M13.2971 38.8916L12.747 33.2122L13.1054 33.1775C13.6906 33.1208 14.1603 32.9909 14.5144 32.7879C14.8804 32.5836 15.1591 32.2251 15.3506 31.7122C15.554 31.1982 15.6518 30.4654 15.644 29.5137L15.5776 22.6662L28.2623 21.4378L29.2478 31.6142L32.0428 31.3435L32.5928 37.0229L29.7262 37.3005L29.4139 34.0756L15.8513 35.3891L16.1637 38.614L13.2971 38.8916ZM26.3812 31.8918L25.6265 24.0982L18.4242 24.7958L18.4522 29.0067C18.4539 30.7667 18.1347 32.0153 17.4948 32.7524L26.3812 31.8918ZM50.77 32.0074L47.7063 32.3041L46.0856 29.9473L36.9483 30.8322L35.792 33.4579L32.7284 33.7546L38.797 20.4175L42.4161 20.067L50.77 32.0074ZM40.4946 22.8211L38.0017 28.4516L44.6307 27.8096L41.1754 22.7551L40.4946 22.8211ZM63.8319 23.0927L63.3426 18.0404L66.2092 17.7628L67.4324 30.3937L64.5658 30.6713L64.0627 25.4756L54.5492 26.3969L55.0523 31.5926L52.1858 31.8702L50.9625 19.2393L53.8291 18.9617L54.3184 24.0141L63.8319 23.0927ZM74.6813 29.6916L70.3994 30.1063L69.1761 17.4754L72.0427 17.1978L72.9953 27.0338L73.5865 26.9765L81.4487 16.2869L85.7307 15.8722L86.9539 28.5031L84.0873 28.7807L83.1348 18.9447L82.5435 19.002L74.6813 29.6916ZM95.7255 21.0709L105.459 26.711L101.284 27.1153L93.4283 22.5593L92.2817 22.6704L92.7918 27.9377L89.9252 28.2153L88.702 15.5844L91.5685 15.3068L92.0509 20.2875L93.305 20.166L99.6667 14.5225L103.572 14.1443L95.7255 21.0709Z" fill="black"/>
</svg>
