<svg width="127" height="71" viewBox="0 0 127 71" fill="none" xmlns="http://www.w3.org/2000/svg">
<path d="M1.99268 23.6479L38.4181 27.9474L13.1466 38.4323L118.493 16.6479" stroke="white" stroke-width="34"/>
<path d="M123.993 39.148L73.4432 47.6632L98.7148 37.1784L6.99262 54.1478" stroke="white" stroke-width="34"/>
<path d="M17.1893 34.0219L15.966 21.391L23.67 20.6449C24.9958 20.5165 26.131 20.5994 27.0758 20.8937C28.0194 21.1761 28.7506 21.6297 29.2692 22.2546C29.7867 22.8676 30.0877 23.61 30.1721 24.482C30.2577 25.3658 30.106 26.1642 29.7169 26.877C29.3266 27.5779 28.6961 28.1634 27.8254 28.6335C26.9535 29.0917 25.8546 29.385 24.5288 29.5134L19.6915 29.9819L20.0558 33.7443L17.1893 34.0219ZM24.6992 27.164C25.583 27.0784 26.2388 26.816 26.6664 26.3767C27.1049 25.9244 27.294 25.3876 27.2339 24.7665C27.1749 24.1574 26.8874 23.6789 26.3715 23.331C25.8675 22.9819 25.1735 22.8502 24.2897 22.9358L19.0582 23.4425L19.4676 27.6707L24.6992 27.164ZM39.4654 32.3347C37.0527 32.5684 35.1693 32.2926 33.8154 31.5075C32.4722 30.7093 31.7207 29.486 31.5611 27.8377C31.4026 26.2014 31.9071 24.8746 33.0745 23.8573C34.2526 22.8269 36.0481 22.1949 38.4608 21.9612C40.8735 21.7276 42.7509 22.0039 44.0929 22.7902C45.4457 23.5634 46.2014 24.7682 46.3599 26.4045C46.5195 28.0528 46.0108 29.3981 44.8338 30.4404C43.6676 31.4696 41.8781 32.1011 39.4654 32.3347ZM39.252 30.131C40.8644 29.9749 42.034 29.6024 42.7606 29.0136C43.4861 28.4129 43.802 27.6288 43.7083 26.6613C43.6157 25.7058 43.1504 25.0094 42.3124 24.5721C41.4863 24.1337 40.273 23.992 38.6725 24.147C37.072 24.302 35.9024 24.6745 35.1638 25.2644C34.4372 25.8532 34.1202 26.6254 34.2127 27.5809C34.3064 28.5484 34.7669 29.2573 35.5941 29.7076C36.4203 30.1461 37.6395 30.2872 39.252 30.131ZM67.3501 29.164L63.6593 29.5214L58.6044 26.2495L57.7086 26.3362L58.0695 30.0628L55.5612 30.3057L55.2003 26.5791L54.2866 26.6676L49.9356 30.8505L46.2448 31.208L52.0545 25.6541L45.9199 21.691L49.3598 21.3578L54.1501 24.5107L54.9921 24.4292L54.6451 20.846L57.1534 20.603L57.5004 24.1863L58.3245 24.1065L62.4565 20.0895L65.9681 19.7494L60.6381 24.8409L67.3501 29.164ZM77.2488 22.2556L76.9036 18.6903L79.6268 18.4266L80.543 27.8863L77.8197 28.1501L77.4623 24.4593L70.7616 25.1083L71.1191 28.799L68.3958 29.0627L67.4797 19.603L70.2029 19.3393L70.5482 22.9046L77.2488 22.2556ZM89.7847 27.4615C87.372 27.6952 85.4886 27.4194 84.1346 26.6343C82.7914 25.836 82.04 24.6128 81.8804 22.9645C81.7219 21.3281 82.2263 20.0013 83.3937 18.9841C84.5719 17.9537 86.3673 17.3217 88.78 17.088C91.1928 16.8544 93.0701 17.1307 94.4122 17.917C95.765 18.6902 96.5207 19.8949 96.6791 21.5313C96.8388 23.1796 96.3301 24.5249 95.1531 25.5672C93.9868 26.5964 92.1974 27.2278 89.7847 27.4615ZM89.5713 25.2578C91.1837 25.1016 92.3532 24.7292 93.0799 24.1404C93.8053 23.5397 94.1212 22.7556 94.0275 21.7881C93.935 20.8325 93.4697 20.1362 92.6317 19.6989C91.8055 19.2605 90.5922 19.1188 88.9917 19.2738C87.3912 19.4288 86.2217 19.8013 85.4831 20.3912C84.7565 20.98 84.4394 21.7522 84.532 22.7077C84.6257 23.6752 85.0861 24.3841 85.9134 24.8344C86.7395 25.2728 87.9588 25.414 89.5713 25.2578ZM108.234 20.2495C108.906 20.3412 109.452 20.5656 109.872 20.9227C110.292 21.2798 110.53 21.7391 110.584 22.3005C110.662 23.1007 110.39 23.7781 109.768 24.3326C109.146 24.8751 108.189 25.2089 106.899 25.3338L98.9268 26.1059L98.0106 16.6462L105.643 15.907C106.897 15.7856 107.869 15.9205 108.558 16.312C109.257 16.6903 109.645 17.2676 109.72 18.044C109.821 19.0831 109.325 19.8183 108.234 20.2495ZM100.848 18.3064L101.028 20.1697L105.812 19.7064C106.278 19.6613 106.61 19.5447 106.809 19.3567C107.018 19.1556 107.11 18.9176 107.083 18.6429C107.057 18.3682 106.922 18.1582 106.679 18.013C106.446 17.8546 106.097 17.798 105.632 17.8431L100.848 18.3064ZM106.481 23.4393C106.971 23.3919 107.332 23.2605 107.564 23.0451C107.808 22.8285 107.915 22.565 107.885 22.2544C107.856 21.9558 107.708 21.7291 107.44 21.5742C107.182 21.4063 106.797 21.3471 106.283 21.3969L101.195 21.8897L101.393 23.9321L106.481 23.4393ZM29.4626 56.4111C27.4441 56.6065 25.6927 56.5109 24.2085 56.1242C22.7351 55.7244 21.579 55.0527 20.7401 54.1091C19.9132 53.1645 19.4303 51.9755 19.2915 50.5422C19.1539 49.1208 19.4061 47.8667 20.0484 46.7797C20.6906 45.6927 21.6969 44.8176 23.0674 44.1544C24.4367 43.4793 26.1306 43.044 28.1491 42.8485C30.323 42.638 32.2138 42.8045 33.8217 43.348C35.4296 43.8916 36.5888 44.7197 37.2994 45.8324L34.1733 46.6053C33.5865 46.0232 32.7818 45.6188 31.7592 45.3924C30.7485 45.1647 29.6101 45.1122 28.3441 45.2348C26.2061 45.4419 24.6193 45.9874 23.5837 46.8713C22.56 47.7541 22.1147 48.8823 22.2477 50.2559C22.3819 51.6414 23.036 52.6691 24.21 53.3391C25.396 54.0079 27.058 54.2387 29.196 54.0317C30.5099 53.9044 31.6582 53.6244 32.6411 53.1917C33.6228 52.747 34.3386 52.1713 34.7886 51.4646L38.0228 51.6216C37.5532 52.8727 36.5708 53.9323 35.0755 54.8005C33.5791 55.6567 31.7081 56.1936 29.4626 56.4111ZM53.331 48.7646C53.3588 49.0513 53.3573 49.3468 53.3265 49.6512L41.5914 50.7877C41.8661 51.5086 42.4179 52.0399 43.2467 52.3816C44.0875 52.7221 45.1767 52.8276 46.5144 52.698C47.5775 52.5951 48.4032 52.4066 48.9915 52.1326C49.5787 51.8467 50.0181 51.4666 50.3097 50.9923L53.0226 51.1816C52.5657 52.1904 51.8241 52.9976 50.7977 53.6034C49.7701 54.1972 48.3844 54.5785 46.6406 54.7474C45.0879 54.8978 43.7412 54.8112 42.6007 54.4876C41.4602 54.1641 40.5717 53.6413 39.9351 52.9193C39.2986 52.1973 38.9294 51.3107 38.8276 50.2597C38.727 49.2205 38.9138 48.2862 39.388 47.4566C39.8742 46.6259 40.6399 45.9429 41.6852 45.4076C42.7424 44.8712 44.0593 44.5267 45.636 44.374C47.2245 44.2201 48.5777 44.3121 49.6955 44.6499C50.8121 44.9758 51.6702 45.4955 52.2697 46.209C52.8813 46.9214 53.235 47.7733 53.331 48.7646ZM45.8251 46.3268C44.5471 46.4506 43.5443 46.7406 42.8169 47.1969C42.0884 47.6412 41.6399 48.2392 41.4716 48.9909L50.5551 48.1112C50.2742 47.4512 49.7324 46.9611 48.9298 46.641C48.1261 46.3089 47.0912 46.2042 45.8251 46.3268ZM55.8955 57.0882L54.6237 43.9556L56.6124 43.763L57.3332 45.2304C58.687 43.7731 60.5763 42.9271 63.0009 42.6922C64.267 42.5696 65.3992 42.683 66.3975 43.0324C67.4067 43.3687 68.2122 43.9056 68.814 44.643C69.4148 45.3684 69.7643 46.2388 69.8626 47.254C69.9609 48.2693 69.7855 49.1965 69.3363 50.0357C68.8871 50.8749 68.2002 51.5624 67.2755 52.098C66.3616 52.6205 65.2716 52.9431 64.0056 53.0657C61.6526 53.2936 59.6927 52.8504 58.126 51.7363L58.6188 56.8245L55.8955 57.0882ZM63.0217 50.9366C64.4789 50.7955 65.5529 50.4323 66.2437 49.847C66.9465 49.2605 67.251 48.4835 67.1573 47.516C67.0636 46.5486 66.6156 45.8445 65.8134 45.4038C65.0231 44.9619 63.8994 44.8115 62.4422 44.9526C60.8656 45.1053 59.6608 45.4872 58.8278 46.0984C58.0068 46.7083 57.642 47.4851 57.7334 48.4287C57.8248 49.3723 58.3319 50.0646 59.2547 50.5057C60.1894 50.9457 61.4451 51.0893 63.0217 50.9366ZM74.8321 51.547L72.1088 51.8107L71.1927 42.351L80.5091 41.4487L80.7294 43.7241L74.1363 44.3626L74.8321 51.547ZM96.2319 44.6099C96.2596 44.8965 96.2581 45.192 96.2273 45.4964L84.4922 46.6329C84.767 47.3538 85.3188 47.8851 86.1476 48.2268C86.9883 48.5673 88.0776 48.6728 89.4153 48.5433C90.4783 48.4403 91.304 48.2519 91.8923 47.9779C92.4795 47.6919 92.9189 47.3118 93.2105 46.8375L95.9234 47.0269C95.4665 48.0356 94.7249 48.8428 93.6985 49.4486C92.671 50.0424 91.2853 50.4238 89.5414 50.5927C87.9887 50.743 86.6421 50.6564 85.5016 50.3329C84.3611 50.0093 83.4725 49.4865 82.836 48.7645C82.1994 48.0425 81.8302 47.156 81.7284 46.1049C81.6278 45.0658 81.8146 44.1314 82.2889 43.3018C82.775 42.4711 83.5408 41.7881 84.586 41.2528C85.6433 40.7164 86.9602 40.3719 88.5368 40.2192C90.1254 40.0653 91.4785 40.1573 92.5963 40.4952C93.7129 40.821 94.571 41.3407 95.1706 42.0543C95.7821 42.7666 96.1359 43.6185 96.2319 44.6099ZM88.7259 42.1721C87.4479 42.2958 86.4452 42.5858 85.7178 43.0421C84.9892 43.4864 84.5408 44.0844 84.3725 44.8361L93.456 43.9564C93.175 43.2964 92.6333 42.8064 91.8307 42.4862C91.0269 42.1542 89.992 42.0494 88.7259 42.1721ZM102.418 48.8754L98.4407 49.2606L97.5246 39.8009L100.176 39.5441L100.855 46.5493L101.392 46.4972L106.393 38.942L110.37 38.5568L111.287 48.0165L108.635 48.2733L107.958 41.286L107.439 41.3363L102.418 48.8754ZM103.873 38.318C102.727 38.429 101.772 38.2201 101.009 37.6911C100.246 37.1502 99.7789 36.3756 99.6089 35.3673L101.651 35.1695C101.785 35.675 102.02 36.0501 102.357 36.2947C102.706 36.5382 103.155 36.6333 103.705 36.5801C104.242 36.5281 104.653 36.3496 104.937 36.0448C105.233 35.7389 105.398 35.3251 105.432 34.8034L107.474 34.6056C107.501 35.6278 107.191 36.4776 106.546 37.155C105.899 37.8204 105.008 38.2081 103.873 38.318Z" fill="black"/>
</svg>
