<svg width="121" height="46" viewBox="0 0 121 46" fill="none" xmlns="http://www.w3.org/2000/svg">
<path d="M116.567 16.8744L74.5179 27.359L99.7894 16.8741L2.06738 28.8442" stroke="white" stroke-width="34"/>
<path d="M27.3629 29.5961L26.1397 16.9652L39.0931 15.7107L39.3186 18.0398L29.2318 19.0167L29.4366 21.1308L34.686 20.6224C36.6448 20.4327 38.1475 20.6368 39.194 21.2347C40.2394 21.8207 40.8268 22.7825 40.9564 24.1203C41.0882 25.4819 40.698 26.5565 39.7857 27.3441C38.8734 28.1318 37.4378 28.6204 35.4789 28.8101L27.3629 29.5961ZM35.6834 26.4394C36.4836 26.3619 37.0837 26.147 37.4836 25.7948C37.8943 25.4295 38.0725 24.9662 38.0181 24.4048C37.9626 23.8315 37.7048 23.4104 37.2447 23.1415C36.7835 22.8607 36.1468 22.7596 35.3346 22.8382L29.6552 23.3882L30.0039 26.9894L35.6834 26.4394ZM43.6527 31.7258L42.3808 18.5932L44.3695 18.4006L45.0903 19.868C46.4442 18.4107 48.3334 17.5646 50.7581 17.3298C52.0241 17.2072 53.1563 17.3206 54.1547 17.67C55.1638 18.0063 55.9693 18.5431 56.5712 19.2806C57.1719 20.006 57.5214 20.8764 57.6198 21.8916C57.7181 22.9069 57.5426 23.8341 57.0934 24.6733C56.6442 25.5125 55.9573 26.1999 55.0326 26.7356C54.1187 27.2581 53.0288 27.5807 51.7627 27.7033C49.4097 27.9312 47.4499 27.488 45.8832 26.3739L46.3759 31.462L43.6527 31.7258ZM50.7789 25.5742C52.2361 25.4331 53.31 25.0699 54.0008 24.4846C54.7036 23.8981 55.0081 23.1211 54.9144 22.1536C54.8207 21.1862 54.3728 20.4821 53.5705 20.0413C52.7803 19.5995 51.6565 19.4491 50.1994 19.5902C48.6227 19.7429 47.4179 20.1248 46.585 20.7359C45.7639 21.3459 45.3991 22.1227 45.4905 23.0663C45.5819 24.0099 46.089 24.7022 47.0118 25.1433C47.9466 25.5833 49.2023 25.7269 50.7789 25.5742ZM68.6646 16.0478L71.5132 15.7719L66.6269 26.752C66.3106 27.4699 65.9859 28.0378 65.6526 28.4559C65.3205 28.8859 64.9004 29.2159 64.3922 29.446C63.8959 29.6749 63.2537 29.8275 62.4654 29.9039L60.3871 30.1051L59.9448 27.7789L62.3814 27.543C62.8711 27.4955 63.2279 27.3826 63.4517 27.2042C63.6887 27.0366 63.9063 26.7322 64.1047 26.291L64.1625 26.1407L57.3057 17.1478L60.2081 16.8667L64.9974 23.1845L65.5528 23.1307L68.6646 16.0478ZM82.2086 18.3348L81.8633 14.7695L84.5866 14.5058L85.5027 23.9655L82.7795 24.2292L82.422 20.5385L75.7214 21.1874L76.0788 24.8782L73.3556 25.1419L72.4394 15.6822L75.1627 15.4184L75.508 18.9838L82.2086 18.3348ZM94.7444 23.5407C92.3317 23.7743 90.4484 23.4986 89.0944 22.7135C87.7512 21.9152 86.9998 20.692 86.8401 19.0437C86.6817 17.4073 87.1861 16.0805 88.3535 15.0633C89.5317 14.0329 91.3271 13.4009 93.7398 13.1672C96.1525 12.9335 98.0299 13.2099 99.3719 13.9962C100.725 14.7694 101.48 15.9741 101.639 17.6105C101.799 19.2588 101.29 20.6041 100.113 21.6464C98.9466 22.6756 97.1572 23.307 94.7444 23.5407ZM94.531 21.337C96.1435 21.1808 97.313 20.8084 98.0396 20.2196C98.7651 19.6188 99.081 18.8347 98.9873 17.8673C98.8948 16.9117 98.4295 16.2153 97.5914 15.7781C96.7653 15.3397 95.552 15.198 93.9515 15.353C92.351 15.508 91.1814 15.8805 90.4429 16.4704C89.7162 17.0592 89.3992 17.8313 89.4917 18.7869C89.5854 19.7543 90.0459 20.4633 90.8732 20.9136C91.6993 21.352 92.9186 21.4931 94.531 21.337Z" fill="black"/>
</svg>
