<svg width="115" height="69" viewBox="0 0 115 69" fill="none" xmlns="http://www.w3.org/2000/svg">
<path d="M1.1167 24.1631L36.042 26.4626L10.7705 36.9475L111.117 16.6632" stroke="white" stroke-width="34"/>
<path d="M110.616 39.6634L71.0665 46.1784L96.338 35.6935L9.11625 52.1633" stroke="white" stroke-width="34"/>
<path d="M34.0639 30.673L29.7819 31.0877L28.5586 18.4567L31.4252 18.1791L32.3778 28.0151L32.969 27.9579L40.8312 17.2682L45.1132 16.8535L46.3364 29.4844L43.4699 29.762L42.5173 19.926L41.926 19.9833L34.0639 30.673ZM49.4484 32.8903L48.1766 19.7577L50.1653 19.5651L50.8861 21.0325C52.2399 19.5752 54.1292 18.7291 56.5538 18.4943C57.8199 18.3717 58.9521 18.4851 59.9504 18.8345C60.9595 19.1708 61.765 19.7076 62.3669 20.4451C62.9677 21.1705 63.3172 22.0409 63.4155 23.0561C63.5138 24.0714 63.3384 24.9986 62.8892 25.8378C62.44 26.677 61.7531 27.3644 60.8284 27.9001C59.9145 28.4226 58.8245 28.7452 57.5584 28.8678C55.2055 29.0957 53.2456 28.6525 51.6789 27.5384L52.1717 32.6266L49.4484 32.8903ZM56.5746 26.7387C58.0318 26.5976 59.1058 26.2344 59.7966 25.6491C60.4993 25.0626 60.8039 24.2856 60.7102 23.3181C60.6165 22.3507 60.1685 21.6466 59.3663 21.2058C58.576 20.764 57.4523 20.6136 55.9951 20.7547C54.4185 20.9074 53.2137 21.2893 52.3807 21.9005C51.5597 22.5104 51.1949 23.2872 51.2863 24.2308C51.3776 25.1744 51.8847 25.8667 52.8076 26.3078C53.7423 26.7478 54.998 26.8914 56.5746 26.7387ZM78.9546 21.4608C78.9823 21.7475 78.9808 22.043 78.95 22.3474L67.2149 23.4839C67.4897 24.2048 68.0415 24.736 68.8703 25.0777C69.711 25.4183 70.8003 25.5238 72.138 25.3942C73.201 25.2913 74.0267 25.1028 74.615 24.8288C75.2022 24.5429 75.6416 24.1628 75.9332 23.6884L78.6461 23.8778C78.1892 24.8865 77.4476 25.6938 76.4212 26.2996C75.3937 26.8934 74.008 27.2747 72.2641 27.4436C70.7114 27.594 69.3648 27.5074 68.2243 27.1838C67.0838 26.8602 66.1952 26.3375 65.5587 25.6155C64.9221 24.8935 64.5529 24.0069 64.4511 22.9558C64.3505 21.9167 64.5373 20.9823 65.0116 20.1528C65.4977 19.322 66.2635 18.639 67.3087 18.1038C68.366 17.5674 69.6829 17.2228 71.2595 17.0701C72.8481 16.9163 74.2012 17.0083 75.319 17.3461C76.4356 17.672 77.2937 18.1917 77.8933 18.9052C78.5048 19.6176 78.8586 20.4695 78.9546 21.4608ZM71.4486 19.023C70.1706 19.1468 69.1679 19.4368 68.4405 19.893C67.7119 20.3373 67.2635 20.9353 67.0952 21.6871L76.1787 20.8074C75.8977 20.1474 75.356 19.6573 74.5534 19.3372C73.7496 19.0051 72.7147 18.9004 71.4486 19.023ZM93.5435 24.9126L89.8169 25.2735L84.5684 22.0565L83.5292 22.1571L83.8866 25.8478L81.1634 26.1116L80.2473 16.6518L82.9705 16.3881L83.3141 19.9355L84.2815 19.8418L88.7216 15.8311L92.1436 15.4997L86.4373 20.6276L93.5435 24.9126ZM20.9151 55.054L19.6918 42.4231L27.3958 41.677C28.7216 41.5486 29.8569 41.6315 30.8016 41.9258C31.7453 42.2082 32.4764 42.6618 32.995 43.2867C33.5125 43.8997 33.8135 44.6421 33.898 45.5141C33.9836 46.3979 33.8318 47.1963 33.4427 47.9091C33.0524 48.61 32.422 49.1955 31.5512 49.6656C30.6793 50.1238 29.5805 50.4171 28.2547 50.5455L23.4173 51.014L23.7817 54.7764L20.9151 55.054ZM28.425 48.1961C29.3089 48.1105 29.9646 47.8481 30.3923 47.4088C30.8307 46.9564 31.0199 46.4197 30.9597 45.7986C30.9007 45.1895 30.6132 44.711 30.0973 44.3631C29.5933 44.014 28.8994 43.8823 28.0155 43.9679L22.784 44.4746L23.1935 48.7028L28.425 48.1961ZM40.4766 53.1595L36.4992 53.5447L35.5831 44.085L38.2347 43.8282L38.9131 50.8334L39.4506 50.7813L44.4516 43.2261L48.429 42.8409L49.3451 52.3006L46.6935 52.5574L46.0168 45.5701L45.4973 45.6204L40.4766 53.1595ZM59.7065 46.4325C60.4609 46.5041 61.0739 46.7341 61.5455 47.1225C62.028 47.4977 62.2958 47.96 62.349 48.5095C62.4404 49.4531 62.0517 50.2322 61.1829 50.8468C60.3129 51.4494 58.9761 51.8381 57.1726 52.0128C55.5721 52.1678 54.2285 52.0507 53.142 51.6617C52.0673 51.2714 51.2765 50.6367 50.7694 49.7575L53.2718 49.0811C53.9296 49.8975 55.1423 50.2201 56.9101 50.0489C57.8775 49.9552 58.6023 49.7826 59.0842 49.5309C59.5651 49.2674 59.787 48.9445 59.75 48.5623C59.7164 48.2159 59.4689 47.9626 59.0073 47.8023C58.5457 47.6421 57.9088 47.6013 57.0966 47.6799L54.7316 47.909L54.5408 45.9382L56.9057 45.7091C58.4584 45.5588 59.2013 45.1372 59.1342 44.4444C59.1018 44.11 58.8488 43.8632 58.3753 43.7041C57.9017 43.545 57.2529 43.5054 56.4287 43.5852C54.8999 43.7333 53.8327 44.2285 53.227 45.0708L50.6592 44.8854C51.0417 43.9803 51.7241 43.2452 52.7061 42.6799C53.6882 42.1146 54.8601 41.766 56.2217 41.6341C57.858 41.4756 59.1555 41.6152 60.1142 42.0528C61.0848 42.4893 61.6129 43.1495 61.6985 44.0333C61.7517 44.5828 61.6051 45.0611 61.2588 45.4684C60.9124 45.8757 60.395 46.1971 59.7065 46.4325ZM69.4307 40.3549C70.5654 40.245 71.5704 40.3526 72.4458 40.6777C73.3201 40.9909 74.0129 41.4844 74.5242 42.1583C75.0356 42.8321 75.3352 43.6229 75.4231 44.5307L75.9263 49.7264L73.9555 49.9172L73.3266 48.2782C72.8574 49.035 72.2167 49.6395 71.4045 50.0919C70.6031 50.5312 69.6769 50.8018 68.6258 50.9036C67.718 50.9915 66.8985 50.9322 66.1672 50.7257C65.437 50.5312 64.8512 50.2082 64.4096 49.7567C63.968 49.3051 63.716 48.7569 63.6535 48.1119C63.5587 47.1325 63.8842 46.3233 64.6301 45.6844C65.3867 45.0325 66.5295 44.6324 68.0584 44.4844L72.6091 44.0437C72.4437 43.4569 72.0804 43.0038 71.519 42.6844C70.9695 42.3639 70.2827 42.2435 69.4586 42.3233C67.9775 42.4668 66.9575 42.9514 66.3984 43.7771L63.8503 43.6079C64.2436 42.6897 64.914 41.9557 65.8614 41.4058C66.8196 40.8428 68.0093 40.4925 69.4307 40.3549ZM68.8793 48.8536C70.0976 48.7356 71.0605 48.4073 71.7678 47.8686C72.486 47.3168 72.8356 46.6319 72.8167 45.8139L68.1406 46.2668C67.4597 46.3327 66.9739 46.4822 66.683 46.7153C66.391 46.9365 66.2646 47.2502 66.3039 47.6563C66.3502 48.134 66.5939 48.4721 67.0351 48.6705C67.4763 48.8689 68.091 48.9299 68.8793 48.8536ZM91.6782 43.3362C91.7059 43.6229 91.7044 43.9184 91.6736 44.2228L79.9385 45.3593C80.2133 46.0801 80.7651 46.6114 81.5939 46.9531C82.4346 47.2937 83.5238 47.3992 84.8616 47.2696C85.9246 47.1666 86.7503 46.9782 87.3386 46.7042C87.9258 46.4183 88.3652 46.0381 88.6568 45.5638L91.3697 45.7532C90.9128 46.7619 90.1712 47.5692 89.1448 48.1749C88.1173 48.7687 86.7316 49.1501 84.9877 49.319C83.435 49.4694 82.0884 49.3828 80.9479 49.0592C79.8074 48.7356 78.9188 48.2128 78.2823 47.4908C77.6457 46.7688 77.2765 45.8823 77.1747 44.8312C77.0741 43.7921 77.2609 42.8577 77.7352 42.0281C78.2213 41.1974 78.9871 40.5144 80.0323 39.9792C81.0896 39.4428 82.4065 39.0982 83.9831 38.9455C85.5717 38.7917 86.9248 38.8837 88.0426 39.2215C89.1592 39.5474 90.0173 40.0671 90.6169 40.7806C91.2284 41.493 91.5822 42.3448 91.6782 43.3362ZM84.1722 40.8984C82.8942 41.0221 81.8915 41.3122 81.1641 41.7684C80.4355 42.2127 79.9871 42.8107 79.8188 43.5624L88.9023 42.6827C88.6213 42.0227 88.0796 41.5327 87.277 41.2126C86.4732 40.8805 85.4383 40.7758 84.1722 40.8984ZM103.194 42.1305C103.866 42.2222 104.412 42.4466 104.832 42.8037C105.253 43.1609 105.49 43.6201 105.544 44.1815C105.622 44.9817 105.35 45.6591 104.729 46.2136C104.106 46.7561 103.15 47.0899 101.86 47.2148L93.887 47.9869L92.9708 38.5272L100.603 37.788C101.857 37.6666 102.829 37.8016 103.518 38.193C104.217 38.5713 104.605 39.1486 104.68 39.925C104.781 40.9641 104.285 41.6993 103.194 42.1305ZM95.8081 40.1874L95.9885 42.0507L100.772 41.5874C101.238 41.5423 101.57 41.4257 101.769 41.2377C101.979 41.0366 102.07 40.7986 102.044 40.5239C102.017 40.2492 101.882 40.0392 101.639 39.894C101.407 39.7357 101.058 39.679 100.592 39.7242L95.8081 40.1874ZM101.441 45.3203C101.931 45.2729 102.292 45.1415 102.524 44.9261C102.768 44.7095 102.876 44.446 102.845 44.1354C102.817 43.8368 102.668 43.6101 102.4 43.4552C102.142 43.2873 101.757 43.2282 101.243 43.2779L96.1551 43.7707L96.3529 45.8131L101.441 45.3203Z" fill="black"/>
</svg>
