<svg width="43" height="43" viewBox="0 0 43 43" fill="none" xmlns="http://www.w3.org/2000/svg">
<path d="M0 15.5222C0 2.73968 2.73968 0 15.5222 0H26.9347C39.7172 0 42.4569 2.73968 42.4569 15.5222V26.9347C42.4569 39.7172 39.7172 42.4569 26.9347 42.4569H15.5222C2.73968 42.4569 0 39.7172 0 26.9347V15.5222Z" fill="#0077FF"/>
<path d="M22.8135 42.4569H26.8612C39.4033 42.4569 42.3224 39.8441 42.4524 27.817C42.4555 27.5283 42.457 27.2342 42.457 26.9347V15.5222C42.457 15.1991 42.4552 14.8825 42.4516 14.5721C42.3114 2.60293 39.3797 0 26.8612 0H22.8135C9.97043 0 7.21777 2.73968 7.21777 15.5222V26.9347C7.21777 39.7172 9.97043 42.4569 22.8135 42.4569Z" fill="#FF2B42"/>
<path d="M29.9587 17.5554C32.1051 18.7946 33.1783 19.4142 33.5384 20.2231C33.8526 20.9287 33.8526 21.7345 33.5384 22.44C33.1783 23.249 32.1051 23.8686 29.9587 25.1078L24.0771 28.5035C21.9308 29.7427 20.8576 30.3623 19.977 30.2698C19.2088 30.189 18.5111 29.7862 18.0571 29.1613C17.5366 28.4449 17.5366 27.2057 17.5366 24.7273L17.5366 17.9358C17.5366 15.4574 17.5366 14.2182 18.0571 13.5019C18.5111 12.877 19.2088 12.4741 19.977 12.3934C20.8576 12.3009 21.9308 12.9205 24.0771 14.1597L29.9587 17.5554Z" fill="white"/>
</svg>
