<svg width="198" height="43" viewBox="0 0 198 43" fill="none" xmlns="http://www.w3.org/2000/svg">
<g clip-path="url(#clip0_226_30669)">
<path d="M64.8549 31.9452H70.1527L77.9328 10.6142H74.0882L67.8519 28.1933H67.2465L61.2221 10.6142H57.3169L64.8549 31.9452Z" fill="white"/>
<path d="M97.8274 31.9452L88.019 20.9015L97.0706 10.6142H92.5902L85.0219 19.2979H84.144V10.6142H80.5113V31.9452H84.144V22.8077H85.0522L93.0443 31.9452H97.8274Z" fill="white"/>
<path d="M118.668 20.9923C120.545 20.2661 121.726 18.602 121.726 16.4235C121.726 13.0348 118.91 10.6142 114.793 10.6142H106.468V31.9452H115.399C119.546 31.9452 122.361 29.5246 122.361 25.9846C122.361 23.5036 120.969 21.6579 118.668 20.9923ZM110.101 13.7912H114.793C116.731 13.7912 118.063 14.9712 118.063 16.7261C118.063 18.4507 116.731 19.6307 114.793 19.6307H110.101V13.7912ZM115.399 28.7682H110.101V22.8077H115.399C117.306 22.8077 118.638 24.0179 118.638 25.7728C118.638 27.5579 117.306 28.7682 115.399 28.7682Z" fill="white"/>
<path d="M125.677 31.9452H130.612L136.485 20.2661H136.969V31.9452H140.299V16.2117H135.365L129.492 27.8908H129.007V16.2117H125.677V31.9452Z" fill="white"/>
<path d="M142.578 36.6349H146.06V31.9452H157.382V36.6349H160.863V28.7682H158.138V16.2117H146.604L145.817 24.26C145.545 27.1041 144.697 28.7682 142.972 28.7682H142.578V36.6349ZM147.876 28.7682C148.724 27.9513 149.087 26.5595 149.329 24.1995L149.813 19.3887H154.657V28.7682H147.876Z" fill="white"/>
<path d="M178.426 23.8969C178.426 19.3584 175.035 15.9091 170.252 15.9091C165.469 15.9091 162.078 19.3281 162.078 24.0784C162.078 28.8287 165.469 32.2477 170.252 32.2477C173.521 32.2477 176.609 30.7046 177.79 27.7092L174.52 27.1646C173.764 28.2841 172.311 29.0708 170.464 29.0708C167.8 29.0708 166.044 27.4369 165.711 25.0164H178.365C178.395 24.6836 178.426 24.3205 178.426 23.8969ZM170.252 18.9348C172.432 18.9348 174.066 20.3266 174.642 22.2933H165.923C166.498 20.2661 168.133 18.9348 170.252 18.9348Z" fill="white"/>
<path d="M188.646 32.2477C193.581 32.2477 197.062 28.859 197.062 24.0784C197.062 19.2979 193.581 15.9091 188.646 15.9091C183.712 15.9091 180.23 19.2979 180.23 24.0784C180.23 28.859 183.712 32.2477 188.646 32.2477ZM188.646 29.0708C185.8 29.0708 183.863 27.0436 183.863 24.0784C183.863 21.1133 185.8 19.0861 188.646 19.0861C191.492 19.0861 193.429 21.1133 193.429 24.0784C193.429 27.0436 191.492 29.0708 188.646 29.0708Z" fill="white"/>
</g>
<path d="M0 15.5222C0 2.73968 2.73968 0 15.5222 0H26.9347C39.7172 0 42.4569 2.73968 42.4569 15.5222V26.9347C42.4569 39.7172 39.7172 42.4569 26.9347 42.4569H15.5222C2.73968 42.4569 0 39.7172 0 26.9347V15.5222Z" fill="#0077FF"/>
<path d="M22.8135 42.4569H26.8612C39.4033 42.4569 42.3224 39.8441 42.4524 27.817C42.4555 27.5283 42.457 27.2342 42.457 26.9347V15.5222C42.457 15.1991 42.4552 14.8825 42.4516 14.5721C42.3114 2.60293 39.3797 0 26.8612 0H22.8135C9.97043 0 7.21777 2.73968 7.21777 15.5222V26.9347C7.21777 39.7172 9.97043 42.4569 22.8135 42.4569Z" fill="#FF2B42"/>
<path d="M29.9587 17.5554C32.1051 18.7946 33.1783 19.4142 33.5384 20.2231C33.8526 20.9287 33.8526 21.7345 33.5384 22.44C33.1783 23.249 32.1051 23.8686 29.9587 25.1078L24.0771 28.5035C21.9308 29.7427 20.8576 30.3623 19.977 30.2698C19.2088 30.189 18.5111 29.7862 18.0571 29.1613C17.5366 28.4449 17.5366 27.2057 17.5366 24.7273L17.5366 17.9358C17.5366 15.4574 17.5366 14.2182 18.0571 13.5019C18.5111 12.877 19.2088 12.4741 19.977 12.3934C20.8576 12.3009 21.9308 12.9205 24.0771 14.1597L29.9587 17.5554Z" fill="white"/>
<defs>
<clipPath id="clip0_226_30669">
<rect width="140.259" height="42.4569" fill="white" transform="translate(57.3169)"/>
</clipPath>
</defs>
</svg>
